<?xml version="1.0" encoding="utf-8" standalone="no"?>
<!DOCTYPE svg PUBLIC "-//W3C//DTD SVG 1.1//EN"
  "http://www.w3.org/Graphics/SVG/1.1/DTD/svg11.dtd">
<svg xmlns:xlink="http://www.w3.org/1999/xlink" width="437.998281pt" height="270.01125pt" viewBox="0 0 437.998281 270.01125" xmlns="http://www.w3.org/2000/svg" version="1.1">
 <metadata>
  <rdf:RDF xmlns:dc="http://purl.org/dc/elements/1.1/" xmlns:cc="http://creativecommons.org/ns#" xmlns:rdf="http://www.w3.org/1999/02/22-rdf-syntax-ns#">
   <cc:Work>
    <dc:type rdf:resource="http://purl.org/dc/dcmitype/StillImage"/>
    <dc:date>2026-04-23T19:01:26.508154</dc:date>
    <dc:format>image/svg+xml</dc:format>
    <dc:creator>
     <cc:Agent>
      <dc:title>Matplotlib v3.10.8, https://matplotlib.org/</dc:title>
     </cc:Agent>
    </dc:creator>
   </cc:Work>
  </rdf:RDF>
 </metadata>
 <defs>
  <style type="text/css">*{stroke-linejoin: round; stroke-linecap: butt}</style>
 </defs>
 <g id="figure_1">
  <g id="patch_1">
   <path d="M 0 270.01125 
L 437.998281 270.01125 
L 437.998281 0 
L 0 0 
z
" style="fill: #ffffff"/>
  </g>
  <g id="axes_1">
   <g id="patch_2">
    <path d="M 43.798281 238.958437 
L 434.398281 238.958437 
L 434.398281 17.198437 
L 43.798281 17.198437 
z
" style="fill: #ffffff"/>
   </g>
   <g id="matplotlib.axis_1">
    <g id="xtick_1">
     <g id="line2d_1">
      <path d="M 46.735123 238.958437 
L 46.735123 17.198437 
" clip-path="url(#peb48088d19)" style="fill: none; stroke-dasharray: 2.96,1.28; stroke-dashoffset: 0; stroke: #b0b0b0; stroke-opacity: 0.3; stroke-width: 0.8"/>
     </g>
     <g id="line2d_2">
      <defs>
       <path id="m5588d05171" d="M 0 0 
L 0 3.5 
" style="stroke: #000000; stroke-width: 0.8"/>
      </defs>
      <g>
       <use xlink:href="#m5588d05171" x="46.735123" y="238.958437" style="stroke: #000000; stroke-width: 0.8"/>
      </g>
     </g>
     <g id="text_1">
      <!-- 2015 -->
      <g transform="translate(36.555123 252.037187) scale(0.08 -0.08)">
       <defs>
        <path id="DejaVuSerif-32" d="M 819 3553 
L 469 3553 
L 469 4384 
Q 803 4563 1142 4656 
Q 1481 4750 1806 4750 
Q 2534 4750 2956 4397 
Q 3378 4044 3378 3438 
Q 3378 2753 2422 1800 
Q 2347 1728 2309 1691 
L 1131 513 
L 3078 513 
L 3078 1088 
L 3444 1088 
L 3444 0 
L 434 0 
L 434 341 
L 1850 1753 
Q 2319 2222 2519 2614 
Q 2719 3006 2719 3438 
Q 2719 3909 2473 4175 
Q 2228 4441 1797 4441 
Q 1350 4441 1106 4219 
Q 863 3997 819 3553 
z
" transform="scale(0.015625)"/>
        <path id="DejaVuSerif-30" d="M 2034 219 
Q 2513 219 2750 744 
Q 2988 1269 2988 2328 
Q 2988 3391 2750 3916 
Q 2513 4441 2034 4441 
Q 1556 4441 1318 3916 
Q 1081 3391 1081 2328 
Q 1081 1269 1318 744 
Q 1556 219 2034 219 
z
M 2034 -91 
Q 1275 -91 848 546 
Q 422 1184 422 2328 
Q 422 3475 848 4112 
Q 1275 4750 2034 4750 
Q 2797 4750 3222 4112 
Q 3647 3475 3647 2328 
Q 3647 1184 3222 546 
Q 2797 -91 2034 -91 
z
" transform="scale(0.015625)"/>
        <path id="DejaVuSerif-31" d="M 909 0 
L 909 331 
L 1722 331 
L 1722 4213 
L 781 3603 
L 781 4013 
L 1919 4750 
L 2350 4750 
L 2350 331 
L 3163 331 
L 3163 0 
L 909 0 
z
" transform="scale(0.015625)"/>
        <path id="DejaVuSerif-35" d="M 3219 4666 
L 3219 4153 
L 1081 4153 
L 1081 2816 
Q 1244 2928 1461 2984 
Q 1678 3041 1947 3041 
Q 2703 3041 3140 2622 
Q 3578 2203 3578 1478 
Q 3578 738 3136 323 
Q 2694 -91 1894 -91 
Q 1572 -91 1234 -12 
Q 897 66 544 225 
L 544 1131 
L 897 1131 
Q 925 688 1179 453 
Q 1434 219 1894 219 
Q 2388 219 2653 544 
Q 2919 869 2919 1478 
Q 2919 2084 2655 2407 
Q 2391 2731 1894 2731 
Q 1613 2731 1398 2631 
Q 1184 2531 1019 2322 
L 750 2322 
L 750 4666 
L 3219 4666 
z
" transform="scale(0.015625)"/>
       </defs>
       <use xlink:href="#DejaVuSerif-32"/>
       <use xlink:href="#DejaVuSerif-30" transform="translate(63.623047 0)"/>
       <use xlink:href="#DejaVuSerif-31" transform="translate(127.246094 0)"/>
       <use xlink:href="#DejaVuSerif-35" transform="translate(190.869141 0)"/>
      </g>
     </g>
    </g>
    <g id="xtick_2">
     <g id="line2d_3">
      <path d="M 81.977229 238.958437 
L 81.977229 17.198437 
" clip-path="url(#peb48088d19)" style="fill: none; stroke-dasharray: 2.96,1.28; stroke-dashoffset: 0; stroke: #b0b0b0; stroke-opacity: 0.3; stroke-width: 0.8"/>
     </g>
     <g id="line2d_4">
      <g>
       <use xlink:href="#m5588d05171" x="81.977229" y="238.958437" style="stroke: #000000; stroke-width: 0.8"/>
      </g>
     </g>
     <g id="text_2">
      <!-- 2016 -->
      <g transform="translate(71.797229 252.037187) scale(0.08 -0.08)">
       <defs>
        <path id="DejaVuSerif-36" d="M 2094 219 
Q 2534 219 2771 542 
Q 3009 866 3009 1472 
Q 3009 2078 2771 2401 
Q 2534 2725 2094 2725 
Q 1647 2725 1412 2412 
Q 1178 2100 1178 1509 
Q 1178 888 1415 553 
Q 1653 219 2094 219 
z
M 1075 2569 
Q 1288 2803 1556 2918 
Q 1825 3034 2163 3034 
Q 2859 3034 3264 2615 
Q 3669 2197 3669 1472 
Q 3669 763 3233 336 
Q 2797 -91 2069 -91 
Q 1278 -91 853 498 
Q 428 1088 428 2181 
Q 428 3406 931 4078 
Q 1434 4750 2350 4750 
Q 2597 4750 2869 4703 
Q 3141 4656 3425 4563 
L 3425 3794 
L 3072 3794 
Q 3034 4109 2831 4275 
Q 2628 4441 2284 4441 
Q 1678 4441 1381 3981 
Q 1084 3522 1075 2569 
z
" transform="scale(0.015625)"/>
       </defs>
       <use xlink:href="#DejaVuSerif-32"/>
       <use xlink:href="#DejaVuSerif-30" transform="translate(63.623047 0)"/>
       <use xlink:href="#DejaVuSerif-31" transform="translate(127.246094 0)"/>
       <use xlink:href="#DejaVuSerif-36" transform="translate(190.869141 0)"/>
      </g>
     </g>
    </g>
    <g id="xtick_3">
     <g id="line2d_5">
      <path d="M 117.219334 238.958437 
L 117.219334 17.198437 
" clip-path="url(#peb48088d19)" style="fill: none; stroke-dasharray: 2.96,1.28; stroke-dashoffset: 0; stroke: #b0b0b0; stroke-opacity: 0.3; stroke-width: 0.8"/>
     </g>
     <g id="line2d_6">
      <g>
       <use xlink:href="#m5588d05171" x="117.219334" y="238.958437" style="stroke: #000000; stroke-width: 0.8"/>
      </g>
     </g>
     <g id="text_3">
      <!-- 2017 -->
      <g transform="translate(107.039334 252.037187) scale(0.08 -0.08)">
       <defs>
        <path id="DejaVuSerif-37" d="M 3609 4347 
L 1784 0 
L 1319 0 
L 3059 4153 
L 903 4153 
L 903 3578 
L 538 3578 
L 538 4666 
L 3609 4666 
L 3609 4347 
z
" transform="scale(0.015625)"/>
       </defs>
       <use xlink:href="#DejaVuSerif-32"/>
       <use xlink:href="#DejaVuSerif-30" transform="translate(63.623047 0)"/>
       <use xlink:href="#DejaVuSerif-31" transform="translate(127.246094 0)"/>
       <use xlink:href="#DejaVuSerif-37" transform="translate(190.869141 0)"/>
      </g>
     </g>
    </g>
    <g id="xtick_4">
     <g id="line2d_7">
      <path d="M 152.461439 238.958437 
L 152.461439 17.198437 
" clip-path="url(#peb48088d19)" style="fill: none; stroke-dasharray: 2.96,1.28; stroke-dashoffset: 0; stroke: #b0b0b0; stroke-opacity: 0.3; stroke-width: 0.8"/>
     </g>
     <g id="line2d_8">
      <g>
       <use xlink:href="#m5588d05171" x="152.461439" y="238.958437" style="stroke: #000000; stroke-width: 0.8"/>
      </g>
     </g>
     <g id="text_4">
      <!-- 2018 -->
      <g transform="translate(142.281439 252.037187) scale(0.08 -0.08)">
       <defs>
        <path id="DejaVuSerif-38" d="M 2981 1275 
Q 2981 1775 2732 2051 
Q 2484 2328 2034 2328 
Q 1584 2328 1336 2051 
Q 1088 1775 1088 1275 
Q 1088 772 1336 495 
Q 1584 219 2034 219 
Q 2484 219 2732 495 
Q 2981 772 2981 1275 
z
M 2853 3541 
Q 2853 3966 2637 4203 
Q 2422 4441 2034 4441 
Q 1650 4441 1433 4203 
Q 1216 3966 1216 3541 
Q 1216 3113 1433 2875 
Q 1650 2638 2034 2638 
Q 2422 2638 2637 2875 
Q 2853 3113 2853 3541 
z
M 2516 2484 
Q 3047 2413 3344 2092 
Q 3641 1772 3641 1275 
Q 3641 619 3225 264 
Q 2809 -91 2034 -91 
Q 1263 -91 845 264 
Q 428 619 428 1275 
Q 428 1772 725 2092 
Q 1022 2413 1556 2484 
Q 1084 2569 832 2842 
Q 581 3116 581 3541 
Q 581 4103 968 4426 
Q 1356 4750 2034 4750 
Q 2713 4750 3100 4426 
Q 3488 4103 3488 3541 
Q 3488 3116 3236 2842 
Q 2984 2569 2516 2484 
z
" transform="scale(0.015625)"/>
       </defs>
       <use xlink:href="#DejaVuSerif-32"/>
       <use xlink:href="#DejaVuSerif-30" transform="translate(63.623047 0)"/>
       <use xlink:href="#DejaVuSerif-31" transform="translate(127.246094 0)"/>
       <use xlink:href="#DejaVuSerif-38" transform="translate(190.869141 0)"/>
      </g>
     </g>
    </g>
    <g id="xtick_5">
     <g id="line2d_9">
      <path d="M 187.703544 238.958437 
L 187.703544 17.198437 
" clip-path="url(#peb48088d19)" style="fill: none; stroke-dasharray: 2.96,1.28; stroke-dashoffset: 0; stroke: #b0b0b0; stroke-opacity: 0.3; stroke-width: 0.8"/>
     </g>
     <g id="line2d_10">
      <g>
       <use xlink:href="#m5588d05171" x="187.703544" y="238.958437" style="stroke: #000000; stroke-width: 0.8"/>
      </g>
     </g>
     <g id="text_5">
      <!-- 2019 -->
      <g transform="translate(177.523544 252.037187) scale(0.08 -0.08)">
       <defs>
        <path id="DejaVuSerif-39" d="M 2994 2091 
Q 2784 1856 2512 1740 
Q 2241 1625 1900 1625 
Q 1206 1625 804 2044 
Q 403 2463 403 3188 
Q 403 3897 839 4323 
Q 1275 4750 2003 4750 
Q 2794 4750 3217 4161 
Q 3641 3572 3641 2478 
Q 3641 1253 3137 581 
Q 2634 -91 1722 -91 
Q 1475 -91 1203 -44 
Q 931 3 647 97 
L 647 872 
L 997 872 
Q 1038 556 1241 387 
Q 1444 219 1784 219 
Q 2391 219 2687 676 
Q 2984 1134 2994 2091 
z
M 1978 4441 
Q 1534 4441 1298 4117 
Q 1063 3794 1063 3188 
Q 1063 2581 1298 2256 
Q 1534 1931 1978 1931 
Q 2422 1931 2658 2245 
Q 2894 2559 2894 3150 
Q 2894 3772 2656 4106 
Q 2419 4441 1978 4441 
z
" transform="scale(0.015625)"/>
       </defs>
       <use xlink:href="#DejaVuSerif-32"/>
       <use xlink:href="#DejaVuSerif-30" transform="translate(63.623047 0)"/>
       <use xlink:href="#DejaVuSerif-31" transform="translate(127.246094 0)"/>
       <use xlink:href="#DejaVuSerif-39" transform="translate(190.869141 0)"/>
      </g>
     </g>
    </g>
    <g id="xtick_6">
     <g id="line2d_11">
      <path d="M 222.94565 238.958437 
L 222.94565 17.198437 
" clip-path="url(#peb48088d19)" style="fill: none; stroke-dasharray: 2.96,1.28; stroke-dashoffset: 0; stroke: #b0b0b0; stroke-opacity: 0.3; stroke-width: 0.8"/>
     </g>
     <g id="line2d_12">
      <g>
       <use xlink:href="#m5588d05171" x="222.94565" y="238.958437" style="stroke: #000000; stroke-width: 0.8"/>
      </g>
     </g>
     <g id="text_6">
      <!-- 2020 -->
      <g transform="translate(212.76565 252.037187) scale(0.08 -0.08)">
       <use xlink:href="#DejaVuSerif-32"/>
       <use xlink:href="#DejaVuSerif-30" transform="translate(63.623047 0)"/>
       <use xlink:href="#DejaVuSerif-32" transform="translate(127.246094 0)"/>
       <use xlink:href="#DejaVuSerif-30" transform="translate(190.869141 0)"/>
      </g>
     </g>
    </g>
    <g id="xtick_7">
     <g id="line2d_13">
      <path d="M 258.187755 238.958437 
L 258.187755 17.198437 
" clip-path="url(#peb48088d19)" style="fill: none; stroke-dasharray: 2.96,1.28; stroke-dashoffset: 0; stroke: #b0b0b0; stroke-opacity: 0.3; stroke-width: 0.8"/>
     </g>
     <g id="line2d_14">
      <g>
       <use xlink:href="#m5588d05171" x="258.187755" y="238.958437" style="stroke: #000000; stroke-width: 0.8"/>
      </g>
     </g>
     <g id="text_7">
      <!-- 2021 -->
      <g transform="translate(248.007755 252.037187) scale(0.08 -0.08)">
       <use xlink:href="#DejaVuSerif-32"/>
       <use xlink:href="#DejaVuSerif-30" transform="translate(63.623047 0)"/>
       <use xlink:href="#DejaVuSerif-32" transform="translate(127.246094 0)"/>
       <use xlink:href="#DejaVuSerif-31" transform="translate(190.869141 0)"/>
      </g>
     </g>
    </g>
    <g id="xtick_8">
     <g id="line2d_15">
      <path d="M 293.42986 238.958437 
L 293.42986 17.198437 
" clip-path="url(#peb48088d19)" style="fill: none; stroke-dasharray: 2.96,1.28; stroke-dashoffset: 0; stroke: #b0b0b0; stroke-opacity: 0.3; stroke-width: 0.8"/>
     </g>
     <g id="line2d_16">
      <g>
       <use xlink:href="#m5588d05171" x="293.42986" y="238.958437" style="stroke: #000000; stroke-width: 0.8"/>
      </g>
     </g>
     <g id="text_8">
      <!-- 2022 -->
      <g transform="translate(283.24986 252.037187) scale(0.08 -0.08)">
       <use xlink:href="#DejaVuSerif-32"/>
       <use xlink:href="#DejaVuSerif-30" transform="translate(63.623047 0)"/>
       <use xlink:href="#DejaVuSerif-32" transform="translate(127.246094 0)"/>
       <use xlink:href="#DejaVuSerif-32" transform="translate(190.869141 0)"/>
      </g>
     </g>
    </g>
    <g id="xtick_9">
     <g id="line2d_17">
      <path d="M 328.671965 238.958437 
L 328.671965 17.198437 
" clip-path="url(#peb48088d19)" style="fill: none; stroke-dasharray: 2.96,1.28; stroke-dashoffset: 0; stroke: #b0b0b0; stroke-opacity: 0.3; stroke-width: 0.8"/>
     </g>
     <g id="line2d_18">
      <g>
       <use xlink:href="#m5588d05171" x="328.671965" y="238.958437" style="stroke: #000000; stroke-width: 0.8"/>
      </g>
     </g>
     <g id="text_9">
      <!-- 2023 -->
      <g transform="translate(318.491965 252.037187) scale(0.08 -0.08)">
       <defs>
        <path id="DejaVuSerif-33" d="M 622 4469 
Q 988 4606 1323 4678 
Q 1659 4750 1953 4750 
Q 2638 4750 3022 4454 
Q 3406 4159 3406 3634 
Q 3406 3213 3140 2930 
Q 2875 2647 2388 2547 
Q 2963 2466 3280 2130 
Q 3597 1794 3597 1259 
Q 3597 606 3158 257 
Q 2719 -91 1894 -91 
Q 1528 -91 1179 -12 
Q 831 66 488 225 
L 488 1131 
L 838 1131 
Q 869 681 1141 450 
Q 1413 219 1906 219 
Q 2384 219 2661 495 
Q 2938 772 2938 1253 
Q 2938 1803 2653 2086 
Q 2369 2369 1819 2369 
L 1522 2369 
L 1522 2688 
L 1678 2688 
Q 2225 2688 2498 2914 
Q 2772 3141 2772 3597 
Q 2772 4006 2547 4223 
Q 2322 4441 1900 4441 
Q 1478 4441 1245 4241 
Q 1013 4041 972 3647 
L 622 3647 
L 622 4469 
z
" transform="scale(0.015625)"/>
       </defs>
       <use xlink:href="#DejaVuSerif-32"/>
       <use xlink:href="#DejaVuSerif-30" transform="translate(63.623047 0)"/>
       <use xlink:href="#DejaVuSerif-32" transform="translate(127.246094 0)"/>
       <use xlink:href="#DejaVuSerif-33" transform="translate(190.869141 0)"/>
      </g>
     </g>
    </g>
    <g id="xtick_10">
     <g id="line2d_19">
      <path d="M 363.914071 238.958437 
L 363.914071 17.198437 
" clip-path="url(#peb48088d19)" style="fill: none; stroke-dasharray: 2.96,1.28; stroke-dashoffset: 0; stroke: #b0b0b0; stroke-opacity: 0.3; stroke-width: 0.8"/>
     </g>
     <g id="line2d_20">
      <g>
       <use xlink:href="#m5588d05171" x="363.914071" y="238.958437" style="stroke: #000000; stroke-width: 0.8"/>
      </g>
     </g>
     <g id="text_10">
      <!-- 2024 -->
      <g transform="translate(353.734071 252.037187) scale(0.08 -0.08)">
       <defs>
        <path id="DejaVuSerif-34" d="M 2234 1581 
L 2234 4063 
L 641 1581 
L 2234 1581 
z
M 3609 0 
L 1484 0 
L 1484 331 
L 2234 331 
L 2234 1247 
L 197 1247 
L 197 1588 
L 2241 4750 
L 2859 4750 
L 2859 1581 
L 3750 1581 
L 3750 1247 
L 2859 1247 
L 2859 331 
L 3609 331 
L 3609 0 
z
" transform="scale(0.015625)"/>
       </defs>
       <use xlink:href="#DejaVuSerif-32"/>
       <use xlink:href="#DejaVuSerif-30" transform="translate(63.623047 0)"/>
       <use xlink:href="#DejaVuSerif-32" transform="translate(127.246094 0)"/>
       <use xlink:href="#DejaVuSerif-34" transform="translate(190.869141 0)"/>
      </g>
     </g>
    </g>
    <g id="xtick_11">
     <g id="line2d_21">
      <path d="M 399.156176 238.958437 
L 399.156176 17.198437 
" clip-path="url(#peb48088d19)" style="fill: none; stroke-dasharray: 2.96,1.28; stroke-dashoffset: 0; stroke: #b0b0b0; stroke-opacity: 0.3; stroke-width: 0.8"/>
     </g>
     <g id="line2d_22">
      <g>
       <use xlink:href="#m5588d05171" x="399.156176" y="238.958437" style="stroke: #000000; stroke-width: 0.8"/>
      </g>
     </g>
     <g id="text_11">
      <!-- 2025 -->
      <g transform="translate(388.976176 252.037187) scale(0.08 -0.08)">
       <use xlink:href="#DejaVuSerif-32"/>
       <use xlink:href="#DejaVuSerif-30" transform="translate(63.623047 0)"/>
       <use xlink:href="#DejaVuSerif-32" transform="translate(127.246094 0)"/>
       <use xlink:href="#DejaVuSerif-35" transform="translate(190.869141 0)"/>
      </g>
     </g>
    </g>
    <g id="text_12">
     <!-- Month -->
     <g transform="translate(224.176563 264.539531) scale(0.09 -0.09)">
      <defs>
       <path id="DejaVuSerif-4d" d="M 353 0 
L 353 331 
L 947 331 
L 947 4331 
L 319 4331 
L 319 4666 
L 1678 4666 
L 3316 1344 
L 4953 4666 
L 6228 4666 
L 6228 4331 
L 5606 4331 
L 5606 331 
L 6203 331 
L 6203 0 
L 4378 0 
L 4378 331 
L 4972 331 
L 4972 3938 
L 3372 684 
L 2931 684 
L 1331 3938 
L 1331 331 
L 1925 331 
L 1925 0 
L 353 0 
z
" transform="scale(0.015625)"/>
       <path id="DejaVuSerif-6f" d="M 1925 219 
Q 2388 219 2623 584 
Q 2859 950 2859 1663 
Q 2859 2375 2623 2739 
Q 2388 3103 1925 3103 
Q 1463 3103 1227 2739 
Q 991 2375 991 1663 
Q 991 950 1228 584 
Q 1466 219 1925 219 
z
M 1925 -91 
Q 1200 -91 759 389 
Q 319 869 319 1663 
Q 319 2456 758 2934 
Q 1197 3413 1925 3413 
Q 2653 3413 3092 2934 
Q 3531 2456 3531 1663 
Q 3531 869 3092 389 
Q 2653 -91 1925 -91 
z
" transform="scale(0.015625)"/>
       <path id="DejaVuSerif-6e" d="M 263 0 
L 263 331 
L 781 331 
L 781 2988 
L 231 2988 
L 231 3322 
L 1356 3322 
L 1356 2731 
Q 1516 3069 1770 3241 
Q 2025 3413 2363 3413 
Q 2913 3413 3172 3097 
Q 3431 2781 3431 2113 
L 3431 331 
L 3944 331 
L 3944 0 
L 2356 0 
L 2356 331 
L 2853 331 
L 2853 1931 
Q 2853 2541 2703 2767 
Q 2553 2994 2175 2994 
Q 1775 2994 1565 2701 
Q 1356 2409 1356 1850 
L 1356 331 
L 1856 331 
L 1856 0 
L 263 0 
z
" transform="scale(0.015625)"/>
       <path id="DejaVuSerif-74" d="M 691 2988 
L 184 2988 
L 184 3322 
L 691 3322 
L 691 4353 
L 1269 4353 
L 1269 3322 
L 2350 3322 
L 2350 2988 
L 1269 2988 
L 1269 878 
Q 1269 456 1350 337 
Q 1431 219 1650 219 
Q 1875 219 1978 351 
Q 2081 484 2088 781 
L 2522 781 
Q 2497 328 2275 118 
Q 2053 -91 1600 -91 
Q 1103 -91 897 129 
Q 691 350 691 878 
L 691 2988 
z
" transform="scale(0.015625)"/>
       <path id="DejaVuSerif-68" d="M 263 0 
L 263 331 
L 781 331 
L 781 4531 
L 231 4531 
L 231 4863 
L 1356 4863 
L 1356 2731 
Q 1516 3069 1770 3241 
Q 2025 3413 2363 3413 
Q 2913 3413 3172 3097 
Q 3431 2781 3431 2113 
L 3431 331 
L 3944 331 
L 3944 0 
L 2356 0 
L 2356 331 
L 2853 331 
L 2853 1931 
Q 2853 2541 2704 2764 
Q 2556 2988 2175 2988 
Q 1775 2988 1565 2697 
Q 1356 2406 1356 1850 
L 1356 331 
L 1856 331 
L 1856 0 
L 263 0 
z
" transform="scale(0.015625)"/>
      </defs>
      <use xlink:href="#DejaVuSerif-4d"/>
      <use xlink:href="#DejaVuSerif-6f" transform="translate(102.392578 0)"/>
      <use xlink:href="#DejaVuSerif-6e" transform="translate(162.597656 0)"/>
      <use xlink:href="#DejaVuSerif-74" transform="translate(227.001953 0)"/>
      <use xlink:href="#DejaVuSerif-68" transform="translate(267.1875 0)"/>
     </g>
    </g>
   </g>
   <g id="matplotlib.axis_2">
    <g id="ytick_1">
     <g id="line2d_23">
      <path d="M 43.798281 232.240188 
L 434.398281 232.240188 
" clip-path="url(#peb48088d19)" style="fill: none; stroke-dasharray: 2.96,1.28; stroke-dashoffset: 0; stroke: #b0b0b0; stroke-opacity: 0.3; stroke-width: 0.8"/>
     </g>
     <g id="line2d_24">
      <defs>
       <path id="mf11504f133" d="M 0 0 
L -3.5 0 
" style="stroke: #000000; stroke-width: 0.8"/>
      </defs>
      <g>
       <use xlink:href="#mf11504f133" x="43.798281" y="232.240188" style="stroke: #000000; stroke-width: 0.8"/>
      </g>
     </g>
     <g id="text_13">
      <!-- 0 -->
      <g transform="translate(31.708281 235.279563) scale(0.08 -0.08)">
       <use xlink:href="#DejaVuSerif-30"/>
      </g>
     </g>
    </g>
    <g id="ytick_2">
     <g id="line2d_25">
      <path d="M 43.798281 205.976509 
L 434.398281 205.976509 
" clip-path="url(#peb48088d19)" style="fill: none; stroke-dasharray: 2.96,1.28; stroke-dashoffset: 0; stroke: #b0b0b0; stroke-opacity: 0.3; stroke-width: 0.8"/>
     </g>
     <g id="line2d_26">
      <g>
       <use xlink:href="#mf11504f133" x="43.798281" y="205.976509" style="stroke: #000000; stroke-width: 0.8"/>
      </g>
     </g>
     <g id="text_14">
      <!-- 250 -->
      <g transform="translate(21.528281 209.015884) scale(0.08 -0.08)">
       <use xlink:href="#DejaVuSerif-32"/>
       <use xlink:href="#DejaVuSerif-35" transform="translate(63.623047 0)"/>
       <use xlink:href="#DejaVuSerif-30" transform="translate(127.246094 0)"/>
      </g>
     </g>
    </g>
    <g id="ytick_3">
     <g id="line2d_27">
      <path d="M 43.798281 179.71283 
L 434.398281 179.71283 
" clip-path="url(#peb48088d19)" style="fill: none; stroke-dasharray: 2.96,1.28; stroke-dashoffset: 0; stroke: #b0b0b0; stroke-opacity: 0.3; stroke-width: 0.8"/>
     </g>
     <g id="line2d_28">
      <g>
       <use xlink:href="#mf11504f133" x="43.798281" y="179.71283" style="stroke: #000000; stroke-width: 0.8"/>
      </g>
     </g>
     <g id="text_15">
      <!-- 500 -->
      <g transform="translate(21.528281 182.752205) scale(0.08 -0.08)">
       <use xlink:href="#DejaVuSerif-35"/>
       <use xlink:href="#DejaVuSerif-30" transform="translate(63.623047 0)"/>
       <use xlink:href="#DejaVuSerif-30" transform="translate(127.246094 0)"/>
      </g>
     </g>
    </g>
    <g id="ytick_4">
     <g id="line2d_29">
      <path d="M 43.798281 153.449151 
L 434.398281 153.449151 
" clip-path="url(#peb48088d19)" style="fill: none; stroke-dasharray: 2.96,1.28; stroke-dashoffset: 0; stroke: #b0b0b0; stroke-opacity: 0.3; stroke-width: 0.8"/>
     </g>
     <g id="line2d_30">
      <g>
       <use xlink:href="#mf11504f133" x="43.798281" y="153.449151" style="stroke: #000000; stroke-width: 0.8"/>
      </g>
     </g>
     <g id="text_16">
      <!-- 750 -->
      <g transform="translate(21.528281 156.488526) scale(0.08 -0.08)">
       <use xlink:href="#DejaVuSerif-37"/>
       <use xlink:href="#DejaVuSerif-35" transform="translate(63.623047 0)"/>
       <use xlink:href="#DejaVuSerif-30" transform="translate(127.246094 0)"/>
      </g>
     </g>
    </g>
    <g id="ytick_5">
     <g id="line2d_31">
      <path d="M 43.798281 127.185472 
L 434.398281 127.185472 
" clip-path="url(#peb48088d19)" style="fill: none; stroke-dasharray: 2.96,1.28; stroke-dashoffset: 0; stroke: #b0b0b0; stroke-opacity: 0.3; stroke-width: 0.8"/>
     </g>
     <g id="line2d_32">
      <g>
       <use xlink:href="#mf11504f133" x="43.798281" y="127.185472" style="stroke: #000000; stroke-width: 0.8"/>
      </g>
     </g>
     <g id="text_17">
      <!-- 1000 -->
      <g transform="translate(16.438281 130.224847) scale(0.08 -0.08)">
       <use xlink:href="#DejaVuSerif-31"/>
       <use xlink:href="#DejaVuSerif-30" transform="translate(63.623047 0)"/>
       <use xlink:href="#DejaVuSerif-30" transform="translate(127.246094 0)"/>
       <use xlink:href="#DejaVuSerif-30" transform="translate(190.869141 0)"/>
      </g>
     </g>
    </g>
    <g id="ytick_6">
     <g id="line2d_33">
      <path d="M 43.798281 100.921793 
L 434.398281 100.921793 
" clip-path="url(#peb48088d19)" style="fill: none; stroke-dasharray: 2.96,1.28; stroke-dashoffset: 0; stroke: #b0b0b0; stroke-opacity: 0.3; stroke-width: 0.8"/>
     </g>
     <g id="line2d_34">
      <g>
       <use xlink:href="#mf11504f133" x="43.798281" y="100.921793" style="stroke: #000000; stroke-width: 0.8"/>
      </g>
     </g>
     <g id="text_18">
      <!-- 1250 -->
      <g transform="translate(16.438281 103.961168) scale(0.08 -0.08)">
       <use xlink:href="#DejaVuSerif-31"/>
       <use xlink:href="#DejaVuSerif-32" transform="translate(63.623047 0)"/>
       <use xlink:href="#DejaVuSerif-35" transform="translate(127.246094 0)"/>
       <use xlink:href="#DejaVuSerif-30" transform="translate(190.869141 0)"/>
      </g>
     </g>
    </g>
    <g id="ytick_7">
     <g id="line2d_35">
      <path d="M 43.798281 74.658114 
L 434.398281 74.658114 
" clip-path="url(#peb48088d19)" style="fill: none; stroke-dasharray: 2.96,1.28; stroke-dashoffset: 0; stroke: #b0b0b0; stroke-opacity: 0.3; stroke-width: 0.8"/>
     </g>
     <g id="line2d_36">
      <g>
       <use xlink:href="#mf11504f133" x="43.798281" y="74.658114" style="stroke: #000000; stroke-width: 0.8"/>
      </g>
     </g>
     <g id="text_19">
      <!-- 1500 -->
      <g transform="translate(16.438281 77.697489) scale(0.08 -0.08)">
       <use xlink:href="#DejaVuSerif-31"/>
       <use xlink:href="#DejaVuSerif-35" transform="translate(63.623047 0)"/>
       <use xlink:href="#DejaVuSerif-30" transform="translate(127.246094 0)"/>
       <use xlink:href="#DejaVuSerif-30" transform="translate(190.869141 0)"/>
      </g>
     </g>
    </g>
    <g id="ytick_8">
     <g id="line2d_37">
      <path d="M 43.798281 48.394435 
L 434.398281 48.394435 
" clip-path="url(#peb48088d19)" style="fill: none; stroke-dasharray: 2.96,1.28; stroke-dashoffset: 0; stroke: #b0b0b0; stroke-opacity: 0.3; stroke-width: 0.8"/>
     </g>
     <g id="line2d_38">
      <g>
       <use xlink:href="#mf11504f133" x="43.798281" y="48.394435" style="stroke: #000000; stroke-width: 0.8"/>
      </g>
     </g>
     <g id="text_20">
      <!-- 1750 -->
      <g transform="translate(16.438281 51.43381) scale(0.08 -0.08)">
       <use xlink:href="#DejaVuSerif-31"/>
       <use xlink:href="#DejaVuSerif-37" transform="translate(63.623047 0)"/>
       <use xlink:href="#DejaVuSerif-35" transform="translate(127.246094 0)"/>
       <use xlink:href="#DejaVuSerif-30" transform="translate(190.869141 0)"/>
      </g>
     </g>
    </g>
    <g id="ytick_9">
     <g id="line2d_39">
      <path d="M 43.798281 22.130756 
L 434.398281 22.130756 
" clip-path="url(#peb48088d19)" style="fill: none; stroke-dasharray: 2.96,1.28; stroke-dashoffset: 0; stroke: #b0b0b0; stroke-opacity: 0.3; stroke-width: 0.8"/>
     </g>
     <g id="line2d_40">
      <g>
       <use xlink:href="#mf11504f133" x="43.798281" y="22.130756" style="stroke: #000000; stroke-width: 0.8"/>
      </g>
     </g>
     <g id="text_21">
      <!-- 2000 -->
      <g transform="translate(16.438281 25.170131) scale(0.08 -0.08)">
       <use xlink:href="#DejaVuSerif-32"/>
       <use xlink:href="#DejaVuSerif-30" transform="translate(63.623047 0)"/>
       <use xlink:href="#DejaVuSerif-30" transform="translate(127.246094 0)"/>
       <use xlink:href="#DejaVuSerif-30" transform="translate(190.869141 0)"/>
      </g>
     </g>
    </g>
    <g id="text_22">
     <!-- Monthly registrations -->
     <g transform="translate(10.438594 177.662109) rotate(-90) scale(0.09 -0.09)">
      <defs>
       <path id="DejaVuSerif-6c" d="M 1313 331 
L 1856 331 
L 1856 0 
L 184 0 
L 184 331 
L 738 331 
L 738 4531 
L 184 4531 
L 184 4863 
L 1313 4863 
L 1313 331 
z
" transform="scale(0.015625)"/>
       <path id="DejaVuSerif-79" d="M 1381 -609 
L 1600 -56 
L 359 2988 
L -19 2988 
L -19 3322 
L 1509 3322 
L 1509 2988 
L 978 2988 
L 1913 703 
L 2847 2988 
L 2350 2988 
L 2350 3322 
L 3597 3322 
L 3597 2988 
L 3225 2988 
L 1703 -750 
Q 1547 -1138 1356 -1280 
Q 1166 -1422 819 -1422 
Q 672 -1422 517 -1397 
Q 363 -1372 206 -1325 
L 206 -691 
L 500 -691 
Q 519 -903 608 -995 
Q 697 -1088 884 -1088 
Q 1056 -1088 1161 -992 
Q 1266 -897 1381 -609 
z
" transform="scale(0.015625)"/>
       <path id="DejaVuSerif-20" transform="scale(0.015625)"/>
       <path id="DejaVuSerif-72" d="M 3059 3328 
L 3059 2497 
L 2728 2497 
Q 2713 2744 2591 2866 
Q 2469 2988 2234 2988 
Q 1809 2988 1582 2694 
Q 1356 2400 1356 1850 
L 1356 331 
L 2022 331 
L 2022 0 
L 263 0 
L 263 331 
L 781 331 
L 781 2994 
L 231 2994 
L 231 3322 
L 1356 3322 
L 1356 2731 
Q 1525 3078 1790 3245 
Q 2056 3413 2438 3413 
Q 2578 3413 2733 3391 
Q 2888 3369 3059 3328 
z
" transform="scale(0.015625)"/>
       <path id="DejaVuSerif-65" d="M 3469 1600 
L 991 1600 
L 991 1575 
Q 991 903 1244 561 
Q 1497 219 1991 219 
Q 2369 219 2611 417 
Q 2853 616 2950 1006 
L 3413 1006 
Q 3275 459 2904 184 
Q 2534 -91 1931 -91 
Q 1203 -91 761 389 
Q 319 869 319 1663 
Q 319 2450 753 2931 
Q 1188 3413 1894 3413 
Q 2647 3413 3050 2948 
Q 3453 2484 3469 1600 
z
M 2791 1931 
Q 2772 2513 2545 2808 
Q 2319 3103 1894 3103 
Q 1497 3103 1269 2806 
Q 1041 2509 991 1931 
L 2791 1931 
z
" transform="scale(0.015625)"/>
       <path id="DejaVuSerif-67" d="M 3359 2988 
L 3359 72 
Q 3359 -644 2965 -1033 
Q 2572 -1422 1844 -1422 
Q 1516 -1422 1216 -1362 
Q 916 -1303 641 -1184 
L 641 -488 
L 941 -488 
Q 997 -813 1206 -963 
Q 1416 -1113 1806 -1113 
Q 2313 -1113 2548 -827 
Q 2784 -541 2784 72 
L 2784 519 
Q 2616 206 2355 57 
Q 2094 -91 1709 -91 
Q 1097 -91 708 395 
Q 319 881 319 1663 
Q 319 2444 706 2928 
Q 1094 3413 1709 3413 
Q 2094 3413 2355 3264 
Q 2616 3116 2784 2803 
L 2784 3322 
L 3909 3322 
L 3909 2988 
L 3359 2988 
z
M 2784 1825 
Q 2784 2422 2554 2737 
Q 2325 3053 1888 3053 
Q 1444 3053 1217 2703 
Q 991 2353 991 1663 
Q 991 975 1217 622 
Q 1444 269 1888 269 
Q 2325 269 2554 583 
Q 2784 897 2784 1497 
L 2784 1825 
z
" transform="scale(0.015625)"/>
       <path id="DejaVuSerif-69" d="M 622 4353 
Q 622 4497 726 4603 
Q 831 4709 978 4709 
Q 1122 4709 1226 4603 
Q 1331 4497 1331 4353 
Q 1331 4206 1228 4103 
Q 1125 4000 978 4000 
Q 831 4000 726 4103 
Q 622 4206 622 4353 
z
M 1356 331 
L 1900 331 
L 1900 0 
L 231 0 
L 231 331 
L 781 331 
L 781 2988 
L 231 2988 
L 231 3322 
L 1356 3322 
L 1356 331 
z
" transform="scale(0.015625)"/>
       <path id="DejaVuSerif-73" d="M 359 184 
L 359 959 
L 691 959 
Q 703 588 923 403 
Q 1144 219 1575 219 
Q 1963 219 2166 364 
Q 2369 509 2369 788 
Q 2369 1006 2220 1140 
Q 2072 1275 1594 1428 
L 1178 1569 
Q 750 1706 558 1912 
Q 366 2119 366 2438 
Q 366 2894 700 3153 
Q 1034 3413 1625 3413 
Q 1888 3413 2178 3344 
Q 2469 3275 2778 3144 
L 2778 2419 
L 2447 2419 
Q 2434 2741 2221 2922 
Q 2009 3103 1644 3103 
Q 1281 3103 1095 2975 
Q 909 2847 909 2591 
Q 909 2381 1050 2254 
Q 1191 2128 1613 1997 
L 2069 1856 
Q 2541 1709 2748 1489 
Q 2956 1269 2956 922 
Q 2956 450 2595 179 
Q 2234 -91 1600 -91 
Q 1278 -91 972 -22 
Q 666 47 359 184 
z
" transform="scale(0.015625)"/>
       <path id="DejaVuSerif-61" d="M 2547 1044 
L 2547 1747 
L 1806 1747 
Q 1378 1747 1168 1562 
Q 959 1378 959 997 
Q 959 650 1171 447 
Q 1384 244 1747 244 
Q 2106 244 2326 466 
Q 2547 688 2547 1044 
z
M 3122 2075 
L 3122 331 
L 3634 331 
L 3634 0 
L 2547 0 
L 2547 359 
Q 2356 128 2106 18 
Q 1856 -91 1522 -91 
Q 969 -91 644 203 
Q 319 497 319 997 
Q 319 1513 691 1797 
Q 1063 2081 1741 2081 
L 2547 2081 
L 2547 2309 
Q 2547 2688 2317 2895 
Q 2088 3103 1672 3103 
Q 1328 3103 1125 2947 
Q 922 2791 872 2484 
L 575 2484 
L 575 3156 
Q 875 3284 1158 3348 
Q 1441 3413 1709 3413 
Q 2400 3413 2761 3070 
Q 3122 2728 3122 2075 
z
" transform="scale(0.015625)"/>
      </defs>
      <use xlink:href="#DejaVuSerif-4d"/>
      <use xlink:href="#DejaVuSerif-6f" transform="translate(102.392578 0)"/>
      <use xlink:href="#DejaVuSerif-6e" transform="translate(162.597656 0)"/>
      <use xlink:href="#DejaVuSerif-74" transform="translate(227.001953 0)"/>
      <use xlink:href="#DejaVuSerif-68" transform="translate(267.1875 0)"/>
      <use xlink:href="#DejaVuSerif-6c" transform="translate(331.591797 0)"/>
      <use xlink:href="#DejaVuSerif-79" transform="translate(363.574219 0)"/>
      <use xlink:href="#DejaVuSerif-20" transform="translate(420.068359 0)"/>
      <use xlink:href="#DejaVuSerif-72" transform="translate(451.855469 0)"/>
      <use xlink:href="#DejaVuSerif-65" transform="translate(499.658203 0)"/>
      <use xlink:href="#DejaVuSerif-67" transform="translate(558.837891 0)"/>
      <use xlink:href="#DejaVuSerif-69" transform="translate(622.851562 0)"/>
      <use xlink:href="#DejaVuSerif-73" transform="translate(654.833984 0)"/>
      <use xlink:href="#DejaVuSerif-74" transform="translate(706.152344 0)"/>
      <use xlink:href="#DejaVuSerif-72" transform="translate(746.337891 0)"/>
      <use xlink:href="#DejaVuSerif-61" transform="translate(794.140625 0)"/>
      <use xlink:href="#DejaVuSerif-74" transform="translate(853.759766 0)"/>
      <use xlink:href="#DejaVuSerif-69" transform="translate(893.945312 0)"/>
      <use xlink:href="#DejaVuSerif-6f" transform="translate(925.927734 0)"/>
      <use xlink:href="#DejaVuSerif-6e" transform="translate(986.132812 0)"/>
      <use xlink:href="#DejaVuSerif-73" transform="translate(1050.537109 0)"/>
     </g>
    </g>
   </g>
   <g id="line2d_41">
    <path d="M 81.977229 238.958437 
L 81.977229 17.198437 
" clip-path="url(#peb48088d19)" style="fill: none; stroke: #808080; stroke-opacity: 0.5; stroke-width: 0.4; stroke-linecap: square"/>
   </g>
   <g id="line2d_42">
    <path d="M 117.219334 238.958437 
L 117.219334 17.198437 
" clip-path="url(#peb48088d19)" style="fill: none; stroke: #808080; stroke-opacity: 0.5; stroke-width: 0.4; stroke-linecap: square"/>
   </g>
   <g id="line2d_43">
    <path d="M 152.461439 238.958437 
L 152.461439 17.198437 
" clip-path="url(#peb48088d19)" style="fill: none; stroke: #808080; stroke-opacity: 0.5; stroke-width: 0.4; stroke-linecap: square"/>
   </g>
   <g id="line2d_44">
    <path d="M 187.703544 238.958437 
L 187.703544 17.198437 
" clip-path="url(#peb48088d19)" style="fill: none; stroke: #808080; stroke-opacity: 0.5; stroke-width: 0.4; stroke-linecap: square"/>
   </g>
   <g id="line2d_45">
    <path d="M 222.94565 238.958437 
L 222.94565 17.198437 
" clip-path="url(#peb48088d19)" style="fill: none; stroke: #808080; stroke-opacity: 0.5; stroke-width: 0.4; stroke-linecap: square"/>
   </g>
   <g id="line2d_46">
    <path d="M 258.187755 238.958437 
L 258.187755 17.198437 
" clip-path="url(#peb48088d19)" style="fill: none; stroke: #808080; stroke-opacity: 0.5; stroke-width: 0.4; stroke-linecap: square"/>
   </g>
   <g id="line2d_47">
    <path d="M 293.42986 238.958437 
L 293.42986 17.198437 
" clip-path="url(#peb48088d19)" style="fill: none; stroke: #808080; stroke-opacity: 0.5; stroke-width: 0.4; stroke-linecap: square"/>
   </g>
   <g id="line2d_48">
    <path d="M 328.671965 238.958437 
L 328.671965 17.198437 
" clip-path="url(#peb48088d19)" style="fill: none; stroke: #808080; stroke-opacity: 0.5; stroke-width: 0.4; stroke-linecap: square"/>
   </g>
   <g id="line2d_49">
    <path d="M 363.914071 238.958437 
L 363.914071 17.198437 
" clip-path="url(#peb48088d19)" style="fill: none; stroke: #808080; stroke-opacity: 0.5; stroke-width: 0.4; stroke-linecap: square"/>
   </g>
   <g id="line2d_50">
    <path d="M 399.156176 238.958437 
L 399.156176 17.198437 
" clip-path="url(#peb48088d19)" style="fill: none; stroke: #808080; stroke-opacity: 0.5; stroke-width: 0.4; stroke-linecap: square"/>
   </g>
   <g id="line2d_51">
    <path d="M 46.735123 203.350142 
L 49.671965 201.774321 
L 52.608808 199.042898 
L 55.54565 205.7664 
L 58.482492 195.996311 
L 61.419334 201.354102 
L 64.356176 203.140032 
L 67.293018 196.101366 
L 70.22986 195.155874 
L 73.166702 195.996311 
L 76.103544 196.206421 
L 79.040387 199.568172 
L 81.977229 195.576093 
L 84.914071 195.891257 
L 87.850913 194.525545 
L 90.787755 184.335238 
L 93.724597 183.179636 
L 96.661439 183.284691 
L 99.598281 184.230183 
L 102.535123 186.331278 
L 105.471965 190.113247 
L 108.408808 182.444253 
L 111.34565 188.852591 
L 114.282492 182.969527 
L 117.219334 172.359 
L 120.156176 180.658323 
L 123.093018 175.825806 
L 126.02986 174.880313 
L 128.966702 167.316374 
L 131.903544 169.417468 
L 134.840387 168.892195 
L 137.777229 170.78318 
L 140.714071 171.098344 
L 143.650913 166.896155 
L 146.587755 177.506681 
L 149.524597 179.187557 
L 152.461439 169.837687 
L 155.398281 173.094383 
L 158.335123 174.670204 
L 161.271965 176.981408 
L 164.208808 171.203398 
L 167.14565 175.195478 
L 170.082492 172.253946 
L 173.019334 172.253946 
L 175.956176 170.362961 
L 178.893018 175.930861 
L 181.82986 178.662283 
L 184.766702 181.603815 
L 187.703544 167.736593 
L 190.640387 172.464055 
L 193.577229 166.7911 
L 196.514071 165.635498 
L 199.450913 162.483857 
L 202.387755 155.760355 
L 205.324597 157.336176 
L 208.261439 155.340136 
L 211.198281 156.915957 
L 214.135123 161.328255 
L 217.071965 164.900115 
L 220.008808 171.623617 
L 222.94565 160.277708 
L 225.882492 162.588912 
L 228.819334 161.2232 
L 231.756176 169.837687 
L 234.693018 167.00121 
L 237.62986 164.479897 
L 240.566702 159.857489 
L 243.503544 156.705848 
L 246.440387 169.942742 
L 249.377229 173.619657 
L 252.314071 173.514602 
L 255.250913 176.666244 
L 258.187755 163.114185 
L 261.124597 171.623617 
L 264.061439 164.584951 
L 266.998281 170.362961 
L 269.935123 162.483857 
L 272.871965 166.160772 
L 275.808808 156.285629 
L 278.74565 151.768276 
L 281.682492 157.126066 
L 284.619334 159.857489 
L 287.556176 164.269787 
L 290.493018 167.946702 
L 293.42986 162.483857 
L 296.366702 166.055717 
L 299.303544 165.110225 
L 302.240387 162.273748 
L 305.177229 158.701887 
L 308.114071 163.849568 
L 311.050913 165.21528 
L 313.987755 155.445191 
L 316.924597 158.701887 
L 319.861439 164.690006 
L 322.798281 161.958583 
L 325.735123 161.43331 
L 328.671965 149.877291 
L 331.608808 157.861449 
L 334.54565 140.002148 
L 337.482492 150.402565 
L 340.419334 145.359938 
L 343.356176 135.905014 
L 346.293018 138.846546 
L 349.22986 142.73357 
L 352.166702 137.270725 
L 355.103544 136.220178 
L 358.040387 139.16171 
L 360.977229 146.410485 
L 363.914071 129.706786 
L 366.850913 133.173591 
L 369.787755 124.24394 
L 372.724597 121.302408 
L 375.661439 111.007046 
L 378.598281 120.146806 
L 381.535123 118.465931 
L 384.471965 114.368797 
L 387.408808 113.213195 
L 390.34565 108.800897 
L 393.282492 119.306369 
L 396.219334 118.465931 
L 399.156176 119.306369 
L 402.093018 134.749412 
L 405.02986 107.960459 
L 407.966702 126.134925 
L 410.903544 108.065514 
L 413.840387 109.326171 
L 416.777229 113.423305 
L 419.714071 105.859365 
L 422.650913 103.758271 
L 425.587755 117.625493 
L 428.524597 127.185472 
L 431.461439 146.305431 
L 431.461439 146.305431 
" clip-path="url(#peb48088d19)" style="fill: none; stroke: #1f77b4; stroke-width: 1.3; stroke-linecap: square"/>
   </g>
   <g id="line2d_52">
    <path d="M 46.735123 149.246963 
L 49.671965 148.721689 
L 52.608808 147.986306 
L 55.54565 150.612674 
L 58.482492 144.204336 
L 61.419334 153.344097 
L 64.356176 151.768276 
L 67.293018 149.772236 
L 70.22986 150.717729 
L 73.166702 147.461033 
L 76.103544 149.562127 
L 79.040387 176.035915 
L 81.977229 150.192455 
L 84.914071 155.340136 
L 87.850913 157.021012 
L 90.787755 153.344097 
L 93.724597 145.149829 
L 96.661439 137.795999 
L 99.598281 148.616634 
L 105.471965 162.483857 
L 108.408808 165.110225 
L 111.34565 168.261866 
L 114.282492 160.277708 
L 117.219334 137.795999 
L 120.156176 143.153789 
L 123.093018 140.422367 
L 126.02986 152.398604 
L 128.966702 136.115123 
L 131.903544 140.737531 
L 134.840387 146.72565 
L 137.777229 146.620595 
L 140.714071 143.258844 
L 143.650913 149.772236 
L 146.587755 159.43727 
L 149.524597 164.795061 
L 152.461439 149.457072 
L 155.398281 143.363899 
L 158.335123 144.099282 
L 161.271965 159.122106 
L 164.208808 153.974425 
L 167.14565 156.180574 
L 170.082492 154.814863 
L 173.019334 152.08344 
L 175.956176 151.137948 
L 178.893018 148.616634 
L 181.82986 148.616634 
L 184.766702 147.566087 
L 187.703544 113.528359 
L 190.640387 114.999125 
L 193.577229 103.96838 
L 196.514071 102.917833 
L 199.450913 97.349933 
L 202.387755 89.365775 
L 205.324597 99.135863 
L 208.261439 113.31825 
L 211.198281 124.979323 
L 214.135123 131.59777 
L 217.071965 101.867286 
L 220.008808 104.703763 
L 222.94565 86.844461 
L 225.882492 84.743367 
L 228.819334 79.070412 
L 231.756176 124.979323 
L 234.693018 114.999125 
L 237.62986 108.905952 
L 240.566702 99.135863 
L 243.503544 104.913873 
L 246.440387 114.999125 
L 249.377229 85.268641 
L 252.314071 96.299386 
L 255.250913 122.983284 
L 258.187755 92.727526 
L 261.124597 105.544201 
L 264.061439 71.401418 
L 266.998281 79.91085 
L 269.935123 64.257698 
L 272.871965 91.151705 
L 275.808808 86.004024 
L 278.74565 85.47875 
L 281.682492 90.311267 
L 284.619334 96.194331 
L 287.556176 108.800897 
L 290.493018 118.255822 
L 293.42986 94.933675 
L 296.366702 96.404441 
L 299.303544 82.642273 
L 302.240387 88.000063 
L 305.177229 71.191309 
L 308.114071 101.026848 
L 311.050913 102.812778 
L 313.987755 99.976301 
L 316.924597 121.827682 
L 319.861439 101.236958 
L 322.798281 110.166608 
L 325.735123 99.976301 
L 328.671965 51.020803 
L 331.608808 62.051548 
L 334.54565 42.616426 
L 337.482492 56.273539 
L 340.419334 45.768068 
L 343.356176 55.328047 
L 346.293018 62.997041 
L 349.22986 64.677916 
L 352.166702 60.895947 
L 355.103544 64.888026 
L 358.040387 77.914811 
L 360.977229 89.996103 
L 363.914071 61.106056 
L 366.850913 66.463847 
L 369.787755 52.701679 
L 372.724597 55.643211 
L 375.661439 40.725441 
L 381.535123 50.28542 
L 384.471965 53.332007 
L 387.408808 38.519292 
L 390.34565 36.418198 
L 393.282492 50.915749 
L 396.219334 72.451965 
L 399.156176 27.278437 
L 402.093018 39.254675 
L 405.02986 35.57776 
L 407.966702 49.024764 
L 410.903544 29.589641 
L 413.840387 44.402356 
L 416.777229 52.176405 
L 419.714071 59.215071 
L 422.650913 68.249777 
L 425.587755 44.087192 
L 428.524597 70.350871 
L 431.461439 150.29751 
L 431.461439 150.29751 
" clip-path="url(#peb48088d19)" style="fill: none; stroke: #ff7f0e; stroke-width: 1.3; stroke-linecap: square"/>
   </g>
   <g id="line2d_53">
    <path d="M 46.735123 227.092507 
L 49.671965 228.878437 
L 52.608808 227.407671 
L 55.54565 227.092507 
L 58.482492 228.353164 
L 61.419334 228.248109 
L 64.356176 225.306577 
L 67.293018 226.987453 
L 70.22986 226.567234 
L 73.166702 227.407671 
L 76.103544 225.831851 
L 79.040387 228.353164 
L 81.977229 226.25207 
L 84.914071 224.991413 
L 87.850913 227.302617 
L 90.787755 225.411632 
L 93.724597 225.831851 
L 96.661439 225.621741 
L 99.598281 223.940866 
L 102.535123 225.306577 
L 105.471965 223.835811 
L 108.408808 223.730756 
L 111.34565 225.726796 
L 114.282492 224.781304 
L 117.219334 222.049881 
L 120.156176 222.890319 
L 123.093018 221.209443 
L 126.02986 224.045921 
L 128.966702 220.789224 
L 137.777229 222.680209 
L 140.714071 221.944826 
L 143.650913 222.365045 
L 146.587755 223.205483 
L 149.524597 221.944826 
L 152.461439 222.25999 
L 155.398281 221.944826 
L 158.335123 222.25999 
L 161.271965 223.625702 
L 164.208808 223.940866 
L 167.14565 221.524607 
L 170.082492 224.571194 
L 173.019334 221.419553 
L 175.956176 223.415592 
L 178.893018 221.629662 
L 181.82986 221.629662 
L 184.766702 220.263951 
L 187.703544 217.532528 
L 190.640387 218.162856 
L 193.577229 219.003294 
L 196.514071 220.894279 
L 199.450913 216.797145 
L 202.387755 216.271872 
L 205.324597 217.847692 
L 208.261439 217.952747 
L 211.198281 216.166817 
L 214.135123 212.805066 
L 217.071965 215.11627 
L 220.008808 220.263951 
L 222.94565 216.166817 
L 225.882492 217.742638 
L 228.819334 216.9022 
L 231.756176 217.007255 
L 234.693018 214.90616 
L 237.62986 216.271872 
L 240.566702 214.275832 
L 243.503544 213.960668 
L 246.440387 219.213404 
L 249.377229 215.431434 
L 252.314071 218.162856 
L 255.250913 219.108349 
L 258.187755 215.221324 
L 261.124597 218.478021 
L 264.061439 218.68813 
L 266.998281 219.213404 
L 269.935123 217.007255 
L 272.871965 219.633622 
L 275.808808 219.528568 
L 278.74565 217.952747 
L 281.682492 216.797145 
L 284.619334 217.217364 
L 287.556176 217.427473 
L 290.493018 215.11627 
L 293.42986 217.427473 
L 296.366702 221.944826 
L 299.303544 219.528568 
L 302.240387 221.314498 
L 305.177229 218.583075 
L 308.114071 220.053841 
L 311.050913 221.209443 
L 313.987755 219.213404 
L 316.924597 219.213404 
L 319.861439 220.369006 
L 322.798281 219.528568 
L 325.735123 215.536489 
L 331.608808 215.851653 
L 334.54565 214.065723 
L 337.482492 214.170777 
L 340.419334 216.376926 
L 343.356176 216.166817 
L 346.293018 216.376926 
L 349.22986 216.9022 
L 352.166702 215.956707 
L 355.103544 216.376926 
L 358.040387 219.213404 
L 360.977229 218.372966 
L 363.914071 215.956707 
L 366.850913 218.793185 
L 369.787755 217.637583 
L 372.724597 217.742638 
L 375.661439 217.217364 
L 378.598281 218.372966 
L 381.535123 216.061762 
L 384.471965 215.431434 
L 387.408808 212.594957 
L 390.34565 214.170777 
L 393.282492 216.061762 
L 396.219334 217.322419 
L 399.156176 214.590996 
L 405.02986 212.700011 
L 407.966702 218.372966 
L 410.903544 219.843732 
L 413.840387 217.112309 
L 416.777229 218.267911 
L 419.714071 220.894279 
L 422.650913 220.68417 
L 425.587755 219.738677 
L 428.524597 221.944826 
L 431.461439 223.625702 
L 431.461439 223.625702 
" clip-path="url(#peb48088d19)" style="fill: none; stroke: #2ca02c; stroke-width: 1.3; stroke-linecap: square"/>
   </g>
   <g id="patch_3">
    <path d="M 43.798281 238.958437 
L 43.798281 17.198437 
" style="fill: none; stroke: #000000; stroke-width: 0.8; stroke-linejoin: miter; stroke-linecap: square"/>
   </g>
   <g id="patch_4">
    <path d="M 43.798281 238.958437 
L 434.398281 238.958437 
" style="fill: none; stroke: #000000; stroke-width: 0.8; stroke-linejoin: miter; stroke-linecap: square"/>
   </g>
   <g id="text_23">
    <!-- Figure 1. National monthly RNPDNO registrations by outcome, 2015-2025. -->
    <g transform="translate(47.793594 11.198437) scale(0.1 -0.1)">
     <defs>
      <path id="DejaVuSerif-46" d="M 353 0 
L 353 331 
L 947 331 
L 947 4331 
L 353 4331 
L 353 4666 
L 4172 4666 
L 4172 3628 
L 3788 3628 
L 3788 4281 
L 1581 4281 
L 1581 2719 
L 3175 2719 
L 3175 3303 
L 3559 3303 
L 3559 1753 
L 3175 1753 
L 3175 2338 
L 1581 2338 
L 1581 331 
L 2328 331 
L 2328 0 
L 353 0 
z
" transform="scale(0.015625)"/>
      <path id="DejaVuSerif-75" d="M 2266 3322 
L 3341 3322 
L 3341 331 
L 3884 331 
L 3884 0 
L 2766 0 
L 2766 588 
Q 2606 256 2353 82 
Q 2100 -91 1766 -91 
Q 1213 -91 952 223 
Q 691 538 691 1209 
L 691 2988 
L 172 2988 
L 172 3322 
L 1269 3322 
L 1269 1388 
Q 1269 781 1417 556 
Q 1566 331 1947 331 
Q 2347 331 2556 625 
Q 2766 919 2766 1478 
L 2766 2988 
L 2266 2988 
L 2266 3322 
z
" transform="scale(0.015625)"/>
      <path id="DejaVuSerif-2e" d="M 603 325 
Q 603 500 722 622 
Q 841 744 1019 744 
Q 1191 744 1312 622 
Q 1434 500 1434 325 
Q 1434 153 1312 31 
Q 1191 -91 1019 -91 
Q 841 -91 722 29 
Q 603 150 603 325 
z
" transform="scale(0.015625)"/>
      <path id="DejaVuSerif-4e" d="M 313 0 
L 313 331 
L 941 331 
L 941 4331 
L 313 4331 
L 313 4666 
L 1509 4666 
L 4306 984 
L 4306 4331 
L 3681 4331 
L 3681 4666 
L 5319 4666 
L 5319 4331 
L 4691 4331 
L 4691 -91 
L 4313 -91 
L 1325 3841 
L 1325 331 
L 1953 331 
L 1953 0 
L 313 0 
z
" transform="scale(0.015625)"/>
      <path id="DejaVuSerif-6d" d="M 3316 2675 
Q 3481 3041 3739 3227 
Q 3997 3413 4341 3413 
Q 4863 3413 5119 3089 
Q 5375 2766 5375 2113 
L 5375 331 
L 5894 331 
L 5894 0 
L 4300 0 
L 4300 331 
L 4800 331 
L 4800 2047 
Q 4800 2556 4650 2772 
Q 4500 2988 4153 2988 
Q 3769 2988 3567 2697 
Q 3366 2406 3366 1850 
L 3366 331 
L 3866 331 
L 3866 0 
L 2291 0 
L 2291 331 
L 2791 331 
L 2791 2069 
Q 2791 2566 2641 2777 
Q 2491 2988 2144 2988 
Q 1759 2988 1557 2697 
Q 1356 2406 1356 1850 
L 1356 331 
L 1856 331 
L 1856 0 
L 263 0 
L 263 331 
L 781 331 
L 781 2994 
L 231 2994 
L 231 3322 
L 1356 3322 
L 1356 2731 
Q 1516 3063 1762 3238 
Q 2009 3413 2322 3413 
Q 2709 3413 2968 3220 
Q 3228 3028 3316 2675 
z
" transform="scale(0.015625)"/>
      <path id="DejaVuSerif-52" d="M 3066 2316 
Q 3284 2256 3442 2114 
Q 3600 1972 3725 1716 
L 4403 331 
L 4972 331 
L 4972 0 
L 3872 0 
L 3144 1484 
Q 2934 1916 2759 2042 
Q 2584 2169 2278 2169 
L 1581 2169 
L 1581 331 
L 2241 331 
L 2241 0 
L 353 0 
L 353 331 
L 947 331 
L 947 4331 
L 353 4331 
L 353 4666 
L 2719 4666 
Q 3400 4666 3770 4341 
Q 4141 4016 4141 3419 
Q 4141 2938 3870 2661 
Q 3600 2384 3066 2316 
z
M 1581 2503 
L 2503 2503 
Q 2975 2503 3200 2726 
Q 3425 2950 3425 3419 
Q 3425 3888 3200 4109 
Q 2975 4331 2503 4331 
L 1581 4331 
L 1581 2503 
z
" transform="scale(0.015625)"/>
      <path id="DejaVuSerif-50" d="M 1581 2375 
L 2406 2375 
Q 2872 2375 3115 2626 
Q 3359 2878 3359 3353 
Q 3359 3831 3115 4081 
Q 2872 4331 2406 4331 
L 1581 4331 
L 1581 2375 
z
M 353 0 
L 353 331 
L 947 331 
L 947 4331 
L 353 4331 
L 353 4666 
L 2559 4666 
Q 3259 4666 3668 4311 
Q 4078 3956 4078 3353 
Q 4078 2753 3668 2397 
Q 3259 2041 2559 2041 
L 1581 2041 
L 1581 331 
L 2303 331 
L 2303 0 
L 353 0 
z
" transform="scale(0.015625)"/>
      <path id="DejaVuSerif-44" d="M 1581 331 
L 2163 331 
Q 3072 331 3558 850 
Q 4044 1369 4044 2338 
Q 4044 3306 3559 3818 
Q 3075 4331 2163 4331 
L 1581 4331 
L 1581 331 
z
M 353 0 
L 353 331 
L 947 331 
L 947 4331 
L 353 4331 
L 353 4666 
L 2209 4666 
Q 3416 4666 4089 4050 
Q 4763 3434 4763 2338 
Q 4763 1238 4088 619 
Q 3413 0 2209 0 
L 353 0 
z
" transform="scale(0.015625)"/>
      <path id="DejaVuSerif-4f" d="M 2625 244 
Q 3391 244 3781 770 
Q 4172 1297 4172 2328 
Q 4172 3363 3781 3889 
Q 3391 4416 2625 4416 
Q 1856 4416 1465 3889 
Q 1075 3363 1075 2328 
Q 1075 1297 1465 770 
Q 1856 244 2625 244 
z
M 2625 -91 
Q 2150 -91 1751 65 
Q 1353 222 1050 525 
Q 700 875 529 1319 
Q 359 1763 359 2328 
Q 359 2894 529 3339 
Q 700 3784 1050 4134 
Q 1356 4441 1750 4595 
Q 2144 4750 2625 4750 
Q 3641 4750 4266 4084 
Q 4891 3419 4891 2328 
Q 4891 1769 4719 1320 
Q 4547 872 4197 525 
Q 3891 219 3497 64 
Q 3103 -91 2625 -91 
z
" transform="scale(0.015625)"/>
      <path id="DejaVuSerif-62" d="M 738 331 
L 738 4531 
L 184 4531 
L 184 4863 
L 1313 4863 
L 1313 2803 
Q 1481 3116 1742 3264 
Q 2003 3413 2388 3413 
Q 3000 3413 3387 2928 
Q 3775 2444 3775 1663 
Q 3775 881 3387 395 
Q 3000 -91 2388 -91 
Q 2003 -91 1742 57 
Q 1481 206 1313 519 
L 1313 0 
L 184 0 
L 184 331 
L 738 331 
z
M 1313 1497 
Q 1313 897 1542 583 
Q 1772 269 2209 269 
Q 2650 269 2876 622 
Q 3103 975 3103 1663 
Q 3103 2353 2876 2703 
Q 2650 3053 2209 3053 
Q 1772 3053 1542 2737 
Q 1313 2422 1313 1825 
L 1313 1497 
z
" transform="scale(0.015625)"/>
      <path id="DejaVuSerif-63" d="M 3291 997 
Q 3169 466 2822 187 
Q 2475 -91 1925 -91 
Q 1200 -91 759 389 
Q 319 869 319 1663 
Q 319 2459 759 2936 
Q 1200 3413 1925 3413 
Q 2241 3413 2553 3339 
Q 2866 3266 3181 3116 
L 3181 2266 
L 2847 2266 
Q 2781 2703 2561 2903 
Q 2341 3103 1931 3103 
Q 1466 3103 1228 2742 
Q 991 2381 991 1663 
Q 991 944 1227 581 
Q 1463 219 1931 219 
Q 2303 219 2525 412 
Q 2747 606 2828 997 
L 3291 997 
z
" transform="scale(0.015625)"/>
      <path id="DejaVuSerif-2c" d="M 231 -622 
Q 525 -406 662 -114 
Q 800 178 800 594 
L 800 709 
L 1416 709 
Q 1391 175 1164 -208 
Q 938 -591 481 -872 
L 231 -622 
z
" transform="scale(0.015625)"/>
      <path id="DejaVuSerif-2d" d="M 281 1959 
L 1881 1959 
L 1881 1472 
L 281 1472 
L 281 1959 
z
" transform="scale(0.015625)"/>
     </defs>
     <use xlink:href="#DejaVuSerif-46"/>
     <use xlink:href="#DejaVuSerif-69" transform="translate(69.384766 0)"/>
     <use xlink:href="#DejaVuSerif-67" transform="translate(101.367188 0)"/>
     <use xlink:href="#DejaVuSerif-75" transform="translate(165.380859 0)"/>
     <use xlink:href="#DejaVuSerif-72" transform="translate(229.785156 0)"/>
     <use xlink:href="#DejaVuSerif-65" transform="translate(277.587891 0)"/>
     <use xlink:href="#DejaVuSerif-20" transform="translate(336.767578 0)"/>
     <use xlink:href="#DejaVuSerif-31" transform="translate(368.554688 0)"/>
     <use xlink:href="#DejaVuSerif-2e" transform="translate(432.177734 0)"/>
     <use xlink:href="#DejaVuSerif-20" transform="translate(463.964844 0)"/>
     <use xlink:href="#DejaVuSerif-4e" transform="translate(495.751953 0)"/>
     <use xlink:href="#DejaVuSerif-61" transform="translate(583.251953 0)"/>
     <use xlink:href="#DejaVuSerif-74" transform="translate(642.871094 0)"/>
     <use xlink:href="#DejaVuSerif-69" transform="translate(683.056641 0)"/>
     <use xlink:href="#DejaVuSerif-6f" transform="translate(715.039062 0)"/>
     <use xlink:href="#DejaVuSerif-6e" transform="translate(775.244141 0)"/>
     <use xlink:href="#DejaVuSerif-61" transform="translate(839.648438 0)"/>
     <use xlink:href="#DejaVuSerif-6c" transform="translate(899.267578 0)"/>
     <use xlink:href="#DejaVuSerif-20" transform="translate(931.25 0)"/>
     <use xlink:href="#DejaVuSerif-6d" transform="translate(963.037109 0)"/>
     <use xlink:href="#DejaVuSerif-6f" transform="translate(1057.861328 0)"/>
     <use xlink:href="#DejaVuSerif-6e" transform="translate(1118.066406 0)"/>
     <use xlink:href="#DejaVuSerif-74" transform="translate(1182.470703 0)"/>
     <use xlink:href="#DejaVuSerif-68" transform="translate(1222.65625 0)"/>
     <use xlink:href="#DejaVuSerif-6c" transform="translate(1287.060547 0)"/>
     <use xlink:href="#DejaVuSerif-79" transform="translate(1319.042969 0)"/>
     <use xlink:href="#DejaVuSerif-20" transform="translate(1375.537109 0)"/>
     <use xlink:href="#DejaVuSerif-52" transform="translate(1407.324219 0)"/>
     <use xlink:href="#DejaVuSerif-4e" transform="translate(1482.617188 0)"/>
     <use xlink:href="#DejaVuSerif-50" transform="translate(1570.117188 0)"/>
     <use xlink:href="#DejaVuSerif-44" transform="translate(1637.402344 0)"/>
     <use xlink:href="#DejaVuSerif-4e" transform="translate(1717.578125 0)"/>
     <use xlink:href="#DejaVuSerif-4f" transform="translate(1805.078125 0)"/>
     <use xlink:href="#DejaVuSerif-20" transform="translate(1887.060547 0)"/>
     <use xlink:href="#DejaVuSerif-72" transform="translate(1918.847656 0)"/>
     <use xlink:href="#DejaVuSerif-65" transform="translate(1966.650391 0)"/>
     <use xlink:href="#DejaVuSerif-67" transform="translate(2025.830078 0)"/>
     <use xlink:href="#DejaVuSerif-69" transform="translate(2089.84375 0)"/>
     <use xlink:href="#DejaVuSerif-73" transform="translate(2121.826172 0)"/>
     <use xlink:href="#DejaVuSerif-74" transform="translate(2173.144531 0)"/>
     <use xlink:href="#DejaVuSerif-72" transform="translate(2213.330078 0)"/>
     <use xlink:href="#DejaVuSerif-61" transform="translate(2261.132812 0)"/>
     <use xlink:href="#DejaVuSerif-74" transform="translate(2320.751953 0)"/>
     <use xlink:href="#DejaVuSerif-69" transform="translate(2360.9375 0)"/>
     <use xlink:href="#DejaVuSerif-6f" transform="translate(2392.919922 0)"/>
     <use xlink:href="#DejaVuSerif-6e" transform="translate(2453.125 0)"/>
     <use xlink:href="#DejaVuSerif-73" transform="translate(2517.529297 0)"/>
     <use xlink:href="#DejaVuSerif-20" transform="translate(2568.847656 0)"/>
     <use xlink:href="#DejaVuSerif-62" transform="translate(2600.634766 0)"/>
     <use xlink:href="#DejaVuSerif-79" transform="translate(2664.648438 0)"/>
     <use xlink:href="#DejaVuSerif-20" transform="translate(2721.142578 0)"/>
     <use xlink:href="#DejaVuSerif-6f" transform="translate(2752.929688 0)"/>
     <use xlink:href="#DejaVuSerif-75" transform="translate(2813.134766 0)"/>
     <use xlink:href="#DejaVuSerif-74" transform="translate(2877.539062 0)"/>
     <use xlink:href="#DejaVuSerif-63" transform="translate(2917.724609 0)"/>
     <use xlink:href="#DejaVuSerif-6f" transform="translate(2973.730469 0)"/>
     <use xlink:href="#DejaVuSerif-6d" transform="translate(3033.935547 0)"/>
     <use xlink:href="#DejaVuSerif-65" transform="translate(3128.759766 0)"/>
     <use xlink:href="#DejaVuSerif-2c" transform="translate(3187.939453 0)"/>
     <use xlink:href="#DejaVuSerif-20" transform="translate(3219.726562 0)"/>
     <use xlink:href="#DejaVuSerif-32" transform="translate(3251.513672 0)"/>
     <use xlink:href="#DejaVuSerif-30" transform="translate(3315.136719 0)"/>
     <use xlink:href="#DejaVuSerif-31" transform="translate(3378.759766 0)"/>
     <use xlink:href="#DejaVuSerif-35" transform="translate(3442.382812 0)"/>
     <use xlink:href="#DejaVuSerif-2d" transform="translate(3506.005859 0)"/>
     <use xlink:href="#DejaVuSerif-32" transform="translate(3539.794922 0)"/>
     <use xlink:href="#DejaVuSerif-30" transform="translate(3603.417969 0)"/>
     <use xlink:href="#DejaVuSerif-32" transform="translate(3667.041016 0)"/>
     <use xlink:href="#DejaVuSerif-35" transform="translate(3730.664062 0)"/>
     <use xlink:href="#DejaVuSerif-2e" transform="translate(3794.287109 0)"/>
    </g>
   </g>
   <g id="legend_1">
    <g id="line2d_54">
     <path d="M 50.998281 27.677187 
L 58.998281 27.677187 
L 66.998281 27.677187 
" style="fill: none; stroke: #1f77b4; stroke-width: 1.3; stroke-linecap: square"/>
    </g>
    <g id="text_24">
     <!-- Not located -->
     <g transform="translate(73.398281 30.477187) scale(0.08 -0.08)">
      <defs>
       <path id="DejaVuSerif-64" d="M 3359 331 
L 3909 331 
L 3909 0 
L 2784 0 
L 2784 519 
Q 2616 206 2355 57 
Q 2094 -91 1709 -91 
Q 1097 -91 708 395 
Q 319 881 319 1663 
Q 319 2444 706 2928 
Q 1094 3413 1709 3413 
Q 2094 3413 2355 3264 
Q 2616 3116 2784 2803 
L 2784 4531 
L 2241 4531 
L 2241 4863 
L 3359 4863 
L 3359 331 
z
M 2784 1497 
L 2784 1825 
Q 2784 2422 2554 2737 
Q 2325 3053 1888 3053 
Q 1444 3053 1217 2703 
Q 991 2353 991 1663 
Q 991 975 1217 622 
Q 1444 269 1888 269 
Q 2325 269 2554 583 
Q 2784 897 2784 1497 
z
" transform="scale(0.015625)"/>
      </defs>
      <use xlink:href="#DejaVuSerif-4e"/>
      <use xlink:href="#DejaVuSerif-6f" transform="translate(87.5 0)"/>
      <use xlink:href="#DejaVuSerif-74" transform="translate(147.705078 0)"/>
      <use xlink:href="#DejaVuSerif-20" transform="translate(187.890625 0)"/>
      <use xlink:href="#DejaVuSerif-6c" transform="translate(219.677734 0)"/>
      <use xlink:href="#DejaVuSerif-6f" transform="translate(251.660156 0)"/>
      <use xlink:href="#DejaVuSerif-63" transform="translate(311.865234 0)"/>
      <use xlink:href="#DejaVuSerif-61" transform="translate(367.871094 0)"/>
      <use xlink:href="#DejaVuSerif-74" transform="translate(427.490234 0)"/>
      <use xlink:href="#DejaVuSerif-65" transform="translate(467.675781 0)"/>
      <use xlink:href="#DejaVuSerif-64" transform="translate(526.855469 0)"/>
     </g>
    </g>
    <g id="line2d_55">
     <path d="M 50.998281 39.419687 
L 58.998281 39.419687 
L 66.998281 39.419687 
" style="fill: none; stroke: #ff7f0e; stroke-width: 1.3; stroke-linecap: square"/>
    </g>
    <g id="text_25">
     <!-- Located alive -->
     <g transform="translate(73.398281 42.219687) scale(0.08 -0.08)">
      <defs>
       <path id="DejaVuSerif-4c" d="M 353 0 
L 353 331 
L 947 331 
L 947 4331 
L 353 4331 
L 353 4666 
L 2175 4666 
L 2175 4331 
L 1581 4331 
L 1581 384 
L 3713 384 
L 3713 1166 
L 4097 1166 
L 4097 0 
L 353 0 
z
" transform="scale(0.015625)"/>
       <path id="DejaVuSerif-76" d="M 1581 0 
L 359 2988 
L -19 2988 
L -19 3322 
L 1509 3322 
L 1509 2988 
L 978 2988 
L 1913 703 
L 2847 2988 
L 2350 2988 
L 2350 3322 
L 3597 3322 
L 3597 2988 
L 3225 2988 
L 2003 0 
L 1581 0 
z
" transform="scale(0.015625)"/>
      </defs>
      <use xlink:href="#DejaVuSerif-4c"/>
      <use xlink:href="#DejaVuSerif-6f" transform="translate(66.40625 0)"/>
      <use xlink:href="#DejaVuSerif-63" transform="translate(126.611328 0)"/>
      <use xlink:href="#DejaVuSerif-61" transform="translate(182.617188 0)"/>
      <use xlink:href="#DejaVuSerif-74" transform="translate(242.236328 0)"/>
      <use xlink:href="#DejaVuSerif-65" transform="translate(282.421875 0)"/>
      <use xlink:href="#DejaVuSerif-64" transform="translate(341.601562 0)"/>
      <use xlink:href="#DejaVuSerif-20" transform="translate(405.615234 0)"/>
      <use xlink:href="#DejaVuSerif-61" transform="translate(437.402344 0)"/>
      <use xlink:href="#DejaVuSerif-6c" transform="translate(497.021484 0)"/>
      <use xlink:href="#DejaVuSerif-69" transform="translate(529.003906 0)"/>
      <use xlink:href="#DejaVuSerif-76" transform="translate(560.986328 0)"/>
      <use xlink:href="#DejaVuSerif-65" transform="translate(617.480469 0)"/>
     </g>
    </g>
    <g id="line2d_56">
     <path d="M 50.998281 51.162187 
L 58.998281 51.162187 
L 66.998281 51.162187 
" style="fill: none; stroke: #2ca02c; stroke-width: 1.3; stroke-linecap: square"/>
    </g>
    <g id="text_26">
     <!-- Located dead -->
     <g transform="translate(73.398281 53.962187) scale(0.08 -0.08)">
      <use xlink:href="#DejaVuSerif-4c"/>
      <use xlink:href="#DejaVuSerif-6f" transform="translate(66.40625 0)"/>
      <use xlink:href="#DejaVuSerif-63" transform="translate(126.611328 0)"/>
      <use xlink:href="#DejaVuSerif-61" transform="translate(182.617188 0)"/>
      <use xlink:href="#DejaVuSerif-74" transform="translate(242.236328 0)"/>
      <use xlink:href="#DejaVuSerif-65" transform="translate(282.421875 0)"/>
      <use xlink:href="#DejaVuSerif-64" transform="translate(341.601562 0)"/>
      <use xlink:href="#DejaVuSerif-20" transform="translate(405.615234 0)"/>
      <use xlink:href="#DejaVuSerif-64" transform="translate(437.402344 0)"/>
      <use xlink:href="#DejaVuSerif-65" transform="translate(501.416016 0)"/>
      <use xlink:href="#DejaVuSerif-61" transform="translate(560.595703 0)"/>
      <use xlink:href="#DejaVuSerif-64" transform="translate(620.214844 0)"/>
     </g>
    </g>
   </g>
  </g>
 </g>
 <defs>
  <clipPath id="peb48088d19">
   <rect x="43.798281" y="17.198437" width="390.6" height="221.76"/>
  </clipPath>
 </defs>
</svg>
