<?xml version="1.0" encoding="utf-8" standalone="no"?>
<!DOCTYPE svg PUBLIC "-//W3C//DTD SVG 1.1//EN"
  "http://www.w3.org/Graphics/SVG/1.1/DTD/svg11.dtd">
<svg xmlns:xlink="http://www.w3.org/1999/xlink" width="546.21875pt" height="270.01125pt" viewBox="0 0 546.21875 270.01125" xmlns="http://www.w3.org/2000/svg" version="1.1">
 <metadata>
  <rdf:RDF xmlns:dc="http://purl.org/dc/elements/1.1/" xmlns:cc="http://creativecommons.org/ns#" xmlns:rdf="http://www.w3.org/1999/02/22-rdf-syntax-ns#">
   <cc:Work>
    <dc:type rdf:resource="http://purl.org/dc/dcmitype/StillImage"/>
    <dc:date>2026-04-23T19:01:26.657655</dc:date>
    <dc:format>image/svg+xml</dc:format>
    <dc:creator>
     <cc:Agent>
      <dc:title>Matplotlib v3.10.8, https://matplotlib.org/</dc:title>
     </cc:Agent>
    </dc:creator>
   </cc:Work>
  </rdf:RDF>
 </metadata>
 <defs>
  <style type="text/css">*{stroke-linejoin: round; stroke-linecap: butt}</style>
 </defs>
 <g id="figure_1">
  <g id="patch_1">
   <path d="M 0 270.01125 
L 546.21875 270.01125 
L 546.21875 0 
L 0 0 
z
" style="fill: #ffffff"/>
  </g>
  <g id="axes_1">
   <g id="patch_2">
    <path d="M 77.809375 238.958437 
L 468.409375 238.958437 
L 468.409375 17.198437 
L 77.809375 17.198437 
z
" style="fill: #ffffff"/>
   </g>
   <g id="matplotlib.axis_1">
    <g id="xtick_1">
     <g id="line2d_1">
      <path d="M 80.746217 238.958437 
L 80.746217 17.198437 
" clip-path="url(#pf370a5d6f3)" style="fill: none; stroke-dasharray: 2.96,1.28; stroke-dashoffset: 0; stroke: #b0b0b0; stroke-opacity: 0.3; stroke-width: 0.8"/>
     </g>
     <g id="line2d_2">
      <defs>
       <path id="md03598b04f" d="M 0 0 
L 0 3.5 
" style="stroke: #000000; stroke-width: 0.8"/>
      </defs>
      <g>
       <use xlink:href="#md03598b04f" x="80.746217" y="238.958437" style="stroke: #000000; stroke-width: 0.8"/>
      </g>
     </g>
     <g id="text_1">
      <!-- 2015 -->
      <g transform="translate(70.566217 252.037187) scale(0.08 -0.08)">
       <defs>
        <path id="DejaVuSerif-32" d="M 819 3553 
L 469 3553 
L 469 4384 
Q 803 4563 1142 4656 
Q 1481 4750 1806 4750 
Q 2534 4750 2956 4397 
Q 3378 4044 3378 3438 
Q 3378 2753 2422 1800 
Q 2347 1728 2309 1691 
L 1131 513 
L 3078 513 
L 3078 1088 
L 3444 1088 
L 3444 0 
L 434 0 
L 434 341 
L 1850 1753 
Q 2319 2222 2519 2614 
Q 2719 3006 2719 3438 
Q 2719 3909 2473 4175 
Q 2228 4441 1797 4441 
Q 1350 4441 1106 4219 
Q 863 3997 819 3553 
z
" transform="scale(0.015625)"/>
        <path id="DejaVuSerif-30" d="M 2034 219 
Q 2513 219 2750 744 
Q 2988 1269 2988 2328 
Q 2988 3391 2750 3916 
Q 2513 4441 2034 4441 
Q 1556 4441 1318 3916 
Q 1081 3391 1081 2328 
Q 1081 1269 1318 744 
Q 1556 219 2034 219 
z
M 2034 -91 
Q 1275 -91 848 546 
Q 422 1184 422 2328 
Q 422 3475 848 4112 
Q 1275 4750 2034 4750 
Q 2797 4750 3222 4112 
Q 3647 3475 3647 2328 
Q 3647 1184 3222 546 
Q 2797 -91 2034 -91 
z
" transform="scale(0.015625)"/>
        <path id="DejaVuSerif-31" d="M 909 0 
L 909 331 
L 1722 331 
L 1722 4213 
L 781 3603 
L 781 4013 
L 1919 4750 
L 2350 4750 
L 2350 331 
L 3163 331 
L 3163 0 
L 909 0 
z
" transform="scale(0.015625)"/>
        <path id="DejaVuSerif-35" d="M 3219 4666 
L 3219 4153 
L 1081 4153 
L 1081 2816 
Q 1244 2928 1461 2984 
Q 1678 3041 1947 3041 
Q 2703 3041 3140 2622 
Q 3578 2203 3578 1478 
Q 3578 738 3136 323 
Q 2694 -91 1894 -91 
Q 1572 -91 1234 -12 
Q 897 66 544 225 
L 544 1131 
L 897 1131 
Q 925 688 1179 453 
Q 1434 219 1894 219 
Q 2388 219 2653 544 
Q 2919 869 2919 1478 
Q 2919 2084 2655 2407 
Q 2391 2731 1894 2731 
Q 1613 2731 1398 2631 
Q 1184 2531 1019 2322 
L 750 2322 
L 750 4666 
L 3219 4666 
z
" transform="scale(0.015625)"/>
       </defs>
       <use xlink:href="#DejaVuSerif-32"/>
       <use xlink:href="#DejaVuSerif-30" transform="translate(63.623047 0)"/>
       <use xlink:href="#DejaVuSerif-31" transform="translate(127.246094 0)"/>
       <use xlink:href="#DejaVuSerif-35" transform="translate(190.869141 0)"/>
      </g>
     </g>
    </g>
    <g id="xtick_2">
     <g id="line2d_3">
      <path d="M 115.988322 238.958437 
L 115.988322 17.198437 
" clip-path="url(#pf370a5d6f3)" style="fill: none; stroke-dasharray: 2.96,1.28; stroke-dashoffset: 0; stroke: #b0b0b0; stroke-opacity: 0.3; stroke-width: 0.8"/>
     </g>
     <g id="line2d_4">
      <g>
       <use xlink:href="#md03598b04f" x="115.988322" y="238.958437" style="stroke: #000000; stroke-width: 0.8"/>
      </g>
     </g>
     <g id="text_2">
      <!-- 2016 -->
      <g transform="translate(105.808322 252.037187) scale(0.08 -0.08)">
       <defs>
        <path id="DejaVuSerif-36" d="M 2094 219 
Q 2534 219 2771 542 
Q 3009 866 3009 1472 
Q 3009 2078 2771 2401 
Q 2534 2725 2094 2725 
Q 1647 2725 1412 2412 
Q 1178 2100 1178 1509 
Q 1178 888 1415 553 
Q 1653 219 2094 219 
z
M 1075 2569 
Q 1288 2803 1556 2918 
Q 1825 3034 2163 3034 
Q 2859 3034 3264 2615 
Q 3669 2197 3669 1472 
Q 3669 763 3233 336 
Q 2797 -91 2069 -91 
Q 1278 -91 853 498 
Q 428 1088 428 2181 
Q 428 3406 931 4078 
Q 1434 4750 2350 4750 
Q 2597 4750 2869 4703 
Q 3141 4656 3425 4563 
L 3425 3794 
L 3072 3794 
Q 3034 4109 2831 4275 
Q 2628 4441 2284 4441 
Q 1678 4441 1381 3981 
Q 1084 3522 1075 2569 
z
" transform="scale(0.015625)"/>
       </defs>
       <use xlink:href="#DejaVuSerif-32"/>
       <use xlink:href="#DejaVuSerif-30" transform="translate(63.623047 0)"/>
       <use xlink:href="#DejaVuSerif-31" transform="translate(127.246094 0)"/>
       <use xlink:href="#DejaVuSerif-36" transform="translate(190.869141 0)"/>
      </g>
     </g>
    </g>
    <g id="xtick_3">
     <g id="line2d_5">
      <path d="M 151.230428 238.958437 
L 151.230428 17.198437 
" clip-path="url(#pf370a5d6f3)" style="fill: none; stroke-dasharray: 2.96,1.28; stroke-dashoffset: 0; stroke: #b0b0b0; stroke-opacity: 0.3; stroke-width: 0.8"/>
     </g>
     <g id="line2d_6">
      <g>
       <use xlink:href="#md03598b04f" x="151.230428" y="238.958437" style="stroke: #000000; stroke-width: 0.8"/>
      </g>
     </g>
     <g id="text_3">
      <!-- 2017 -->
      <g transform="translate(141.050428 252.037187) scale(0.08 -0.08)">
       <defs>
        <path id="DejaVuSerif-37" d="M 3609 4347 
L 1784 0 
L 1319 0 
L 3059 4153 
L 903 4153 
L 903 3578 
L 538 3578 
L 538 4666 
L 3609 4666 
L 3609 4347 
z
" transform="scale(0.015625)"/>
       </defs>
       <use xlink:href="#DejaVuSerif-32"/>
       <use xlink:href="#DejaVuSerif-30" transform="translate(63.623047 0)"/>
       <use xlink:href="#DejaVuSerif-31" transform="translate(127.246094 0)"/>
       <use xlink:href="#DejaVuSerif-37" transform="translate(190.869141 0)"/>
      </g>
     </g>
    </g>
    <g id="xtick_4">
     <g id="line2d_7">
      <path d="M 186.472533 238.958437 
L 186.472533 17.198437 
" clip-path="url(#pf370a5d6f3)" style="fill: none; stroke-dasharray: 2.96,1.28; stroke-dashoffset: 0; stroke: #b0b0b0; stroke-opacity: 0.3; stroke-width: 0.8"/>
     </g>
     <g id="line2d_8">
      <g>
       <use xlink:href="#md03598b04f" x="186.472533" y="238.958437" style="stroke: #000000; stroke-width: 0.8"/>
      </g>
     </g>
     <g id="text_4">
      <!-- 2018 -->
      <g transform="translate(176.292533 252.037187) scale(0.08 -0.08)">
       <defs>
        <path id="DejaVuSerif-38" d="M 2981 1275 
Q 2981 1775 2732 2051 
Q 2484 2328 2034 2328 
Q 1584 2328 1336 2051 
Q 1088 1775 1088 1275 
Q 1088 772 1336 495 
Q 1584 219 2034 219 
Q 2484 219 2732 495 
Q 2981 772 2981 1275 
z
M 2853 3541 
Q 2853 3966 2637 4203 
Q 2422 4441 2034 4441 
Q 1650 4441 1433 4203 
Q 1216 3966 1216 3541 
Q 1216 3113 1433 2875 
Q 1650 2638 2034 2638 
Q 2422 2638 2637 2875 
Q 2853 3113 2853 3541 
z
M 2516 2484 
Q 3047 2413 3344 2092 
Q 3641 1772 3641 1275 
Q 3641 619 3225 264 
Q 2809 -91 2034 -91 
Q 1263 -91 845 264 
Q 428 619 428 1275 
Q 428 1772 725 2092 
Q 1022 2413 1556 2484 
Q 1084 2569 832 2842 
Q 581 3116 581 3541 
Q 581 4103 968 4426 
Q 1356 4750 2034 4750 
Q 2713 4750 3100 4426 
Q 3488 4103 3488 3541 
Q 3488 3116 3236 2842 
Q 2984 2569 2516 2484 
z
" transform="scale(0.015625)"/>
       </defs>
       <use xlink:href="#DejaVuSerif-32"/>
       <use xlink:href="#DejaVuSerif-30" transform="translate(63.623047 0)"/>
       <use xlink:href="#DejaVuSerif-31" transform="translate(127.246094 0)"/>
       <use xlink:href="#DejaVuSerif-38" transform="translate(190.869141 0)"/>
      </g>
     </g>
    </g>
    <g id="xtick_5">
     <g id="line2d_9">
      <path d="M 221.714638 238.958437 
L 221.714638 17.198437 
" clip-path="url(#pf370a5d6f3)" style="fill: none; stroke-dasharray: 2.96,1.28; stroke-dashoffset: 0; stroke: #b0b0b0; stroke-opacity: 0.3; stroke-width: 0.8"/>
     </g>
     <g id="line2d_10">
      <g>
       <use xlink:href="#md03598b04f" x="221.714638" y="238.958437" style="stroke: #000000; stroke-width: 0.8"/>
      </g>
     </g>
     <g id="text_5">
      <!-- 2019 -->
      <g transform="translate(211.534638 252.037187) scale(0.08 -0.08)">
       <defs>
        <path id="DejaVuSerif-39" d="M 2994 2091 
Q 2784 1856 2512 1740 
Q 2241 1625 1900 1625 
Q 1206 1625 804 2044 
Q 403 2463 403 3188 
Q 403 3897 839 4323 
Q 1275 4750 2003 4750 
Q 2794 4750 3217 4161 
Q 3641 3572 3641 2478 
Q 3641 1253 3137 581 
Q 2634 -91 1722 -91 
Q 1475 -91 1203 -44 
Q 931 3 647 97 
L 647 872 
L 997 872 
Q 1038 556 1241 387 
Q 1444 219 1784 219 
Q 2391 219 2687 676 
Q 2984 1134 2994 2091 
z
M 1978 4441 
Q 1534 4441 1298 4117 
Q 1063 3794 1063 3188 
Q 1063 2581 1298 2256 
Q 1534 1931 1978 1931 
Q 2422 1931 2658 2245 
Q 2894 2559 2894 3150 
Q 2894 3772 2656 4106 
Q 2419 4441 1978 4441 
z
" transform="scale(0.015625)"/>
       </defs>
       <use xlink:href="#DejaVuSerif-32"/>
       <use xlink:href="#DejaVuSerif-30" transform="translate(63.623047 0)"/>
       <use xlink:href="#DejaVuSerif-31" transform="translate(127.246094 0)"/>
       <use xlink:href="#DejaVuSerif-39" transform="translate(190.869141 0)"/>
      </g>
     </g>
    </g>
    <g id="xtick_6">
     <g id="line2d_11">
      <path d="M 256.956743 238.958437 
L 256.956743 17.198437 
" clip-path="url(#pf370a5d6f3)" style="fill: none; stroke-dasharray: 2.96,1.28; stroke-dashoffset: 0; stroke: #b0b0b0; stroke-opacity: 0.3; stroke-width: 0.8"/>
     </g>
     <g id="line2d_12">
      <g>
       <use xlink:href="#md03598b04f" x="256.956743" y="238.958437" style="stroke: #000000; stroke-width: 0.8"/>
      </g>
     </g>
     <g id="text_6">
      <!-- 2020 -->
      <g transform="translate(246.776743 252.037187) scale(0.08 -0.08)">
       <use xlink:href="#DejaVuSerif-32"/>
       <use xlink:href="#DejaVuSerif-30" transform="translate(63.623047 0)"/>
       <use xlink:href="#DejaVuSerif-32" transform="translate(127.246094 0)"/>
       <use xlink:href="#DejaVuSerif-30" transform="translate(190.869141 0)"/>
      </g>
     </g>
    </g>
    <g id="xtick_7">
     <g id="line2d_13">
      <path d="M 292.198849 238.958437 
L 292.198849 17.198437 
" clip-path="url(#pf370a5d6f3)" style="fill: none; stroke-dasharray: 2.96,1.28; stroke-dashoffset: 0; stroke: #b0b0b0; stroke-opacity: 0.3; stroke-width: 0.8"/>
     </g>
     <g id="line2d_14">
      <g>
       <use xlink:href="#md03598b04f" x="292.198849" y="238.958437" style="stroke: #000000; stroke-width: 0.8"/>
      </g>
     </g>
     <g id="text_7">
      <!-- 2021 -->
      <g transform="translate(282.018849 252.037187) scale(0.08 -0.08)">
       <use xlink:href="#DejaVuSerif-32"/>
       <use xlink:href="#DejaVuSerif-30" transform="translate(63.623047 0)"/>
       <use xlink:href="#DejaVuSerif-32" transform="translate(127.246094 0)"/>
       <use xlink:href="#DejaVuSerif-31" transform="translate(190.869141 0)"/>
      </g>
     </g>
    </g>
    <g id="xtick_8">
     <g id="line2d_15">
      <path d="M 327.440954 238.958437 
L 327.440954 17.198437 
" clip-path="url(#pf370a5d6f3)" style="fill: none; stroke-dasharray: 2.96,1.28; stroke-dashoffset: 0; stroke: #b0b0b0; stroke-opacity: 0.3; stroke-width: 0.8"/>
     </g>
     <g id="line2d_16">
      <g>
       <use xlink:href="#md03598b04f" x="327.440954" y="238.958437" style="stroke: #000000; stroke-width: 0.8"/>
      </g>
     </g>
     <g id="text_8">
      <!-- 2022 -->
      <g transform="translate(317.260954 252.037187) scale(0.08 -0.08)">
       <use xlink:href="#DejaVuSerif-32"/>
       <use xlink:href="#DejaVuSerif-30" transform="translate(63.623047 0)"/>
       <use xlink:href="#DejaVuSerif-32" transform="translate(127.246094 0)"/>
       <use xlink:href="#DejaVuSerif-32" transform="translate(190.869141 0)"/>
      </g>
     </g>
    </g>
    <g id="xtick_9">
     <g id="line2d_17">
      <path d="M 362.683059 238.958437 
L 362.683059 17.198437 
" clip-path="url(#pf370a5d6f3)" style="fill: none; stroke-dasharray: 2.96,1.28; stroke-dashoffset: 0; stroke: #b0b0b0; stroke-opacity: 0.3; stroke-width: 0.8"/>
     </g>
     <g id="line2d_18">
      <g>
       <use xlink:href="#md03598b04f" x="362.683059" y="238.958437" style="stroke: #000000; stroke-width: 0.8"/>
      </g>
     </g>
     <g id="text_9">
      <!-- 2023 -->
      <g transform="translate(352.503059 252.037187) scale(0.08 -0.08)">
       <defs>
        <path id="DejaVuSerif-33" d="M 622 4469 
Q 988 4606 1323 4678 
Q 1659 4750 1953 4750 
Q 2638 4750 3022 4454 
Q 3406 4159 3406 3634 
Q 3406 3213 3140 2930 
Q 2875 2647 2388 2547 
Q 2963 2466 3280 2130 
Q 3597 1794 3597 1259 
Q 3597 606 3158 257 
Q 2719 -91 1894 -91 
Q 1528 -91 1179 -12 
Q 831 66 488 225 
L 488 1131 
L 838 1131 
Q 869 681 1141 450 
Q 1413 219 1906 219 
Q 2384 219 2661 495 
Q 2938 772 2938 1253 
Q 2938 1803 2653 2086 
Q 2369 2369 1819 2369 
L 1522 2369 
L 1522 2688 
L 1678 2688 
Q 2225 2688 2498 2914 
Q 2772 3141 2772 3597 
Q 2772 4006 2547 4223 
Q 2322 4441 1900 4441 
Q 1478 4441 1245 4241 
Q 1013 4041 972 3647 
L 622 3647 
L 622 4469 
z
" transform="scale(0.015625)"/>
       </defs>
       <use xlink:href="#DejaVuSerif-32"/>
       <use xlink:href="#DejaVuSerif-30" transform="translate(63.623047 0)"/>
       <use xlink:href="#DejaVuSerif-32" transform="translate(127.246094 0)"/>
       <use xlink:href="#DejaVuSerif-33" transform="translate(190.869141 0)"/>
      </g>
     </g>
    </g>
    <g id="xtick_10">
     <g id="line2d_19">
      <path d="M 397.925164 238.958437 
L 397.925164 17.198437 
" clip-path="url(#pf370a5d6f3)" style="fill: none; stroke-dasharray: 2.96,1.28; stroke-dashoffset: 0; stroke: #b0b0b0; stroke-opacity: 0.3; stroke-width: 0.8"/>
     </g>
     <g id="line2d_20">
      <g>
       <use xlink:href="#md03598b04f" x="397.925164" y="238.958437" style="stroke: #000000; stroke-width: 0.8"/>
      </g>
     </g>
     <g id="text_10">
      <!-- 2024 -->
      <g transform="translate(387.745164 252.037187) scale(0.08 -0.08)">
       <defs>
        <path id="DejaVuSerif-34" d="M 2234 1581 
L 2234 4063 
L 641 1581 
L 2234 1581 
z
M 3609 0 
L 1484 0 
L 1484 331 
L 2234 331 
L 2234 1247 
L 197 1247 
L 197 1588 
L 2241 4750 
L 2859 4750 
L 2859 1581 
L 3750 1581 
L 3750 1247 
L 2859 1247 
L 2859 331 
L 3609 331 
L 3609 0 
z
" transform="scale(0.015625)"/>
       </defs>
       <use xlink:href="#DejaVuSerif-32"/>
       <use xlink:href="#DejaVuSerif-30" transform="translate(63.623047 0)"/>
       <use xlink:href="#DejaVuSerif-32" transform="translate(127.246094 0)"/>
       <use xlink:href="#DejaVuSerif-34" transform="translate(190.869141 0)"/>
      </g>
     </g>
    </g>
    <g id="xtick_11">
     <g id="line2d_21">
      <path d="M 433.16727 238.958437 
L 433.16727 17.198437 
" clip-path="url(#pf370a5d6f3)" style="fill: none; stroke-dasharray: 2.96,1.28; stroke-dashoffset: 0; stroke: #b0b0b0; stroke-opacity: 0.3; stroke-width: 0.8"/>
     </g>
     <g id="line2d_22">
      <g>
       <use xlink:href="#md03598b04f" x="433.16727" y="238.958437" style="stroke: #000000; stroke-width: 0.8"/>
      </g>
     </g>
     <g id="text_11">
      <!-- 2025 -->
      <g transform="translate(422.98727 252.037187) scale(0.08 -0.08)">
       <use xlink:href="#DejaVuSerif-32"/>
       <use xlink:href="#DejaVuSerif-30" transform="translate(63.623047 0)"/>
       <use xlink:href="#DejaVuSerif-32" transform="translate(127.246094 0)"/>
       <use xlink:href="#DejaVuSerif-35" transform="translate(190.869141 0)"/>
      </g>
     </g>
    </g>
    <g id="text_12">
     <!-- Month -->
     <g transform="translate(258.187656 264.539531) scale(0.09 -0.09)">
      <defs>
       <path id="DejaVuSerif-4d" d="M 353 0 
L 353 331 
L 947 331 
L 947 4331 
L 319 4331 
L 319 4666 
L 1678 4666 
L 3316 1344 
L 4953 4666 
L 6228 4666 
L 6228 4331 
L 5606 4331 
L 5606 331 
L 6203 331 
L 6203 0 
L 4378 0 
L 4378 331 
L 4972 331 
L 4972 3938 
L 3372 684 
L 2931 684 
L 1331 3938 
L 1331 331 
L 1925 331 
L 1925 0 
L 353 0 
z
" transform="scale(0.015625)"/>
       <path id="DejaVuSerif-6f" d="M 1925 219 
Q 2388 219 2623 584 
Q 2859 950 2859 1663 
Q 2859 2375 2623 2739 
Q 2388 3103 1925 3103 
Q 1463 3103 1227 2739 
Q 991 2375 991 1663 
Q 991 950 1228 584 
Q 1466 219 1925 219 
z
M 1925 -91 
Q 1200 -91 759 389 
Q 319 869 319 1663 
Q 319 2456 758 2934 
Q 1197 3413 1925 3413 
Q 2653 3413 3092 2934 
Q 3531 2456 3531 1663 
Q 3531 869 3092 389 
Q 2653 -91 1925 -91 
z
" transform="scale(0.015625)"/>
       <path id="DejaVuSerif-6e" d="M 263 0 
L 263 331 
L 781 331 
L 781 2988 
L 231 2988 
L 231 3322 
L 1356 3322 
L 1356 2731 
Q 1516 3069 1770 3241 
Q 2025 3413 2363 3413 
Q 2913 3413 3172 3097 
Q 3431 2781 3431 2113 
L 3431 331 
L 3944 331 
L 3944 0 
L 2356 0 
L 2356 331 
L 2853 331 
L 2853 1931 
Q 2853 2541 2703 2767 
Q 2553 2994 2175 2994 
Q 1775 2994 1565 2701 
Q 1356 2409 1356 1850 
L 1356 331 
L 1856 331 
L 1856 0 
L 263 0 
z
" transform="scale(0.015625)"/>
       <path id="DejaVuSerif-74" d="M 691 2988 
L 184 2988 
L 184 3322 
L 691 3322 
L 691 4353 
L 1269 4353 
L 1269 3322 
L 2350 3322 
L 2350 2988 
L 1269 2988 
L 1269 878 
Q 1269 456 1350 337 
Q 1431 219 1650 219 
Q 1875 219 1978 351 
Q 2081 484 2088 781 
L 2522 781 
Q 2497 328 2275 118 
Q 2053 -91 1600 -91 
Q 1103 -91 897 129 
Q 691 350 691 878 
L 691 2988 
z
" transform="scale(0.015625)"/>
       <path id="DejaVuSerif-68" d="M 263 0 
L 263 331 
L 781 331 
L 781 4531 
L 231 4531 
L 231 4863 
L 1356 4863 
L 1356 2731 
Q 1516 3069 1770 3241 
Q 2025 3413 2363 3413 
Q 2913 3413 3172 3097 
Q 3431 2781 3431 2113 
L 3431 331 
L 3944 331 
L 3944 0 
L 2356 0 
L 2356 331 
L 2853 331 
L 2853 1931 
Q 2853 2541 2704 2764 
Q 2556 2988 2175 2988 
Q 1775 2988 1565 2697 
Q 1356 2406 1356 1850 
L 1356 331 
L 1856 331 
L 1856 0 
L 263 0 
z
" transform="scale(0.015625)"/>
      </defs>
      <use xlink:href="#DejaVuSerif-4d"/>
      <use xlink:href="#DejaVuSerif-6f" transform="translate(102.392578 0)"/>
      <use xlink:href="#DejaVuSerif-6e" transform="translate(162.597656 0)"/>
      <use xlink:href="#DejaVuSerif-74" transform="translate(227.001953 0)"/>
      <use xlink:href="#DejaVuSerif-68" transform="translate(267.1875 0)"/>
     </g>
    </g>
   </g>
   <g id="matplotlib.axis_2">
    <g id="ytick_1">
     <g id="line2d_23">
      <path d="M 77.809375 238.958437 
L 468.409375 238.958437 
" clip-path="url(#pf370a5d6f3)" style="fill: none; stroke-dasharray: 2.96,1.28; stroke-dashoffset: 0; stroke: #b0b0b0; stroke-opacity: 0.3; stroke-width: 0.8"/>
     </g>
     <g id="line2d_24">
      <defs>
       <path id="m37db38753a" d="M 0 0 
L -3.5 0 
" style="stroke: #000000; stroke-width: 0.8"/>
      </defs>
      <g>
       <use xlink:href="#m37db38753a" x="77.809375" y="238.958437" style="stroke: #000000; stroke-width: 0.8"/>
      </g>
     </g>
     <g id="text_13">
      <!-- 0.30 -->
      <g transform="translate(52.996875 241.997812) scale(0.08 -0.08)">
       <defs>
        <path id="DejaVuSerif-2e" d="M 603 325 
Q 603 500 722 622 
Q 841 744 1019 744 
Q 1191 744 1312 622 
Q 1434 500 1434 325 
Q 1434 153 1312 31 
Q 1191 -91 1019 -91 
Q 841 -91 722 29 
Q 603 150 603 325 
z
" transform="scale(0.015625)"/>
       </defs>
       <use xlink:href="#DejaVuSerif-30"/>
       <use xlink:href="#DejaVuSerif-2e" transform="translate(63.623047 0)"/>
       <use xlink:href="#DejaVuSerif-33" transform="translate(95.410156 0)"/>
       <use xlink:href="#DejaVuSerif-30" transform="translate(159.033203 0)"/>
      </g>
     </g>
    </g>
    <g id="ytick_2">
     <g id="line2d_25">
      <path d="M 77.809375 211.238437 
L 468.409375 211.238437 
" clip-path="url(#pf370a5d6f3)" style="fill: none; stroke-dasharray: 2.96,1.28; stroke-dashoffset: 0; stroke: #b0b0b0; stroke-opacity: 0.3; stroke-width: 0.8"/>
     </g>
     <g id="line2d_26">
      <g>
       <use xlink:href="#m37db38753a" x="77.809375" y="211.238437" style="stroke: #000000; stroke-width: 0.8"/>
      </g>
     </g>
     <g id="text_14">
      <!-- 0.35 -->
      <g transform="translate(52.996875 214.277812) scale(0.08 -0.08)">
       <use xlink:href="#DejaVuSerif-30"/>
       <use xlink:href="#DejaVuSerif-2e" transform="translate(63.623047 0)"/>
       <use xlink:href="#DejaVuSerif-33" transform="translate(95.410156 0)"/>
       <use xlink:href="#DejaVuSerif-35" transform="translate(159.033203 0)"/>
      </g>
     </g>
    </g>
    <g id="ytick_3">
     <g id="line2d_27">
      <path d="M 77.809375 183.518437 
L 468.409375 183.518437 
" clip-path="url(#pf370a5d6f3)" style="fill: none; stroke-dasharray: 2.96,1.28; stroke-dashoffset: 0; stroke: #b0b0b0; stroke-opacity: 0.3; stroke-width: 0.8"/>
     </g>
     <g id="line2d_28">
      <g>
       <use xlink:href="#m37db38753a" x="77.809375" y="183.518437" style="stroke: #000000; stroke-width: 0.8"/>
      </g>
     </g>
     <g id="text_15">
      <!-- 0.40 -->
      <g transform="translate(52.996875 186.557812) scale(0.08 -0.08)">
       <use xlink:href="#DejaVuSerif-30"/>
       <use xlink:href="#DejaVuSerif-2e" transform="translate(63.623047 0)"/>
       <use xlink:href="#DejaVuSerif-34" transform="translate(95.410156 0)"/>
       <use xlink:href="#DejaVuSerif-30" transform="translate(159.033203 0)"/>
      </g>
     </g>
    </g>
    <g id="ytick_4">
     <g id="line2d_29">
      <path d="M 77.809375 155.798437 
L 468.409375 155.798437 
" clip-path="url(#pf370a5d6f3)" style="fill: none; stroke-dasharray: 2.96,1.28; stroke-dashoffset: 0; stroke: #b0b0b0; stroke-opacity: 0.3; stroke-width: 0.8"/>
     </g>
     <g id="line2d_30">
      <g>
       <use xlink:href="#m37db38753a" x="77.809375" y="155.798437" style="stroke: #000000; stroke-width: 0.8"/>
      </g>
     </g>
     <g id="text_16">
      <!-- 0.45 -->
      <g transform="translate(52.996875 158.837812) scale(0.08 -0.08)">
       <use xlink:href="#DejaVuSerif-30"/>
       <use xlink:href="#DejaVuSerif-2e" transform="translate(63.623047 0)"/>
       <use xlink:href="#DejaVuSerif-34" transform="translate(95.410156 0)"/>
       <use xlink:href="#DejaVuSerif-35" transform="translate(159.033203 0)"/>
      </g>
     </g>
    </g>
    <g id="ytick_5">
     <g id="line2d_31">
      <path d="M 77.809375 128.078437 
L 468.409375 128.078437 
" clip-path="url(#pf370a5d6f3)" style="fill: none; stroke-dasharray: 2.96,1.28; stroke-dashoffset: 0; stroke: #b0b0b0; stroke-opacity: 0.3; stroke-width: 0.8"/>
     </g>
     <g id="line2d_32">
      <g>
       <use xlink:href="#m37db38753a" x="77.809375" y="128.078437" style="stroke: #000000; stroke-width: 0.8"/>
      </g>
     </g>
     <g id="text_17">
      <!-- 0.50 -->
      <g transform="translate(52.996875 131.117812) scale(0.08 -0.08)">
       <use xlink:href="#DejaVuSerif-30"/>
       <use xlink:href="#DejaVuSerif-2e" transform="translate(63.623047 0)"/>
       <use xlink:href="#DejaVuSerif-35" transform="translate(95.410156 0)"/>
       <use xlink:href="#DejaVuSerif-30" transform="translate(159.033203 0)"/>
      </g>
     </g>
    </g>
    <g id="ytick_6">
     <g id="line2d_33">
      <path d="M 77.809375 100.358437 
L 468.409375 100.358437 
" clip-path="url(#pf370a5d6f3)" style="fill: none; stroke-dasharray: 2.96,1.28; stroke-dashoffset: 0; stroke: #b0b0b0; stroke-opacity: 0.3; stroke-width: 0.8"/>
     </g>
     <g id="line2d_34">
      <g>
       <use xlink:href="#m37db38753a" x="77.809375" y="100.358437" style="stroke: #000000; stroke-width: 0.8"/>
      </g>
     </g>
     <g id="text_18">
      <!-- 0.55 -->
      <g transform="translate(52.996875 103.397812) scale(0.08 -0.08)">
       <use xlink:href="#DejaVuSerif-30"/>
       <use xlink:href="#DejaVuSerif-2e" transform="translate(63.623047 0)"/>
       <use xlink:href="#DejaVuSerif-35" transform="translate(95.410156 0)"/>
       <use xlink:href="#DejaVuSerif-35" transform="translate(159.033203 0)"/>
      </g>
     </g>
    </g>
    <g id="ytick_7">
     <g id="line2d_35">
      <path d="M 77.809375 72.638437 
L 468.409375 72.638437 
" clip-path="url(#pf370a5d6f3)" style="fill: none; stroke-dasharray: 2.96,1.28; stroke-dashoffset: 0; stroke: #b0b0b0; stroke-opacity: 0.3; stroke-width: 0.8"/>
     </g>
     <g id="line2d_36">
      <g>
       <use xlink:href="#m37db38753a" x="77.809375" y="72.638437" style="stroke: #000000; stroke-width: 0.8"/>
      </g>
     </g>
     <g id="text_19">
      <!-- 0.60 -->
      <g transform="translate(52.996875 75.677812) scale(0.08 -0.08)">
       <use xlink:href="#DejaVuSerif-30"/>
       <use xlink:href="#DejaVuSerif-2e" transform="translate(63.623047 0)"/>
       <use xlink:href="#DejaVuSerif-36" transform="translate(95.410156 0)"/>
       <use xlink:href="#DejaVuSerif-30" transform="translate(159.033203 0)"/>
      </g>
     </g>
    </g>
    <g id="ytick_8">
     <g id="line2d_37">
      <path d="M 77.809375 44.918437 
L 468.409375 44.918437 
" clip-path="url(#pf370a5d6f3)" style="fill: none; stroke-dasharray: 2.96,1.28; stroke-dashoffset: 0; stroke: #b0b0b0; stroke-opacity: 0.3; stroke-width: 0.8"/>
     </g>
     <g id="line2d_38">
      <g>
       <use xlink:href="#m37db38753a" x="77.809375" y="44.918437" style="stroke: #000000; stroke-width: 0.8"/>
      </g>
     </g>
     <g id="text_20">
      <!-- 0.65 -->
      <g transform="translate(52.996875 47.957812) scale(0.08 -0.08)">
       <use xlink:href="#DejaVuSerif-30"/>
       <use xlink:href="#DejaVuSerif-2e" transform="translate(63.623047 0)"/>
       <use xlink:href="#DejaVuSerif-36" transform="translate(95.410156 0)"/>
       <use xlink:href="#DejaVuSerif-35" transform="translate(159.033203 0)"/>
      </g>
     </g>
    </g>
    <g id="ytick_9">
     <g id="line2d_39">
      <path d="M 77.809375 17.198437 
L 468.409375 17.198437 
" clip-path="url(#pf370a5d6f3)" style="fill: none; stroke-dasharray: 2.96,1.28; stroke-dashoffset: 0; stroke: #b0b0b0; stroke-opacity: 0.3; stroke-width: 0.8"/>
     </g>
     <g id="line2d_40">
      <g>
       <use xlink:href="#m37db38753a" x="77.809375" y="17.198437" style="stroke: #000000; stroke-width: 0.8"/>
      </g>
     </g>
     <g id="text_21">
      <!-- 0.70 -->
      <g transform="translate(52.996875 20.237812) scale(0.08 -0.08)">
       <use xlink:href="#DejaVuSerif-30"/>
       <use xlink:href="#DejaVuSerif-2e" transform="translate(63.623047 0)"/>
       <use xlink:href="#DejaVuSerif-37" transform="translate(95.410156 0)"/>
       <use xlink:href="#DejaVuSerif-30" transform="translate(159.033203 0)"/>
      </g>
     </g>
    </g>
    <g id="text_22">
     <!-- Female share (female / (female + male)) -->
     <g transform="translate(47.125156 220.083047) rotate(-90) scale(0.09 -0.09)">
      <defs>
       <path id="DejaVuSerif-46" d="M 353 0 
L 353 331 
L 947 331 
L 947 4331 
L 353 4331 
L 353 4666 
L 4172 4666 
L 4172 3628 
L 3788 3628 
L 3788 4281 
L 1581 4281 
L 1581 2719 
L 3175 2719 
L 3175 3303 
L 3559 3303 
L 3559 1753 
L 3175 1753 
L 3175 2338 
L 1581 2338 
L 1581 331 
L 2328 331 
L 2328 0 
L 353 0 
z
" transform="scale(0.015625)"/>
       <path id="DejaVuSerif-65" d="M 3469 1600 
L 991 1600 
L 991 1575 
Q 991 903 1244 561 
Q 1497 219 1991 219 
Q 2369 219 2611 417 
Q 2853 616 2950 1006 
L 3413 1006 
Q 3275 459 2904 184 
Q 2534 -91 1931 -91 
Q 1203 -91 761 389 
Q 319 869 319 1663 
Q 319 2450 753 2931 
Q 1188 3413 1894 3413 
Q 2647 3413 3050 2948 
Q 3453 2484 3469 1600 
z
M 2791 1931 
Q 2772 2513 2545 2808 
Q 2319 3103 1894 3103 
Q 1497 3103 1269 2806 
Q 1041 2509 991 1931 
L 2791 1931 
z
" transform="scale(0.015625)"/>
       <path id="DejaVuSerif-6d" d="M 3316 2675 
Q 3481 3041 3739 3227 
Q 3997 3413 4341 3413 
Q 4863 3413 5119 3089 
Q 5375 2766 5375 2113 
L 5375 331 
L 5894 331 
L 5894 0 
L 4300 0 
L 4300 331 
L 4800 331 
L 4800 2047 
Q 4800 2556 4650 2772 
Q 4500 2988 4153 2988 
Q 3769 2988 3567 2697 
Q 3366 2406 3366 1850 
L 3366 331 
L 3866 331 
L 3866 0 
L 2291 0 
L 2291 331 
L 2791 331 
L 2791 2069 
Q 2791 2566 2641 2777 
Q 2491 2988 2144 2988 
Q 1759 2988 1557 2697 
Q 1356 2406 1356 1850 
L 1356 331 
L 1856 331 
L 1856 0 
L 263 0 
L 263 331 
L 781 331 
L 781 2994 
L 231 2994 
L 231 3322 
L 1356 3322 
L 1356 2731 
Q 1516 3063 1762 3238 
Q 2009 3413 2322 3413 
Q 2709 3413 2968 3220 
Q 3228 3028 3316 2675 
z
" transform="scale(0.015625)"/>
       <path id="DejaVuSerif-61" d="M 2547 1044 
L 2547 1747 
L 1806 1747 
Q 1378 1747 1168 1562 
Q 959 1378 959 997 
Q 959 650 1171 447 
Q 1384 244 1747 244 
Q 2106 244 2326 466 
Q 2547 688 2547 1044 
z
M 3122 2075 
L 3122 331 
L 3634 331 
L 3634 0 
L 2547 0 
L 2547 359 
Q 2356 128 2106 18 
Q 1856 -91 1522 -91 
Q 969 -91 644 203 
Q 319 497 319 997 
Q 319 1513 691 1797 
Q 1063 2081 1741 2081 
L 2547 2081 
L 2547 2309 
Q 2547 2688 2317 2895 
Q 2088 3103 1672 3103 
Q 1328 3103 1125 2947 
Q 922 2791 872 2484 
L 575 2484 
L 575 3156 
Q 875 3284 1158 3348 
Q 1441 3413 1709 3413 
Q 2400 3413 2761 3070 
Q 3122 2728 3122 2075 
z
" transform="scale(0.015625)"/>
       <path id="DejaVuSerif-6c" d="M 1313 331 
L 1856 331 
L 1856 0 
L 184 0 
L 184 331 
L 738 331 
L 738 4531 
L 184 4531 
L 184 4863 
L 1313 4863 
L 1313 331 
z
" transform="scale(0.015625)"/>
       <path id="DejaVuSerif-20" transform="scale(0.015625)"/>
       <path id="DejaVuSerif-73" d="M 359 184 
L 359 959 
L 691 959 
Q 703 588 923 403 
Q 1144 219 1575 219 
Q 1963 219 2166 364 
Q 2369 509 2369 788 
Q 2369 1006 2220 1140 
Q 2072 1275 1594 1428 
L 1178 1569 
Q 750 1706 558 1912 
Q 366 2119 366 2438 
Q 366 2894 700 3153 
Q 1034 3413 1625 3413 
Q 1888 3413 2178 3344 
Q 2469 3275 2778 3144 
L 2778 2419 
L 2447 2419 
Q 2434 2741 2221 2922 
Q 2009 3103 1644 3103 
Q 1281 3103 1095 2975 
Q 909 2847 909 2591 
Q 909 2381 1050 2254 
Q 1191 2128 1613 1997 
L 2069 1856 
Q 2541 1709 2748 1489 
Q 2956 1269 2956 922 
Q 2956 450 2595 179 
Q 2234 -91 1600 -91 
Q 1278 -91 972 -22 
Q 666 47 359 184 
z
" transform="scale(0.015625)"/>
       <path id="DejaVuSerif-72" d="M 3059 3328 
L 3059 2497 
L 2728 2497 
Q 2713 2744 2591 2866 
Q 2469 2988 2234 2988 
Q 1809 2988 1582 2694 
Q 1356 2400 1356 1850 
L 1356 331 
L 2022 331 
L 2022 0 
L 263 0 
L 263 331 
L 781 331 
L 781 2994 
L 231 2994 
L 231 3322 
L 1356 3322 
L 1356 2731 
Q 1525 3078 1790 3245 
Q 2056 3413 2438 3413 
Q 2578 3413 2733 3391 
Q 2888 3369 3059 3328 
z
" transform="scale(0.015625)"/>
       <path id="DejaVuSerif-28" d="M 2041 -997 
Q 1281 -656 893 83 
Q 506 822 506 1931 
Q 506 3044 893 3783 
Q 1281 4522 2041 4863 
L 2041 4556 
Q 1559 4225 1350 3623 
Q 1141 3022 1141 1931 
Q 1141 844 1350 242 
Q 1559 -359 2041 -691 
L 2041 -997 
z
" transform="scale(0.015625)"/>
       <path id="DejaVuSerif-66" d="M 2753 4078 
L 2450 4078 
Q 2447 4313 2317 4434 
Q 2188 4556 1941 4556 
Q 1619 4556 1487 4379 
Q 1356 4203 1356 3750 
L 1356 3322 
L 2284 3322 
L 2284 2988 
L 1356 2988 
L 1356 331 
L 2094 331 
L 2094 0 
L 231 0 
L 231 331 
L 781 331 
L 781 2988 
L 231 2988 
L 231 3322 
L 781 3322 
L 781 3738 
Q 781 4294 1070 4578 
Q 1359 4863 1919 4863 
Q 2128 4863 2337 4825 
Q 2547 4788 2753 4709 
L 2753 4078 
z
" transform="scale(0.015625)"/>
       <path id="DejaVuSerif-2f" d="M 1656 4666 
L 2156 4666 
L 500 -594 
L 0 -594 
L 1656 4666 
z
" transform="scale(0.015625)"/>
       <path id="DejaVuSerif-2b" d="M 2931 4013 
L 2931 2259 
L 4684 2259 
L 4684 1753 
L 2931 1753 
L 2931 0 
L 2431 0 
L 2431 1753 
L 678 1753 
L 678 2259 
L 2431 2259 
L 2431 4013 
L 2931 4013 
z
" transform="scale(0.015625)"/>
       <path id="DejaVuSerif-29" d="M 453 -997 
L 453 -691 
Q 934 -359 1145 242 
Q 1356 844 1356 1931 
Q 1356 3022 1145 3623 
Q 934 4225 453 4556 
L 453 4863 
Q 1216 4522 1603 3783 
Q 1991 3044 1991 1931 
Q 1991 822 1603 83 
Q 1216 -656 453 -997 
z
" transform="scale(0.015625)"/>
      </defs>
      <use xlink:href="#DejaVuSerif-46"/>
      <use xlink:href="#DejaVuSerif-65" transform="translate(63.884766 0)"/>
      <use xlink:href="#DejaVuSerif-6d" transform="translate(123.064453 0)"/>
      <use xlink:href="#DejaVuSerif-61" transform="translate(217.888672 0)"/>
      <use xlink:href="#DejaVuSerif-6c" transform="translate(277.507812 0)"/>
      <use xlink:href="#DejaVuSerif-65" transform="translate(309.490234 0)"/>
      <use xlink:href="#DejaVuSerif-20" transform="translate(368.669922 0)"/>
      <use xlink:href="#DejaVuSerif-73" transform="translate(400.457031 0)"/>
      <use xlink:href="#DejaVuSerif-68" transform="translate(451.775391 0)"/>
      <use xlink:href="#DejaVuSerif-61" transform="translate(516.179688 0)"/>
      <use xlink:href="#DejaVuSerif-72" transform="translate(575.798828 0)"/>
      <use xlink:href="#DejaVuSerif-65" transform="translate(623.601562 0)"/>
      <use xlink:href="#DejaVuSerif-20" transform="translate(682.78125 0)"/>
      <use xlink:href="#DejaVuSerif-28" transform="translate(714.568359 0)"/>
      <use xlink:href="#DejaVuSerif-66" transform="translate(753.582031 0)"/>
      <use xlink:href="#DejaVuSerif-65" transform="translate(790.59375 0)"/>
      <use xlink:href="#DejaVuSerif-6d" transform="translate(849.773438 0)"/>
      <use xlink:href="#DejaVuSerif-61" transform="translate(944.597656 0)"/>
      <use xlink:href="#DejaVuSerif-6c" transform="translate(1004.216797 0)"/>
      <use xlink:href="#DejaVuSerif-65" transform="translate(1036.199219 0)"/>
      <use xlink:href="#DejaVuSerif-20" transform="translate(1095.378906 0)"/>
      <use xlink:href="#DejaVuSerif-2f" transform="translate(1127.166016 0)"/>
      <use xlink:href="#DejaVuSerif-20" transform="translate(1160.857422 0)"/>
      <use xlink:href="#DejaVuSerif-28" transform="translate(1192.644531 0)"/>
      <use xlink:href="#DejaVuSerif-66" transform="translate(1231.658203 0)"/>
      <use xlink:href="#DejaVuSerif-65" transform="translate(1268.669922 0)"/>
      <use xlink:href="#DejaVuSerif-6d" transform="translate(1327.849609 0)"/>
      <use xlink:href="#DejaVuSerif-61" transform="translate(1422.673828 0)"/>
      <use xlink:href="#DejaVuSerif-6c" transform="translate(1482.292969 0)"/>
      <use xlink:href="#DejaVuSerif-65" transform="translate(1514.275391 0)"/>
      <use xlink:href="#DejaVuSerif-20" transform="translate(1573.455078 0)"/>
      <use xlink:href="#DejaVuSerif-2b" transform="translate(1605.242188 0)"/>
      <use xlink:href="#DejaVuSerif-20" transform="translate(1689.03125 0)"/>
      <use xlink:href="#DejaVuSerif-6d" transform="translate(1720.818359 0)"/>
      <use xlink:href="#DejaVuSerif-61" transform="translate(1815.642578 0)"/>
      <use xlink:href="#DejaVuSerif-6c" transform="translate(1875.261719 0)"/>
      <use xlink:href="#DejaVuSerif-65" transform="translate(1907.244141 0)"/>
      <use xlink:href="#DejaVuSerif-29" transform="translate(1966.423828 0)"/>
      <use xlink:href="#DejaVuSerif-29" transform="translate(2005.4375 0)"/>
     </g>
    </g>
   </g>
   <g id="line2d_41">
    <path d="M 115.988322 238.958437 
L 115.988322 17.198437 
" clip-path="url(#pf370a5d6f3)" style="fill: none; stroke: #808080; stroke-opacity: 0.5; stroke-width: 0.4; stroke-linecap: square"/>
   </g>
   <g id="line2d_42">
    <path d="M 151.230428 238.958437 
L 151.230428 17.198437 
" clip-path="url(#pf370a5d6f3)" style="fill: none; stroke: #808080; stroke-opacity: 0.5; stroke-width: 0.4; stroke-linecap: square"/>
   </g>
   <g id="line2d_43">
    <path d="M 186.472533 238.958437 
L 186.472533 17.198437 
" clip-path="url(#pf370a5d6f3)" style="fill: none; stroke: #808080; stroke-opacity: 0.5; stroke-width: 0.4; stroke-linecap: square"/>
   </g>
   <g id="line2d_44">
    <path d="M 221.714638 238.958437 
L 221.714638 17.198437 
" clip-path="url(#pf370a5d6f3)" style="fill: none; stroke: #808080; stroke-opacity: 0.5; stroke-width: 0.4; stroke-linecap: square"/>
   </g>
   <g id="line2d_45">
    <path d="M 256.956743 238.958437 
L 256.956743 17.198437 
" clip-path="url(#pf370a5d6f3)" style="fill: none; stroke: #808080; stroke-opacity: 0.5; stroke-width: 0.4; stroke-linecap: square"/>
   </g>
   <g id="line2d_46">
    <path d="M 292.198849 238.958437 
L 292.198849 17.198437 
" clip-path="url(#pf370a5d6f3)" style="fill: none; stroke: #808080; stroke-opacity: 0.5; stroke-width: 0.4; stroke-linecap: square"/>
   </g>
   <g id="line2d_47">
    <path d="M 327.440954 238.958437 
L 327.440954 17.198437 
" clip-path="url(#pf370a5d6f3)" style="fill: none; stroke: #808080; stroke-opacity: 0.5; stroke-width: 0.4; stroke-linecap: square"/>
   </g>
   <g id="line2d_48">
    <path d="M 362.683059 238.958437 
L 362.683059 17.198437 
" clip-path="url(#pf370a5d6f3)" style="fill: none; stroke: #808080; stroke-opacity: 0.5; stroke-width: 0.4; stroke-linecap: square"/>
   </g>
   <g id="line2d_49">
    <path d="M 397.925164 238.958437 
L 397.925164 17.198437 
" clip-path="url(#pf370a5d6f3)" style="fill: none; stroke: #808080; stroke-opacity: 0.5; stroke-width: 0.4; stroke-linecap: square"/>
   </g>
   <g id="line2d_50">
    <path d="M 433.16727 238.958437 
L 433.16727 17.198437 
" clip-path="url(#pf370a5d6f3)" style="fill: none; stroke: #808080; stroke-opacity: 0.5; stroke-width: 0.4; stroke-linecap: square"/>
   </g>
   <g id="line2d_51">
    <path d="M 80.746217 81.059703 
L 83.683059 74.730513 
L 86.619901 90.058487 
L 89.556743 89.905465 
L 92.493586 88.667685 
L 95.430428 70.86672 
L 98.36727 96.233007 
L 101.304112 60.632323 
L 104.240954 66.6372 
L 107.177796 77.584757 
L 110.114638 72.07488 
L 113.05148 90.254886 
L 115.988322 107.137592 
L 118.925164 101.570241 
L 121.862007 76.974527 
L 124.798849 48.720248 
L 127.735691 82.548003 
L 130.672533 62.401463 
L 133.609375 61.216126 
L 136.546217 94.236462 
L 139.483059 112.214582 
L 142.419901 92.072804 
L 145.356743 95.252122 
L 148.293586 102.141595 
L 151.230428 76.585223 
L 154.16727 81.660513 
L 157.104112 72.892167 
L 160.040954 99.628964 
L 162.977796 88.045177 
L 165.914638 92.752146 
L 168.85148 81.764924 
L 171.788322 89.644572 
L 174.725164 104.842074 
L 177.662007 102.942805 
L 180.598849 100.478437 
L 183.535691 105.158625 
L 186.472533 107.297243 
L 189.409375 90.725246 
L 192.346217 97.351858 
L 195.283059 91.783186 
L 198.219901 100.50747 
L 201.156743 115.826504 
L 204.093586 93.099333 
L 207.030428 127.348964 
L 209.96727 86.426624 
L 212.904112 102.624853 
L 215.840954 130.519192 
L 218.777796 157.111854 
L 221.714638 117.976037 
L 224.65148 113.831007 
L 227.588322 118.376437 
L 230.525164 112.983388 
L 233.462007 137.800963 
L 236.398849 116.451947 
L 239.335691 123.038437 
L 242.272533 135.424727 
L 245.209375 142.210202 
L 248.146217 136.777182 
L 251.083059 115.559728 
L 254.019901 116.862253 
L 256.956743 126.27192 
L 259.893586 107.545104 
L 262.830428 114.769796 
L 265.76727 111.484522 
L 268.704112 103.195134 
L 271.640954 117.899445 
L 274.577796 121.285394 
L 277.514638 135.632195 
L 280.45148 120.626825 
L 283.388322 102.121897 
L 286.325164 129.363754 
L 289.262007 127.545361 
L 292.198849 140.820864 
L 295.135691 113.36799 
L 298.072533 132.242775 
L 301.009375 136.107679 
L 303.946217 143.690453 
L 306.883059 134.889755 
L 309.819901 142.018093 
L 312.756743 126.689461 
L 315.693586 155.367557 
L 318.630428 160.828708 
L 321.56727 137.05084 
L 324.504112 148.772631 
L 327.440954 158.45361 
L 330.377796 139.01208 
L 333.314638 141.315516 
L 336.25148 130.502927 
L 339.188322 122.288359 
L 342.125164 122.529999 
L 345.062007 141.364221 
L 347.998849 143.270495 
L 350.935691 139.947134 
L 353.872533 159.522685 
L 356.809375 146.717748 
L 359.746217 151.876212 
L 362.683059 133.393719 
L 365.619901 135.449866 
L 368.556743 132.541958 
L 371.493586 126.917217 
L 374.430428 125.107879 
L 377.36727 124.949026 
L 380.304112 122.224524 
L 383.240954 130.685334 
L 386.177796 129.947965 
L 389.114638 136.087985 
L 392.05148 134.305531 
L 394.988322 147.732204 
L 397.925164 133.70081 
L 400.862007 135.807715 
L 403.798849 136.675044 
L 406.735691 129.564322 
L 409.672533 129.295562 
L 412.609375 146.017661 
L 415.546217 138.641486 
L 418.483059 150.879848 
L 421.419901 149.424641 
L 424.356743 156.928652 
L 427.293586 151.875189 
L 430.230428 137.373112 
L 433.16727 155.656284 
L 436.104112 135.472449 
L 439.040954 144.68079 
L 441.977796 146.855475 
L 444.914638 139.718251 
L 447.85148 148.2328 
L 450.788322 148.306108 
L 453.725164 145.750569 
L 456.662007 155.247944 
L 459.598849 141.853312 
L 462.535691 155.078437 
L 465.472533 149.401514 
L 465.472533 149.401514 
" clip-path="url(#pf370a5d6f3)" style="fill: none; stroke: #ff7f0e; stroke-opacity: 0.55; stroke-width: 0.9; stroke-linecap: square"/>
   </g>
   <g id="line2d_52">
    <path d="M 80.746217 81.059703 
L 83.683059 77.895108 
L 86.619901 81.949568 
L 89.556743 83.938542 
L 92.493586 84.884371 
L 95.430428 82.548095 
L 98.36727 84.503083 
L 101.304112 81.519238 
L 104.240954 79.865678 
L 107.177796 79.637586 
L 110.114638 78.950067 
L 113.05148 79.892135 
L 118.925164 84.301937 
L 121.862007 83.211607 
L 124.798849 79.779506 
L 127.735691 79.269532 
L 130.672533 78.564094 
L 133.609375 75.646021 
L 136.546217 78.446365 
L 139.483059 82.244481 
L 142.419901 83.451818 
L 145.356743 85.383255 
L 148.293586 86.373814 
L 151.230428 83.827783 
L 154.16727 82.168639 
L 157.104112 81.828442 
L 160.040954 86.070835 
L 162.977796 86.528933 
L 165.914638 89.058157 
L 168.85148 90.770557 
L 171.788322 90.387899 
L 174.725164 89.773523 
L 177.662007 90.679357 
L 180.598849 91.114883 
L 183.535691 91.366302 
L 186.472533 93.925637 
L 189.409375 94.681032 
L 192.346217 96.719339 
L 195.283059 96.065524 
L 198.219901 97.104049 
L 201.156743 99.026912 
L 204.093586 99.971446 
L 207.030428 103.113479 
L 209.96727 101.578858 
L 212.904112 101.552362 
L 215.840954 104.055758 
L 218.777796 108.385194 
L 221.714638 109.275093 
L 224.65148 111.200574 
L 230.525164 114.719305 
L 233.462007 117.827096 
L 236.398849 117.879217 
L 239.335691 120.374142 
L 242.272533 121.047122 
L 245.209375 125.695754 
L 248.146217 128.541781 
L 251.083059 127.295159 
L 254.019901 123.941026 
L 256.956743 124.632349 
L 259.893586 124.108524 
L 262.830428 123.807971 
L 265.76727 123.683065 
L 268.704112 120.799246 
L 271.640954 120.919871 
L 274.577796 120.773784 
L 277.514638 120.791073 
L 280.45148 118.992458 
L 283.388322 116.104518 
L 286.325164 117.254853 
L 289.262007 118.145112 
L 292.198849 119.357524 
L 295.135691 119.842765 
L 298.072533 121.298846 
L 301.009375 123.350776 
L 303.946217 126.725386 
L 306.883059 128.141245 
L 309.819901 129.86897 
L 312.756743 129.123742 
L 315.693586 132.018803 
L 318.630428 136.911037 
L 321.56727 137.551628 
L 324.504112 139.320567 
L 327.440954 140.789962 
L 330.377796 142.92697 
L 333.314638 143.683032 
L 336.25148 143.215969 
L 339.188322 141.432461 
L 342.125164 140.402482 
L 345.062007 140.347992 
L 347.998849 141.729745 
L 350.935691 140.44471 
L 353.872533 140.335875 
L 356.809375 141.14145 
L 359.746217 141.400082 
L 362.683059 139.311758 
L 365.619901 139.014907 
L 368.556743 138.283777 
L 371.493586 137.984968 
L 377.36727 138.421513 
L 380.304112 136.826539 
L 383.240954 135.777775 
L 386.177796 134.944511 
L 389.114638 132.991619 
L 392.05148 131.957268 
L 394.988322 131.611934 
L 400.862007 131.667346 
L 403.798849 132.01177 
L 406.735691 132.232362 
L 409.672533 132.581335 
L 412.609375 134.337055 
L 415.546217 135.705135 
L 424.356743 140.74779 
L 427.293586 142.211928 
L 430.230428 141.34867 
L 433.16727 143.178293 
L 436.104112 143.150354 
L 439.040954 143.8175 
L 441.977796 145.258429 
L 444.914638 146.126987 
L 447.85148 146.311582 
L 450.788322 147.116967 
L 453.725164 146.689527 
L 456.662007 147.174802 
L 459.598849 145.918524 
L 462.535691 146.185461 
L 465.472533 147.187828 
L 465.472533 147.187828 
" clip-path="url(#pf370a5d6f3)" style="fill: none; stroke: #ff7f0e; stroke-width: 2; stroke-linecap: square"/>
   </g>
   <g id="line2d_53">
    <path d="M 77.809375 128.078437 
L 468.409375 128.078437 
" clip-path="url(#pf370a5d6f3)" style="fill: none; stroke: #808080; stroke-opacity: 0.9; stroke-linecap: square"/>
   </g>
   <g id="line2d_54">
    <path d="M 80.746217 238.958437 
L 80.746217 17.198437 
" clip-path="url(#pf370a5d6f3)" style="fill: none; stroke-dasharray: 2.96,1.28; stroke-dashoffset: 0; stroke: #000000; stroke-opacity: 0.6; stroke-width: 0.8"/>
   </g>
   <g id="line2d_55">
    <path d="M 221.714638 238.958437 
L 221.714638 17.198437 
" clip-path="url(#pf370a5d6f3)" style="fill: none; stroke-dasharray: 2.96,1.28; stroke-dashoffset: 0; stroke: #000000; stroke-opacity: 0.6; stroke-width: 0.8"/>
   </g>
   <g id="line2d_56">
    <path d="M 433.16727 238.958437 
L 433.16727 17.198437 
" clip-path="url(#pf370a5d6f3)" style="fill: none; stroke-dasharray: 2.96,1.28; stroke-dashoffset: 0; stroke: #000000; stroke-opacity: 0.6; stroke-width: 0.8"/>
   </g>
   <g id="patch_3">
    <path d="M 77.809375 238.958437 
L 77.809375 17.198437 
" style="fill: none; stroke: #000000; stroke-width: 0.8; stroke-linejoin: miter; stroke-linecap: square"/>
   </g>
   <g id="patch_4">
    <path d="M 77.809375 238.958437 
L 468.409375 238.958437 
" style="fill: none; stroke: #000000; stroke-width: 0.8; stroke-linejoin: miter; stroke-linecap: square"/>
   </g>
   <g id="text_23">
    <!-- 2015: FSoS = 0.587 -->
    <g transform="translate(83.683059 33.605344) scale(0.07 -0.07)">
     <defs>
      <path id="DejaVuSerif-3a" d="M 666 325 
Q 666 500 786 622 
Q 906 744 1081 744 
Q 1256 744 1376 622 
Q 1497 500 1497 325 
Q 1497 150 1378 29 
Q 1259 -91 1081 -91 
Q 903 -91 784 29 
Q 666 150 666 325 
z
M 666 2363 
Q 666 2538 786 2658 
Q 906 2778 1081 2778 
Q 1259 2778 1378 2659 
Q 1497 2541 1497 2363 
Q 1497 2184 1378 2065 
Q 1259 1947 1081 1947 
Q 906 1947 786 2067 
Q 666 2188 666 2363 
z
" transform="scale(0.015625)"/>
      <path id="DejaVuSerif-53" d="M 594 225 
L 594 1288 
L 953 1284 
Q 969 753 1261 498 
Q 1553 244 2150 244 
Q 2706 244 2998 464 
Q 3291 684 3291 1106 
Q 3291 1444 3114 1625 
Q 2938 1806 2369 1978 
L 1753 2163 
Q 1084 2366 811 2669 
Q 538 2972 538 3500 
Q 538 4094 959 4422 
Q 1381 4750 2144 4750 
Q 2469 4750 2856 4679 
Q 3244 4609 3681 4475 
L 3681 3481 
L 3328 3481 
Q 3275 3975 2998 4195 
Q 2722 4416 2156 4416 
Q 1663 4416 1405 4214 
Q 1147 4013 1147 3628 
Q 1147 3294 1340 3103 
Q 1534 2913 2163 2725 
L 2741 2553 
Q 3375 2363 3645 2067 
Q 3916 1772 3916 1275 
Q 3916 597 3481 253 
Q 3047 -91 2188 -91 
Q 1803 -91 1404 -12 
Q 1006 66 594 225 
z
" transform="scale(0.015625)"/>
      <path id="DejaVuSerif-3d" d="M 678 2894 
L 4684 2894 
L 4684 2394 
L 678 2394 
L 678 2894 
z
M 678 1619 
L 4684 1619 
L 4684 1119 
L 678 1119 
L 678 1619 
z
" transform="scale(0.015625)"/>
     </defs>
     <use xlink:href="#DejaVuSerif-32"/>
     <use xlink:href="#DejaVuSerif-30" transform="translate(63.623047 0)"/>
     <use xlink:href="#DejaVuSerif-31" transform="translate(127.246094 0)"/>
     <use xlink:href="#DejaVuSerif-35" transform="translate(190.869141 0)"/>
     <use xlink:href="#DejaVuSerif-3a" transform="translate(254.492188 0)"/>
     <use xlink:href="#DejaVuSerif-20" transform="translate(288.183594 0)"/>
     <use xlink:href="#DejaVuSerif-46" transform="translate(319.970703 0)"/>
     <use xlink:href="#DejaVuSerif-53" transform="translate(389.355469 0)"/>
     <use xlink:href="#DejaVuSerif-6f" transform="translate(457.861328 0)"/>
     <use xlink:href="#DejaVuSerif-53" transform="translate(518.066406 0)"/>
     <use xlink:href="#DejaVuSerif-20" transform="translate(586.572266 0)"/>
     <use xlink:href="#DejaVuSerif-3d" transform="translate(618.359375 0)"/>
     <use xlink:href="#DejaVuSerif-20" transform="translate(702.148438 0)"/>
     <use xlink:href="#DejaVuSerif-30" transform="translate(733.935547 0)"/>
     <use xlink:href="#DejaVuSerif-2e" transform="translate(797.558594 0)"/>
     <use xlink:href="#DejaVuSerif-35" transform="translate(829.345703 0)"/>
     <use xlink:href="#DejaVuSerif-38" transform="translate(892.96875 0)"/>
     <use xlink:href="#DejaVuSerif-37" transform="translate(956.591797 0)"/>
    </g>
   </g>
   <g id="text_24">
    <!-- 2019: FSoS = 0.508 -->
    <g transform="translate(224.65148 33.605344) scale(0.07 -0.07)">
     <use xlink:href="#DejaVuSerif-32"/>
     <use xlink:href="#DejaVuSerif-30" transform="translate(63.623047 0)"/>
     <use xlink:href="#DejaVuSerif-31" transform="translate(127.246094 0)"/>
     <use xlink:href="#DejaVuSerif-39" transform="translate(190.869141 0)"/>
     <use xlink:href="#DejaVuSerif-3a" transform="translate(254.492188 0)"/>
     <use xlink:href="#DejaVuSerif-20" transform="translate(288.183594 0)"/>
     <use xlink:href="#DejaVuSerif-46" transform="translate(319.970703 0)"/>
     <use xlink:href="#DejaVuSerif-53" transform="translate(389.355469 0)"/>
     <use xlink:href="#DejaVuSerif-6f" transform="translate(457.861328 0)"/>
     <use xlink:href="#DejaVuSerif-53" transform="translate(518.066406 0)"/>
     <use xlink:href="#DejaVuSerif-20" transform="translate(586.572266 0)"/>
     <use xlink:href="#DejaVuSerif-3d" transform="translate(618.359375 0)"/>
     <use xlink:href="#DejaVuSerif-20" transform="translate(702.148438 0)"/>
     <use xlink:href="#DejaVuSerif-30" transform="translate(733.935547 0)"/>
     <use xlink:href="#DejaVuSerif-2e" transform="translate(797.558594 0)"/>
     <use xlink:href="#DejaVuSerif-35" transform="translate(829.345703 0)"/>
     <use xlink:href="#DejaVuSerif-30" transform="translate(892.96875 0)"/>
     <use xlink:href="#DejaVuSerif-38" transform="translate(956.591797 0)"/>
    </g>
   </g>
   <g id="text_25">
    <!-- 2025: FSoS = 0.466 -->
    <g transform="translate(436.104112 33.605344) scale(0.07 -0.07)">
     <use xlink:href="#DejaVuSerif-32"/>
     <use xlink:href="#DejaVuSerif-30" transform="translate(63.623047 0)"/>
     <use xlink:href="#DejaVuSerif-32" transform="translate(127.246094 0)"/>
     <use xlink:href="#DejaVuSerif-35" transform="translate(190.869141 0)"/>
     <use xlink:href="#DejaVuSerif-3a" transform="translate(254.492188 0)"/>
     <use xlink:href="#DejaVuSerif-20" transform="translate(288.183594 0)"/>
     <use xlink:href="#DejaVuSerif-46" transform="translate(319.970703 0)"/>
     <use xlink:href="#DejaVuSerif-53" transform="translate(389.355469 0)"/>
     <use xlink:href="#DejaVuSerif-6f" transform="translate(457.861328 0)"/>
     <use xlink:href="#DejaVuSerif-53" transform="translate(518.066406 0)"/>
     <use xlink:href="#DejaVuSerif-20" transform="translate(586.572266 0)"/>
     <use xlink:href="#DejaVuSerif-3d" transform="translate(618.359375 0)"/>
     <use xlink:href="#DejaVuSerif-20" transform="translate(702.148438 0)"/>
     <use xlink:href="#DejaVuSerif-30" transform="translate(733.935547 0)"/>
     <use xlink:href="#DejaVuSerif-2e" transform="translate(797.558594 0)"/>
     <use xlink:href="#DejaVuSerif-34" transform="translate(829.345703 0)"/>
     <use xlink:href="#DejaVuSerif-36" transform="translate(892.96875 0)"/>
     <use xlink:href="#DejaVuSerif-36" transform="translate(956.591797 0)"/>
    </g>
   </g>
   <g id="text_26">
    <!-- Figure 2. Female share of sexed Located-Alive registrations, monthly and 12-mo rolling mean, 2015-2025. -->
    <g transform="translate(3.6 11.198437) scale(0.1 -0.1)">
     <defs>
      <path id="DejaVuSerif-69" d="M 622 4353 
Q 622 4497 726 4603 
Q 831 4709 978 4709 
Q 1122 4709 1226 4603 
Q 1331 4497 1331 4353 
Q 1331 4206 1228 4103 
Q 1125 4000 978 4000 
Q 831 4000 726 4103 
Q 622 4206 622 4353 
z
M 1356 331 
L 1900 331 
L 1900 0 
L 231 0 
L 231 331 
L 781 331 
L 781 2988 
L 231 2988 
L 231 3322 
L 1356 3322 
L 1356 331 
z
" transform="scale(0.015625)"/>
      <path id="DejaVuSerif-67" d="M 3359 2988 
L 3359 72 
Q 3359 -644 2965 -1033 
Q 2572 -1422 1844 -1422 
Q 1516 -1422 1216 -1362 
Q 916 -1303 641 -1184 
L 641 -488 
L 941 -488 
Q 997 -813 1206 -963 
Q 1416 -1113 1806 -1113 
Q 2313 -1113 2548 -827 
Q 2784 -541 2784 72 
L 2784 519 
Q 2616 206 2355 57 
Q 2094 -91 1709 -91 
Q 1097 -91 708 395 
Q 319 881 319 1663 
Q 319 2444 706 2928 
Q 1094 3413 1709 3413 
Q 2094 3413 2355 3264 
Q 2616 3116 2784 2803 
L 2784 3322 
L 3909 3322 
L 3909 2988 
L 3359 2988 
z
M 2784 1825 
Q 2784 2422 2554 2737 
Q 2325 3053 1888 3053 
Q 1444 3053 1217 2703 
Q 991 2353 991 1663 
Q 991 975 1217 622 
Q 1444 269 1888 269 
Q 2325 269 2554 583 
Q 2784 897 2784 1497 
L 2784 1825 
z
" transform="scale(0.015625)"/>
      <path id="DejaVuSerif-75" d="M 2266 3322 
L 3341 3322 
L 3341 331 
L 3884 331 
L 3884 0 
L 2766 0 
L 2766 588 
Q 2606 256 2353 82 
Q 2100 -91 1766 -91 
Q 1213 -91 952 223 
Q 691 538 691 1209 
L 691 2988 
L 172 2988 
L 172 3322 
L 1269 3322 
L 1269 1388 
Q 1269 781 1417 556 
Q 1566 331 1947 331 
Q 2347 331 2556 625 
Q 2766 919 2766 1478 
L 2766 2988 
L 2266 2988 
L 2266 3322 
z
" transform="scale(0.015625)"/>
      <path id="DejaVuSerif-78" d="M 1863 2028 
L 2559 2988 
L 2113 2988 
L 2113 3322 
L 3391 3322 
L 3391 2988 
L 2950 2988 
L 2059 1759 
L 3097 331 
L 3531 331 
L 3531 0 
L 1997 0 
L 1997 331 
L 2419 331 
L 1697 1325 
L 972 331 
L 1403 331 
L 1403 0 
L 141 0 
L 141 331 
L 581 331 
L 1497 1594 
L 488 2988 
L 78 2988 
L 78 3322 
L 1563 3322 
L 1563 2988 
L 1166 2988 
L 1863 2028 
z
" transform="scale(0.015625)"/>
      <path id="DejaVuSerif-64" d="M 3359 331 
L 3909 331 
L 3909 0 
L 2784 0 
L 2784 519 
Q 2616 206 2355 57 
Q 2094 -91 1709 -91 
Q 1097 -91 708 395 
Q 319 881 319 1663 
Q 319 2444 706 2928 
Q 1094 3413 1709 3413 
Q 2094 3413 2355 3264 
Q 2616 3116 2784 2803 
L 2784 4531 
L 2241 4531 
L 2241 4863 
L 3359 4863 
L 3359 331 
z
M 2784 1497 
L 2784 1825 
Q 2784 2422 2554 2737 
Q 2325 3053 1888 3053 
Q 1444 3053 1217 2703 
Q 991 2353 991 1663 
Q 991 975 1217 622 
Q 1444 269 1888 269 
Q 2325 269 2554 583 
Q 2784 897 2784 1497 
z
" transform="scale(0.015625)"/>
      <path id="DejaVuSerif-4c" d="M 353 0 
L 353 331 
L 947 331 
L 947 4331 
L 353 4331 
L 353 4666 
L 2175 4666 
L 2175 4331 
L 1581 4331 
L 1581 384 
L 3713 384 
L 3713 1166 
L 4097 1166 
L 4097 0 
L 353 0 
z
" transform="scale(0.015625)"/>
      <path id="DejaVuSerif-63" d="M 3291 997 
Q 3169 466 2822 187 
Q 2475 -91 1925 -91 
Q 1200 -91 759 389 
Q 319 869 319 1663 
Q 319 2459 759 2936 
Q 1200 3413 1925 3413 
Q 2241 3413 2553 3339 
Q 2866 3266 3181 3116 
L 3181 2266 
L 2847 2266 
Q 2781 2703 2561 2903 
Q 2341 3103 1931 3103 
Q 1466 3103 1228 2742 
Q 991 2381 991 1663 
Q 991 944 1227 581 
Q 1463 219 1931 219 
Q 2303 219 2525 412 
Q 2747 606 2828 997 
L 3291 997 
z
" transform="scale(0.015625)"/>
      <path id="DejaVuSerif-2d" d="M 281 1959 
L 1881 1959 
L 1881 1472 
L 281 1472 
L 281 1959 
z
" transform="scale(0.015625)"/>
      <path id="DejaVuSerif-41" d="M 1281 1691 
L 2994 1691 
L 2138 3909 
L 1281 1691 
z
M -38 0 
L -38 331 
L 372 331 
L 2034 4666 
L 2559 4666 
L 4225 331 
L 4684 331 
L 4684 0 
L 2988 0 
L 2988 331 
L 3506 331 
L 3116 1356 
L 1153 1356 
L 763 331 
L 1275 331 
L 1275 0 
L -38 0 
z
" transform="scale(0.015625)"/>
      <path id="DejaVuSerif-76" d="M 1581 0 
L 359 2988 
L -19 2988 
L -19 3322 
L 1509 3322 
L 1509 2988 
L 978 2988 
L 1913 703 
L 2847 2988 
L 2350 2988 
L 2350 3322 
L 3597 3322 
L 3597 2988 
L 3225 2988 
L 2003 0 
L 1581 0 
z
" transform="scale(0.015625)"/>
      <path id="DejaVuSerif-2c" d="M 231 -622 
Q 525 -406 662 -114 
Q 800 178 800 594 
L 800 709 
L 1416 709 
Q 1391 175 1164 -208 
Q 938 -591 481 -872 
L 231 -622 
z
" transform="scale(0.015625)"/>
      <path id="DejaVuSerif-79" d="M 1381 -609 
L 1600 -56 
L 359 2988 
L -19 2988 
L -19 3322 
L 1509 3322 
L 1509 2988 
L 978 2988 
L 1913 703 
L 2847 2988 
L 2350 2988 
L 2350 3322 
L 3597 3322 
L 3597 2988 
L 3225 2988 
L 1703 -750 
Q 1547 -1138 1356 -1280 
Q 1166 -1422 819 -1422 
Q 672 -1422 517 -1397 
Q 363 -1372 206 -1325 
L 206 -691 
L 500 -691 
Q 519 -903 608 -995 
Q 697 -1088 884 -1088 
Q 1056 -1088 1161 -992 
Q 1266 -897 1381 -609 
z
" transform="scale(0.015625)"/>
     </defs>
     <use xlink:href="#DejaVuSerif-46"/>
     <use xlink:href="#DejaVuSerif-69" transform="translate(69.384766 0)"/>
     <use xlink:href="#DejaVuSerif-67" transform="translate(101.367188 0)"/>
     <use xlink:href="#DejaVuSerif-75" transform="translate(165.380859 0)"/>
     <use xlink:href="#DejaVuSerif-72" transform="translate(229.785156 0)"/>
     <use xlink:href="#DejaVuSerif-65" transform="translate(277.587891 0)"/>
     <use xlink:href="#DejaVuSerif-20" transform="translate(336.767578 0)"/>
     <use xlink:href="#DejaVuSerif-32" transform="translate(368.554688 0)"/>
     <use xlink:href="#DejaVuSerif-2e" transform="translate(432.177734 0)"/>
     <use xlink:href="#DejaVuSerif-20" transform="translate(463.964844 0)"/>
     <use xlink:href="#DejaVuSerif-46" transform="translate(495.751953 0)"/>
     <use xlink:href="#DejaVuSerif-65" transform="translate(559.636719 0)"/>
     <use xlink:href="#DejaVuSerif-6d" transform="translate(618.816406 0)"/>
     <use xlink:href="#DejaVuSerif-61" transform="translate(713.640625 0)"/>
     <use xlink:href="#DejaVuSerif-6c" transform="translate(773.259766 0)"/>
     <use xlink:href="#DejaVuSerif-65" transform="translate(805.242188 0)"/>
     <use xlink:href="#DejaVuSerif-20" transform="translate(864.421875 0)"/>
     <use xlink:href="#DejaVuSerif-73" transform="translate(896.208984 0)"/>
     <use xlink:href="#DejaVuSerif-68" transform="translate(947.527344 0)"/>
     <use xlink:href="#DejaVuSerif-61" transform="translate(1011.931641 0)"/>
     <use xlink:href="#DejaVuSerif-72" transform="translate(1071.550781 0)"/>
     <use xlink:href="#DejaVuSerif-65" transform="translate(1119.353516 0)"/>
     <use xlink:href="#DejaVuSerif-20" transform="translate(1178.533203 0)"/>
     <use xlink:href="#DejaVuSerif-6f" transform="translate(1210.320312 0)"/>
     <use xlink:href="#DejaVuSerif-66" transform="translate(1270.525391 0)"/>
     <use xlink:href="#DejaVuSerif-20" transform="translate(1307.537109 0)"/>
     <use xlink:href="#DejaVuSerif-73" transform="translate(1339.324219 0)"/>
     <use xlink:href="#DejaVuSerif-65" transform="translate(1390.642578 0)"/>
     <use xlink:href="#DejaVuSerif-78" transform="translate(1449.822266 0)"/>
     <use xlink:href="#DejaVuSerif-65" transform="translate(1506.21875 0)"/>
     <use xlink:href="#DejaVuSerif-64" transform="translate(1565.398438 0)"/>
     <use xlink:href="#DejaVuSerif-20" transform="translate(1629.412109 0)"/>
     <use xlink:href="#DejaVuSerif-4c" transform="translate(1661.199219 0)"/>
     <use xlink:href="#DejaVuSerif-6f" transform="translate(1727.605469 0)"/>
     <use xlink:href="#DejaVuSerif-63" transform="translate(1787.810547 0)"/>
     <use xlink:href="#DejaVuSerif-61" transform="translate(1843.816406 0)"/>
     <use xlink:href="#DejaVuSerif-74" transform="translate(1903.435547 0)"/>
     <use xlink:href="#DejaVuSerif-65" transform="translate(1943.621094 0)"/>
     <use xlink:href="#DejaVuSerif-64" transform="translate(2002.800781 0)"/>
     <use xlink:href="#DejaVuSerif-2d" transform="translate(2066.814453 0)"/>
     <use xlink:href="#DejaVuSerif-41" transform="translate(2100.603516 0)"/>
     <use xlink:href="#DejaVuSerif-6c" transform="translate(2172.820312 0)"/>
     <use xlink:href="#DejaVuSerif-69" transform="translate(2204.802734 0)"/>
     <use xlink:href="#DejaVuSerif-76" transform="translate(2236.785156 0)"/>
     <use xlink:href="#DejaVuSerif-65" transform="translate(2293.279297 0)"/>
     <use xlink:href="#DejaVuSerif-20" transform="translate(2352.458984 0)"/>
     <use xlink:href="#DejaVuSerif-72" transform="translate(2384.246094 0)"/>
     <use xlink:href="#DejaVuSerif-65" transform="translate(2432.048828 0)"/>
     <use xlink:href="#DejaVuSerif-67" transform="translate(2491.228516 0)"/>
     <use xlink:href="#DejaVuSerif-69" transform="translate(2555.242188 0)"/>
     <use xlink:href="#DejaVuSerif-73" transform="translate(2587.224609 0)"/>
     <use xlink:href="#DejaVuSerif-74" transform="translate(2638.542969 0)"/>
     <use xlink:href="#DejaVuSerif-72" transform="translate(2678.728516 0)"/>
     <use xlink:href="#DejaVuSerif-61" transform="translate(2726.53125 0)"/>
     <use xlink:href="#DejaVuSerif-74" transform="translate(2786.150391 0)"/>
     <use xlink:href="#DejaVuSerif-69" transform="translate(2826.335938 0)"/>
     <use xlink:href="#DejaVuSerif-6f" transform="translate(2858.318359 0)"/>
     <use xlink:href="#DejaVuSerif-6e" transform="translate(2918.523438 0)"/>
     <use xlink:href="#DejaVuSerif-73" transform="translate(2982.927734 0)"/>
     <use xlink:href="#DejaVuSerif-2c" transform="translate(3034.246094 0)"/>
     <use xlink:href="#DejaVuSerif-20" transform="translate(3066.033203 0)"/>
     <use xlink:href="#DejaVuSerif-6d" transform="translate(3097.820312 0)"/>
     <use xlink:href="#DejaVuSerif-6f" transform="translate(3192.644531 0)"/>
     <use xlink:href="#DejaVuSerif-6e" transform="translate(3252.849609 0)"/>
     <use xlink:href="#DejaVuSerif-74" transform="translate(3317.253906 0)"/>
     <use xlink:href="#DejaVuSerif-68" transform="translate(3357.439453 0)"/>
     <use xlink:href="#DejaVuSerif-6c" transform="translate(3421.84375 0)"/>
     <use xlink:href="#DejaVuSerif-79" transform="translate(3453.826172 0)"/>
     <use xlink:href="#DejaVuSerif-20" transform="translate(3510.320312 0)"/>
     <use xlink:href="#DejaVuSerif-61" transform="translate(3542.107422 0)"/>
     <use xlink:href="#DejaVuSerif-6e" transform="translate(3601.726562 0)"/>
     <use xlink:href="#DejaVuSerif-64" transform="translate(3666.130859 0)"/>
     <use xlink:href="#DejaVuSerif-20" transform="translate(3730.144531 0)"/>
     <use xlink:href="#DejaVuSerif-31" transform="translate(3761.931641 0)"/>
     <use xlink:href="#DejaVuSerif-32" transform="translate(3825.554688 0)"/>
     <use xlink:href="#DejaVuSerif-2d" transform="translate(3889.177734 0)"/>
     <use xlink:href="#DejaVuSerif-6d" transform="translate(3922.966797 0)"/>
     <use xlink:href="#DejaVuSerif-6f" transform="translate(4017.791016 0)"/>
     <use xlink:href="#DejaVuSerif-20" transform="translate(4077.996094 0)"/>
     <use xlink:href="#DejaVuSerif-72" transform="translate(4109.783203 0)"/>
     <use xlink:href="#DejaVuSerif-6f" transform="translate(4157.585938 0)"/>
     <use xlink:href="#DejaVuSerif-6c" transform="translate(4217.791016 0)"/>
     <use xlink:href="#DejaVuSerif-6c" transform="translate(4249.773438 0)"/>
     <use xlink:href="#DejaVuSerif-69" transform="translate(4281.755859 0)"/>
     <use xlink:href="#DejaVuSerif-6e" transform="translate(4313.738281 0)"/>
     <use xlink:href="#DejaVuSerif-67" transform="translate(4378.142578 0)"/>
     <use xlink:href="#DejaVuSerif-20" transform="translate(4442.15625 0)"/>
     <use xlink:href="#DejaVuSerif-6d" transform="translate(4473.943359 0)"/>
     <use xlink:href="#DejaVuSerif-65" transform="translate(4568.767578 0)"/>
     <use xlink:href="#DejaVuSerif-61" transform="translate(4627.947266 0)"/>
     <use xlink:href="#DejaVuSerif-6e" transform="translate(4687.566406 0)"/>
     <use xlink:href="#DejaVuSerif-2c" transform="translate(4751.970703 0)"/>
     <use xlink:href="#DejaVuSerif-20" transform="translate(4783.757812 0)"/>
     <use xlink:href="#DejaVuSerif-32" transform="translate(4815.544922 0)"/>
     <use xlink:href="#DejaVuSerif-30" transform="translate(4879.167969 0)"/>
     <use xlink:href="#DejaVuSerif-31" transform="translate(4942.791016 0)"/>
     <use xlink:href="#DejaVuSerif-35" transform="translate(5006.414062 0)"/>
     <use xlink:href="#DejaVuSerif-2d" transform="translate(5070.037109 0)"/>
     <use xlink:href="#DejaVuSerif-32" transform="translate(5103.826172 0)"/>
     <use xlink:href="#DejaVuSerif-30" transform="translate(5167.449219 0)"/>
     <use xlink:href="#DejaVuSerif-32" transform="translate(5231.072266 0)"/>
     <use xlink:href="#DejaVuSerif-35" transform="translate(5294.695312 0)"/>
     <use xlink:href="#DejaVuSerif-2e" transform="translate(5358.318359 0)"/>
    </g>
   </g>
   <g id="legend_1">
    <g id="line2d_57">
     <path d="M 85.009375 203.468437 
L 93.009375 203.468437 
L 101.009375 203.468437 
" style="fill: none; stroke: #ff7f0e; stroke-opacity: 0.55; stroke-width: 0.9; stroke-linecap: square"/>
    </g>
    <g id="text_27">
     <!-- Monthly FSoS -->
     <g transform="translate(107.409375 206.268437) scale(0.08 -0.08)">
      <use xlink:href="#DejaVuSerif-4d"/>
      <use xlink:href="#DejaVuSerif-6f" transform="translate(102.392578 0)"/>
      <use xlink:href="#DejaVuSerif-6e" transform="translate(162.597656 0)"/>
      <use xlink:href="#DejaVuSerif-74" transform="translate(227.001953 0)"/>
      <use xlink:href="#DejaVuSerif-68" transform="translate(267.1875 0)"/>
      <use xlink:href="#DejaVuSerif-6c" transform="translate(331.591797 0)"/>
      <use xlink:href="#DejaVuSerif-79" transform="translate(363.574219 0)"/>
      <use xlink:href="#DejaVuSerif-20" transform="translate(420.068359 0)"/>
      <use xlink:href="#DejaVuSerif-46" transform="translate(451.855469 0)"/>
      <use xlink:href="#DejaVuSerif-53" transform="translate(521.240234 0)"/>
      <use xlink:href="#DejaVuSerif-6f" transform="translate(589.746094 0)"/>
      <use xlink:href="#DejaVuSerif-53" transform="translate(649.951172 0)"/>
     </g>
    </g>
    <g id="line2d_58">
     <path d="M 85.009375 215.324687 
L 93.009375 215.324687 
L 101.009375 215.324687 
" style="fill: none; stroke: #ff7f0e; stroke-width: 2; stroke-linecap: square"/>
    </g>
    <g id="text_28">
     <!-- 12-month rolling mean -->
     <g transform="translate(107.409375 218.124687) scale(0.08 -0.08)">
      <use xlink:href="#DejaVuSerif-31"/>
      <use xlink:href="#DejaVuSerif-32" transform="translate(63.623047 0)"/>
      <use xlink:href="#DejaVuSerif-2d" transform="translate(127.246094 0)"/>
      <use xlink:href="#DejaVuSerif-6d" transform="translate(161.035156 0)"/>
      <use xlink:href="#DejaVuSerif-6f" transform="translate(255.859375 0)"/>
      <use xlink:href="#DejaVuSerif-6e" transform="translate(316.064453 0)"/>
      <use xlink:href="#DejaVuSerif-74" transform="translate(380.46875 0)"/>
      <use xlink:href="#DejaVuSerif-68" transform="translate(420.654297 0)"/>
      <use xlink:href="#DejaVuSerif-20" transform="translate(485.058594 0)"/>
      <use xlink:href="#DejaVuSerif-72" transform="translate(516.845703 0)"/>
      <use xlink:href="#DejaVuSerif-6f" transform="translate(564.648438 0)"/>
      <use xlink:href="#DejaVuSerif-6c" transform="translate(624.853516 0)"/>
      <use xlink:href="#DejaVuSerif-6c" transform="translate(656.835938 0)"/>
      <use xlink:href="#DejaVuSerif-69" transform="translate(688.818359 0)"/>
      <use xlink:href="#DejaVuSerif-6e" transform="translate(720.800781 0)"/>
      <use xlink:href="#DejaVuSerif-67" transform="translate(785.205078 0)"/>
      <use xlink:href="#DejaVuSerif-20" transform="translate(849.21875 0)"/>
      <use xlink:href="#DejaVuSerif-6d" transform="translate(881.005859 0)"/>
      <use xlink:href="#DejaVuSerif-65" transform="translate(975.830078 0)"/>
      <use xlink:href="#DejaVuSerif-61" transform="translate(1035.009766 0)"/>
      <use xlink:href="#DejaVuSerif-6e" transform="translate(1094.628906 0)"/>
     </g>
    </g>
    <g id="line2d_59">
     <path d="M 85.009375 227.180937 
L 93.009375 227.180937 
L 101.009375 227.180937 
" style="fill: none; stroke: #808080; stroke-opacity: 0.9; stroke-linecap: square"/>
    </g>
    <g id="text_29">
     <!-- Parity (0.50) -->
     <g transform="translate(107.409375 229.980937) scale(0.08 -0.08)">
      <defs>
       <path id="DejaVuSerif-50" d="M 1581 2375 
L 2406 2375 
Q 2872 2375 3115 2626 
Q 3359 2878 3359 3353 
Q 3359 3831 3115 4081 
Q 2872 4331 2406 4331 
L 1581 4331 
L 1581 2375 
z
M 353 0 
L 353 331 
L 947 331 
L 947 4331 
L 353 4331 
L 353 4666 
L 2559 4666 
Q 3259 4666 3668 4311 
Q 4078 3956 4078 3353 
Q 4078 2753 3668 2397 
Q 3259 2041 2559 2041 
L 1581 2041 
L 1581 331 
L 2303 331 
L 2303 0 
L 353 0 
z
" transform="scale(0.015625)"/>
      </defs>
      <use xlink:href="#DejaVuSerif-50"/>
      <use xlink:href="#DejaVuSerif-61" transform="translate(62.785156 0)"/>
      <use xlink:href="#DejaVuSerif-72" transform="translate(122.404297 0)"/>
      <use xlink:href="#DejaVuSerif-69" transform="translate(170.207031 0)"/>
      <use xlink:href="#DejaVuSerif-74" transform="translate(202.189453 0)"/>
      <use xlink:href="#DejaVuSerif-79" transform="translate(242.375 0)"/>
      <use xlink:href="#DejaVuSerif-20" transform="translate(298.869141 0)"/>
      <use xlink:href="#DejaVuSerif-28" transform="translate(330.65625 0)"/>
      <use xlink:href="#DejaVuSerif-30" transform="translate(369.669922 0)"/>
      <use xlink:href="#DejaVuSerif-2e" transform="translate(433.292969 0)"/>
      <use xlink:href="#DejaVuSerif-35" transform="translate(465.080078 0)"/>
      <use xlink:href="#DejaVuSerif-30" transform="translate(528.703125 0)"/>
      <use xlink:href="#DejaVuSerif-29" transform="translate(592.326172 0)"/>
     </g>
    </g>
   </g>
  </g>
 </g>
 <defs>
  <clipPath id="pf370a5d6f3">
   <rect x="77.809375" y="17.198437" width="390.6" height="221.76"/>
  </clipPath>
 </defs>
</svg>
