<?xml version="1.0" encoding="utf-8" standalone="no"?>
<!DOCTYPE svg PUBLIC "-//W3C//DTD SVG 1.1//EN"
  "http://www.w3.org/Graphics/SVG/1.1/DTD/svg11.dtd">
<svg xmlns:xlink="http://www.w3.org/1999/xlink" width="543.12125pt" height="308.48pt" viewBox="0 0 543.12125 308.48" xmlns="http://www.w3.org/2000/svg" version="1.1">
 <metadata>
  <rdf:RDF xmlns:dc="http://purl.org/dc/elements/1.1/" xmlns:cc="http://creativecommons.org/ns#" xmlns:rdf="http://www.w3.org/1999/02/22-rdf-syntax-ns#">
   <cc:Work>
    <dc:type rdf:resource="http://purl.org/dc/dcmitype/StillImage"/>
    <dc:date>2026-04-23T19:01:27.366901</dc:date>
    <dc:format>image/svg+xml</dc:format>
    <dc:creator>
     <cc:Agent>
      <dc:title>Matplotlib v3.10.8, https://matplotlib.org/</dc:title>
     </cc:Agent>
    </dc:creator>
   </cc:Work>
  </rdf:RDF>
 </metadata>
 <defs>
  <style type="text/css">*{stroke-linejoin: round; stroke-linecap: butt}</style>
 </defs>
 <g id="figure_1">
  <g id="patch_1">
   <path d="M 0 308.48 
L 543.12125 308.48 
L 543.12125 0 
L 0 0 
z
" style="fill: #ffffff"/>
  </g>
  <g id="axes_1">
   <g id="patch_2">
    <path d="M 30.96 205.2 
L 178.665882 205.2 
L 178.665882 41.04 
L 30.96 41.04 
z
" style="fill: #ffffff"/>
   </g>
   <g id="patch_3">
    <path d="M 30.96 114.829091 
L 31.196645 114.829091 
L 31.196645 48.501818 
L 30.96 48.501818 
z
" clip-path="url(#p831af192c6)" style="fill: #440154; stroke: #ffffff; stroke-width: 0.5; stroke-linejoin: miter"/>
   </g>
   <g id="patch_4">
    <path d="M 31.196645 114.829091 
L 36.323952 114.829091 
L 36.323952 48.501818 
L 31.196645 48.501818 
z
" clip-path="url(#p831af192c6)" style="fill: #443983; stroke: #ffffff; stroke-width: 0.5; stroke-linejoin: miter"/>
   </g>
   <g id="patch_5">
    <path d="M 36.323952 114.829091 
L 54.387849 114.829091 
L 54.387849 48.501818 
L 36.323952 48.501818 
z
" clip-path="url(#p831af192c6)" style="fill: #31688e; stroke: #ffffff; stroke-width: 0.5; stroke-linejoin: miter"/>
   </g>
   <g id="patch_6">
    <path d="M 54.387849 114.829091 
L 81.75978 114.829091 
L 81.75978 48.501818 
L 54.387849 48.501818 
z
" clip-path="url(#p831af192c6)" style="fill: #21918c; stroke: #ffffff; stroke-width: 0.5; stroke-linejoin: miter"/>
   </g>
   <g id="patch_7">
    <path d="M 81.75978 114.829091 
L 129.995907 114.829091 
L 129.995907 48.501818 
L 81.75978 48.501818 
z
" clip-path="url(#p831af192c6)" style="fill: #35b779; stroke: #ffffff; stroke-width: 0.5; stroke-linejoin: miter"/>
   </g>
   <g id="patch_8">
    <path d="M 129.995907 114.829091 
L 159.655406 114.829091 
L 159.655406 48.501818 
L 129.995907 48.501818 
z
" clip-path="url(#p831af192c6)" style="fill: #90d743; stroke: #ffffff; stroke-width: 0.5; stroke-linejoin: miter"/>
   </g>
   <g id="patch_9">
    <path d="M 159.655406 114.829091 
L 178.665882 114.829091 
L 178.665882 48.501818 
L 159.655406 48.501818 
z
" clip-path="url(#p831af192c6)" style="fill: #fde725; stroke: #ffffff; stroke-width: 0.5; stroke-linejoin: miter"/>
   </g>
   <g id="patch_10">
    <path d="M 30.96 197.738182 
L 31.345892 197.738182 
L 31.345892 131.410909 
L 30.96 131.410909 
z
" clip-path="url(#p831af192c6)" style="fill: #440154; stroke: #ffffff; stroke-width: 0.5; stroke-linejoin: miter"/>
   </g>
   <g id="patch_11">
    <path d="M 31.345892 197.738182 
L 35.885799 197.738182 
L 35.885799 131.410909 
L 31.345892 131.410909 
z
" clip-path="url(#p831af192c6)" style="fill: #443983; stroke: #ffffff; stroke-width: 0.5; stroke-linejoin: miter"/>
   </g>
   <g id="patch_12">
    <path d="M 35.885799 197.738182 
L 52.263515 197.738182 
L 52.263515 131.410909 
L 35.885799 131.410909 
z
" clip-path="url(#p831af192c6)" style="fill: #31688e; stroke: #ffffff; stroke-width: 0.5; stroke-linejoin: miter"/>
   </g>
   <g id="patch_13">
    <path d="M 52.263515 197.738182 
L 76.109378 197.738182 
L 76.109378 131.410909 
L 52.263515 131.410909 
z
" clip-path="url(#p831af192c6)" style="fill: #21918c; stroke: #ffffff; stroke-width: 0.5; stroke-linejoin: miter"/>
   </g>
   <g id="patch_14">
    <path d="M 76.109378 197.738182 
L 115.924364 197.738182 
L 115.924364 131.410909 
L 76.109378 131.410909 
z
" clip-path="url(#p831af192c6)" style="fill: #35b779; stroke: #ffffff; stroke-width: 0.5; stroke-linejoin: miter"/>
   </g>
   <g id="patch_15">
    <path d="M 115.924364 197.738182 
L 149.088387 197.738182 
L 149.088387 131.410909 
L 115.924364 131.410909 
z
" clip-path="url(#p831af192c6)" style="fill: #90d743; stroke: #ffffff; stroke-width: 0.5; stroke-linejoin: miter"/>
   </g>
   <g id="patch_16">
    <path d="M 149.088387 197.738182 
L 178.665882 197.738182 
L 178.665882 131.410909 
L 149.088387 131.410909 
z
" clip-path="url(#p831af192c6)" style="fill: #fde725; stroke: #ffffff; stroke-width: 0.5; stroke-linejoin: miter"/>
   </g>
   <g id="matplotlib.axis_1">
    <g id="xtick_1">
     <g id="line2d_1">
      <path d="M 30.96 205.2 
L 30.96 41.04 
" clip-path="url(#p831af192c6)" style="fill: none; stroke-dasharray: 2.96,1.28; stroke-dashoffset: 0; stroke: #b0b0b0; stroke-opacity: 0.3; stroke-width: 0.8"/>
     </g>
     <g id="line2d_2">
      <defs>
       <path id="m96d7a3dec4" d="M 0 0 
L 0 3.5 
" style="stroke: #000000; stroke-width: 0.8"/>
      </defs>
      <g>
       <use xlink:href="#m96d7a3dec4" x="30.96" y="205.2" style="stroke: #000000; stroke-width: 0.8"/>
      </g>
     </g>
     <g id="text_1">
      <!-- 0.0 -->
      <g transform="translate(24.59875 218.27875) scale(0.08 -0.08)">
       <defs>
        <path id="DejaVuSerif-30" d="M 2034 219 
Q 2513 219 2750 744 
Q 2988 1269 2988 2328 
Q 2988 3391 2750 3916 
Q 2513 4441 2034 4441 
Q 1556 4441 1318 3916 
Q 1081 3391 1081 2328 
Q 1081 1269 1318 744 
Q 1556 219 2034 219 
z
M 2034 -91 
Q 1275 -91 848 546 
Q 422 1184 422 2328 
Q 422 3475 848 4112 
Q 1275 4750 2034 4750 
Q 2797 4750 3222 4112 
Q 3647 3475 3647 2328 
Q 3647 1184 3222 546 
Q 2797 -91 2034 -91 
z
" transform="scale(0.015625)"/>
        <path id="DejaVuSerif-2e" d="M 603 325 
Q 603 500 722 622 
Q 841 744 1019 744 
Q 1191 744 1312 622 
Q 1434 500 1434 325 
Q 1434 153 1312 31 
Q 1191 -91 1019 -91 
Q 841 -91 722 29 
Q 603 150 603 325 
z
" transform="scale(0.015625)"/>
       </defs>
       <use xlink:href="#DejaVuSerif-30"/>
       <use xlink:href="#DejaVuSerif-2e" transform="translate(63.623047 0)"/>
       <use xlink:href="#DejaVuSerif-30" transform="translate(95.410156 0)"/>
      </g>
     </g>
    </g>
    <g id="xtick_2">
     <g id="line2d_3">
      <path d="M 60.501176 205.2 
L 60.501176 41.04 
" clip-path="url(#p831af192c6)" style="fill: none; stroke-dasharray: 2.96,1.28; stroke-dashoffset: 0; stroke: #b0b0b0; stroke-opacity: 0.3; stroke-width: 0.8"/>
     </g>
     <g id="line2d_4">
      <g>
       <use xlink:href="#m96d7a3dec4" x="60.501176" y="205.2" style="stroke: #000000; stroke-width: 0.8"/>
      </g>
     </g>
     <g id="text_2">
      <!-- 0.2 -->
      <g transform="translate(54.139926 218.27875) scale(0.08 -0.08)">
       <defs>
        <path id="DejaVuSerif-32" d="M 819 3553 
L 469 3553 
L 469 4384 
Q 803 4563 1142 4656 
Q 1481 4750 1806 4750 
Q 2534 4750 2956 4397 
Q 3378 4044 3378 3438 
Q 3378 2753 2422 1800 
Q 2347 1728 2309 1691 
L 1131 513 
L 3078 513 
L 3078 1088 
L 3444 1088 
L 3444 0 
L 434 0 
L 434 341 
L 1850 1753 
Q 2319 2222 2519 2614 
Q 2719 3006 2719 3438 
Q 2719 3909 2473 4175 
Q 2228 4441 1797 4441 
Q 1350 4441 1106 4219 
Q 863 3997 819 3553 
z
" transform="scale(0.015625)"/>
       </defs>
       <use xlink:href="#DejaVuSerif-30"/>
       <use xlink:href="#DejaVuSerif-2e" transform="translate(63.623047 0)"/>
       <use xlink:href="#DejaVuSerif-32" transform="translate(95.410156 0)"/>
      </g>
     </g>
    </g>
    <g id="xtick_3">
     <g id="line2d_5">
      <path d="M 90.042353 205.2 
L 90.042353 41.04 
" clip-path="url(#p831af192c6)" style="fill: none; stroke-dasharray: 2.96,1.28; stroke-dashoffset: 0; stroke: #b0b0b0; stroke-opacity: 0.3; stroke-width: 0.8"/>
     </g>
     <g id="line2d_6">
      <g>
       <use xlink:href="#m96d7a3dec4" x="90.042353" y="205.2" style="stroke: #000000; stroke-width: 0.8"/>
      </g>
     </g>
     <g id="text_3">
      <!-- 0.4 -->
      <g transform="translate(83.681103 218.27875) scale(0.08 -0.08)">
       <defs>
        <path id="DejaVuSerif-34" d="M 2234 1581 
L 2234 4063 
L 641 1581 
L 2234 1581 
z
M 3609 0 
L 1484 0 
L 1484 331 
L 2234 331 
L 2234 1247 
L 197 1247 
L 197 1588 
L 2241 4750 
L 2859 4750 
L 2859 1581 
L 3750 1581 
L 3750 1247 
L 2859 1247 
L 2859 331 
L 3609 331 
L 3609 0 
z
" transform="scale(0.015625)"/>
       </defs>
       <use xlink:href="#DejaVuSerif-30"/>
       <use xlink:href="#DejaVuSerif-2e" transform="translate(63.623047 0)"/>
       <use xlink:href="#DejaVuSerif-34" transform="translate(95.410156 0)"/>
      </g>
     </g>
    </g>
    <g id="xtick_4">
     <g id="line2d_7">
      <path d="M 119.583529 205.2 
L 119.583529 41.04 
" clip-path="url(#p831af192c6)" style="fill: none; stroke-dasharray: 2.96,1.28; stroke-dashoffset: 0; stroke: #b0b0b0; stroke-opacity: 0.3; stroke-width: 0.8"/>
     </g>
     <g id="line2d_8">
      <g>
       <use xlink:href="#m96d7a3dec4" x="119.583529" y="205.2" style="stroke: #000000; stroke-width: 0.8"/>
      </g>
     </g>
     <g id="text_4">
      <!-- 0.6 -->
      <g transform="translate(113.222279 218.27875) scale(0.08 -0.08)">
       <defs>
        <path id="DejaVuSerif-36" d="M 2094 219 
Q 2534 219 2771 542 
Q 3009 866 3009 1472 
Q 3009 2078 2771 2401 
Q 2534 2725 2094 2725 
Q 1647 2725 1412 2412 
Q 1178 2100 1178 1509 
Q 1178 888 1415 553 
Q 1653 219 2094 219 
z
M 1075 2569 
Q 1288 2803 1556 2918 
Q 1825 3034 2163 3034 
Q 2859 3034 3264 2615 
Q 3669 2197 3669 1472 
Q 3669 763 3233 336 
Q 2797 -91 2069 -91 
Q 1278 -91 853 498 
Q 428 1088 428 2181 
Q 428 3406 931 4078 
Q 1434 4750 2350 4750 
Q 2597 4750 2869 4703 
Q 3141 4656 3425 4563 
L 3425 3794 
L 3072 3794 
Q 3034 4109 2831 4275 
Q 2628 4441 2284 4441 
Q 1678 4441 1381 3981 
Q 1084 3522 1075 2569 
z
" transform="scale(0.015625)"/>
       </defs>
       <use xlink:href="#DejaVuSerif-30"/>
       <use xlink:href="#DejaVuSerif-2e" transform="translate(63.623047 0)"/>
       <use xlink:href="#DejaVuSerif-36" transform="translate(95.410156 0)"/>
      </g>
     </g>
    </g>
    <g id="xtick_5">
     <g id="line2d_9">
      <path d="M 149.124706 205.2 
L 149.124706 41.04 
" clip-path="url(#p831af192c6)" style="fill: none; stroke-dasharray: 2.96,1.28; stroke-dashoffset: 0; stroke: #b0b0b0; stroke-opacity: 0.3; stroke-width: 0.8"/>
     </g>
     <g id="line2d_10">
      <g>
       <use xlink:href="#m96d7a3dec4" x="149.124706" y="205.2" style="stroke: #000000; stroke-width: 0.8"/>
      </g>
     </g>
     <g id="text_5">
      <!-- 0.8 -->
      <g transform="translate(142.763456 218.27875) scale(0.08 -0.08)">
       <defs>
        <path id="DejaVuSerif-38" d="M 2981 1275 
Q 2981 1775 2732 2051 
Q 2484 2328 2034 2328 
Q 1584 2328 1336 2051 
Q 1088 1775 1088 1275 
Q 1088 772 1336 495 
Q 1584 219 2034 219 
Q 2484 219 2732 495 
Q 2981 772 2981 1275 
z
M 2853 3541 
Q 2853 3966 2637 4203 
Q 2422 4441 2034 4441 
Q 1650 4441 1433 4203 
Q 1216 3966 1216 3541 
Q 1216 3113 1433 2875 
Q 1650 2638 2034 2638 
Q 2422 2638 2637 2875 
Q 2853 3113 2853 3541 
z
M 2516 2484 
Q 3047 2413 3344 2092 
Q 3641 1772 3641 1275 
Q 3641 619 3225 264 
Q 2809 -91 2034 -91 
Q 1263 -91 845 264 
Q 428 619 428 1275 
Q 428 1772 725 2092 
Q 1022 2413 1556 2484 
Q 1084 2569 832 2842 
Q 581 3116 581 3541 
Q 581 4103 968 4426 
Q 1356 4750 2034 4750 
Q 2713 4750 3100 4426 
Q 3488 4103 3488 3541 
Q 3488 3116 3236 2842 
Q 2984 2569 2516 2484 
z
" transform="scale(0.015625)"/>
       </defs>
       <use xlink:href="#DejaVuSerif-30"/>
       <use xlink:href="#DejaVuSerif-2e" transform="translate(63.623047 0)"/>
       <use xlink:href="#DejaVuSerif-38" transform="translate(95.410156 0)"/>
      </g>
     </g>
    </g>
    <g id="xtick_6">
     <g id="line2d_11">
      <path d="M 178.665882 205.2 
L 178.665882 41.04 
" clip-path="url(#p831af192c6)" style="fill: none; stroke-dasharray: 2.96,1.28; stroke-dashoffset: 0; stroke: #b0b0b0; stroke-opacity: 0.3; stroke-width: 0.8"/>
     </g>
     <g id="line2d_12">
      <g>
       <use xlink:href="#m96d7a3dec4" x="178.665882" y="205.2" style="stroke: #000000; stroke-width: 0.8"/>
      </g>
     </g>
     <g id="text_6">
      <!-- 1.0 -->
      <g transform="translate(172.304632 218.27875) scale(0.08 -0.08)">
       <defs>
        <path id="DejaVuSerif-31" d="M 909 0 
L 909 331 
L 1722 331 
L 1722 4213 
L 781 3603 
L 781 4013 
L 1919 4750 
L 2350 4750 
L 2350 331 
L 3163 331 
L 3163 0 
L 909 0 
z
" transform="scale(0.015625)"/>
       </defs>
       <use xlink:href="#DejaVuSerif-31"/>
       <use xlink:href="#DejaVuSerif-2e" transform="translate(63.623047 0)"/>
       <use xlink:href="#DejaVuSerif-30" transform="translate(95.410156 0)"/>
      </g>
     </g>
    </g>
    <g id="text_7">
     <!-- Share of registrations -->
     <g transform="translate(54.849582 230.781094) scale(0.09 -0.09)">
      <defs>
       <path id="DejaVuSerif-53" d="M 594 225 
L 594 1288 
L 953 1284 
Q 969 753 1261 498 
Q 1553 244 2150 244 
Q 2706 244 2998 464 
Q 3291 684 3291 1106 
Q 3291 1444 3114 1625 
Q 2938 1806 2369 1978 
L 1753 2163 
Q 1084 2366 811 2669 
Q 538 2972 538 3500 
Q 538 4094 959 4422 
Q 1381 4750 2144 4750 
Q 2469 4750 2856 4679 
Q 3244 4609 3681 4475 
L 3681 3481 
L 3328 3481 
Q 3275 3975 2998 4195 
Q 2722 4416 2156 4416 
Q 1663 4416 1405 4214 
Q 1147 4013 1147 3628 
Q 1147 3294 1340 3103 
Q 1534 2913 2163 2725 
L 2741 2553 
Q 3375 2363 3645 2067 
Q 3916 1772 3916 1275 
Q 3916 597 3481 253 
Q 3047 -91 2188 -91 
Q 1803 -91 1404 -12 
Q 1006 66 594 225 
z
" transform="scale(0.015625)"/>
       <path id="DejaVuSerif-68" d="M 263 0 
L 263 331 
L 781 331 
L 781 4531 
L 231 4531 
L 231 4863 
L 1356 4863 
L 1356 2731 
Q 1516 3069 1770 3241 
Q 2025 3413 2363 3413 
Q 2913 3413 3172 3097 
Q 3431 2781 3431 2113 
L 3431 331 
L 3944 331 
L 3944 0 
L 2356 0 
L 2356 331 
L 2853 331 
L 2853 1931 
Q 2853 2541 2704 2764 
Q 2556 2988 2175 2988 
Q 1775 2988 1565 2697 
Q 1356 2406 1356 1850 
L 1356 331 
L 1856 331 
L 1856 0 
L 263 0 
z
" transform="scale(0.015625)"/>
       <path id="DejaVuSerif-61" d="M 2547 1044 
L 2547 1747 
L 1806 1747 
Q 1378 1747 1168 1562 
Q 959 1378 959 997 
Q 959 650 1171 447 
Q 1384 244 1747 244 
Q 2106 244 2326 466 
Q 2547 688 2547 1044 
z
M 3122 2075 
L 3122 331 
L 3634 331 
L 3634 0 
L 2547 0 
L 2547 359 
Q 2356 128 2106 18 
Q 1856 -91 1522 -91 
Q 969 -91 644 203 
Q 319 497 319 997 
Q 319 1513 691 1797 
Q 1063 2081 1741 2081 
L 2547 2081 
L 2547 2309 
Q 2547 2688 2317 2895 
Q 2088 3103 1672 3103 
Q 1328 3103 1125 2947 
Q 922 2791 872 2484 
L 575 2484 
L 575 3156 
Q 875 3284 1158 3348 
Q 1441 3413 1709 3413 
Q 2400 3413 2761 3070 
Q 3122 2728 3122 2075 
z
" transform="scale(0.015625)"/>
       <path id="DejaVuSerif-72" d="M 3059 3328 
L 3059 2497 
L 2728 2497 
Q 2713 2744 2591 2866 
Q 2469 2988 2234 2988 
Q 1809 2988 1582 2694 
Q 1356 2400 1356 1850 
L 1356 331 
L 2022 331 
L 2022 0 
L 263 0 
L 263 331 
L 781 331 
L 781 2994 
L 231 2994 
L 231 3322 
L 1356 3322 
L 1356 2731 
Q 1525 3078 1790 3245 
Q 2056 3413 2438 3413 
Q 2578 3413 2733 3391 
Q 2888 3369 3059 3328 
z
" transform="scale(0.015625)"/>
       <path id="DejaVuSerif-65" d="M 3469 1600 
L 991 1600 
L 991 1575 
Q 991 903 1244 561 
Q 1497 219 1991 219 
Q 2369 219 2611 417 
Q 2853 616 2950 1006 
L 3413 1006 
Q 3275 459 2904 184 
Q 2534 -91 1931 -91 
Q 1203 -91 761 389 
Q 319 869 319 1663 
Q 319 2450 753 2931 
Q 1188 3413 1894 3413 
Q 2647 3413 3050 2948 
Q 3453 2484 3469 1600 
z
M 2791 1931 
Q 2772 2513 2545 2808 
Q 2319 3103 1894 3103 
Q 1497 3103 1269 2806 
Q 1041 2509 991 1931 
L 2791 1931 
z
" transform="scale(0.015625)"/>
       <path id="DejaVuSerif-20" transform="scale(0.015625)"/>
       <path id="DejaVuSerif-6f" d="M 1925 219 
Q 2388 219 2623 584 
Q 2859 950 2859 1663 
Q 2859 2375 2623 2739 
Q 2388 3103 1925 3103 
Q 1463 3103 1227 2739 
Q 991 2375 991 1663 
Q 991 950 1228 584 
Q 1466 219 1925 219 
z
M 1925 -91 
Q 1200 -91 759 389 
Q 319 869 319 1663 
Q 319 2456 758 2934 
Q 1197 3413 1925 3413 
Q 2653 3413 3092 2934 
Q 3531 2456 3531 1663 
Q 3531 869 3092 389 
Q 2653 -91 1925 -91 
z
" transform="scale(0.015625)"/>
       <path id="DejaVuSerif-66" d="M 2753 4078 
L 2450 4078 
Q 2447 4313 2317 4434 
Q 2188 4556 1941 4556 
Q 1619 4556 1487 4379 
Q 1356 4203 1356 3750 
L 1356 3322 
L 2284 3322 
L 2284 2988 
L 1356 2988 
L 1356 331 
L 2094 331 
L 2094 0 
L 231 0 
L 231 331 
L 781 331 
L 781 2988 
L 231 2988 
L 231 3322 
L 781 3322 
L 781 3738 
Q 781 4294 1070 4578 
Q 1359 4863 1919 4863 
Q 2128 4863 2337 4825 
Q 2547 4788 2753 4709 
L 2753 4078 
z
" transform="scale(0.015625)"/>
       <path id="DejaVuSerif-67" d="M 3359 2988 
L 3359 72 
Q 3359 -644 2965 -1033 
Q 2572 -1422 1844 -1422 
Q 1516 -1422 1216 -1362 
Q 916 -1303 641 -1184 
L 641 -488 
L 941 -488 
Q 997 -813 1206 -963 
Q 1416 -1113 1806 -1113 
Q 2313 -1113 2548 -827 
Q 2784 -541 2784 72 
L 2784 519 
Q 2616 206 2355 57 
Q 2094 -91 1709 -91 
Q 1097 -91 708 395 
Q 319 881 319 1663 
Q 319 2444 706 2928 
Q 1094 3413 1709 3413 
Q 2094 3413 2355 3264 
Q 2616 3116 2784 2803 
L 2784 3322 
L 3909 3322 
L 3909 2988 
L 3359 2988 
z
M 2784 1825 
Q 2784 2422 2554 2737 
Q 2325 3053 1888 3053 
Q 1444 3053 1217 2703 
Q 991 2353 991 1663 
Q 991 975 1217 622 
Q 1444 269 1888 269 
Q 2325 269 2554 583 
Q 2784 897 2784 1497 
L 2784 1825 
z
" transform="scale(0.015625)"/>
       <path id="DejaVuSerif-69" d="M 622 4353 
Q 622 4497 726 4603 
Q 831 4709 978 4709 
Q 1122 4709 1226 4603 
Q 1331 4497 1331 4353 
Q 1331 4206 1228 4103 
Q 1125 4000 978 4000 
Q 831 4000 726 4103 
Q 622 4206 622 4353 
z
M 1356 331 
L 1900 331 
L 1900 0 
L 231 0 
L 231 331 
L 781 331 
L 781 2988 
L 231 2988 
L 231 3322 
L 1356 3322 
L 1356 331 
z
" transform="scale(0.015625)"/>
       <path id="DejaVuSerif-73" d="M 359 184 
L 359 959 
L 691 959 
Q 703 588 923 403 
Q 1144 219 1575 219 
Q 1963 219 2166 364 
Q 2369 509 2369 788 
Q 2369 1006 2220 1140 
Q 2072 1275 1594 1428 
L 1178 1569 
Q 750 1706 558 1912 
Q 366 2119 366 2438 
Q 366 2894 700 3153 
Q 1034 3413 1625 3413 
Q 1888 3413 2178 3344 
Q 2469 3275 2778 3144 
L 2778 2419 
L 2447 2419 
Q 2434 2741 2221 2922 
Q 2009 3103 1644 3103 
Q 1281 3103 1095 2975 
Q 909 2847 909 2591 
Q 909 2381 1050 2254 
Q 1191 2128 1613 1997 
L 2069 1856 
Q 2541 1709 2748 1489 
Q 2956 1269 2956 922 
Q 2956 450 2595 179 
Q 2234 -91 1600 -91 
Q 1278 -91 972 -22 
Q 666 47 359 184 
z
" transform="scale(0.015625)"/>
       <path id="DejaVuSerif-74" d="M 691 2988 
L 184 2988 
L 184 3322 
L 691 3322 
L 691 4353 
L 1269 4353 
L 1269 3322 
L 2350 3322 
L 2350 2988 
L 1269 2988 
L 1269 878 
Q 1269 456 1350 337 
Q 1431 219 1650 219 
Q 1875 219 1978 351 
Q 2081 484 2088 781 
L 2522 781 
Q 2497 328 2275 118 
Q 2053 -91 1600 -91 
Q 1103 -91 897 129 
Q 691 350 691 878 
L 691 2988 
z
" transform="scale(0.015625)"/>
       <path id="DejaVuSerif-6e" d="M 263 0 
L 263 331 
L 781 331 
L 781 2988 
L 231 2988 
L 231 3322 
L 1356 3322 
L 1356 2731 
Q 1516 3069 1770 3241 
Q 2025 3413 2363 3413 
Q 2913 3413 3172 3097 
Q 3431 2781 3431 2113 
L 3431 331 
L 3944 331 
L 3944 0 
L 2356 0 
L 2356 331 
L 2853 331 
L 2853 1931 
Q 2853 2541 2703 2767 
Q 2553 2994 2175 2994 
Q 1775 2994 1565 2701 
Q 1356 2409 1356 1850 
L 1356 331 
L 1856 331 
L 1856 0 
L 263 0 
z
" transform="scale(0.015625)"/>
      </defs>
      <use xlink:href="#DejaVuSerif-53"/>
      <use xlink:href="#DejaVuSerif-68" transform="translate(68.505859 0)"/>
      <use xlink:href="#DejaVuSerif-61" transform="translate(132.910156 0)"/>
      <use xlink:href="#DejaVuSerif-72" transform="translate(192.529297 0)"/>
      <use xlink:href="#DejaVuSerif-65" transform="translate(240.332031 0)"/>
      <use xlink:href="#DejaVuSerif-20" transform="translate(299.511719 0)"/>
      <use xlink:href="#DejaVuSerif-6f" transform="translate(331.298828 0)"/>
      <use xlink:href="#DejaVuSerif-66" transform="translate(391.503906 0)"/>
      <use xlink:href="#DejaVuSerif-20" transform="translate(428.515625 0)"/>
      <use xlink:href="#DejaVuSerif-72" transform="translate(460.302734 0)"/>
      <use xlink:href="#DejaVuSerif-65" transform="translate(508.105469 0)"/>
      <use xlink:href="#DejaVuSerif-67" transform="translate(567.285156 0)"/>
      <use xlink:href="#DejaVuSerif-69" transform="translate(631.298828 0)"/>
      <use xlink:href="#DejaVuSerif-73" transform="translate(663.28125 0)"/>
      <use xlink:href="#DejaVuSerif-74" transform="translate(714.599609 0)"/>
      <use xlink:href="#DejaVuSerif-72" transform="translate(754.785156 0)"/>
      <use xlink:href="#DejaVuSerif-61" transform="translate(802.587891 0)"/>
      <use xlink:href="#DejaVuSerif-74" transform="translate(862.207031 0)"/>
      <use xlink:href="#DejaVuSerif-69" transform="translate(902.392578 0)"/>
      <use xlink:href="#DejaVuSerif-6f" transform="translate(934.375 0)"/>
      <use xlink:href="#DejaVuSerif-6e" transform="translate(994.580078 0)"/>
      <use xlink:href="#DejaVuSerif-73" transform="translate(1058.984375 0)"/>
     </g>
    </g>
   </g>
   <g id="matplotlib.axis_2">
    <g id="ytick_1">
     <g id="line2d_13">
      <defs>
       <path id="m01f64bbb39" d="M 0 0 
L -3.5 0 
" style="stroke: #000000; stroke-width: 0.8"/>
      </defs>
      <g>
       <use xlink:href="#m01f64bbb39" x="30.96" y="81.665455" style="stroke: #000000; stroke-width: 0.8"/>
      </g>
     </g>
     <g id="text_8">
      <!-- 2015 -->
      <g transform="translate(3.6 84.70483) scale(0.08 -0.08)">
       <defs>
        <path id="DejaVuSerif-35" d="M 3219 4666 
L 3219 4153 
L 1081 4153 
L 1081 2816 
Q 1244 2928 1461 2984 
Q 1678 3041 1947 3041 
Q 2703 3041 3140 2622 
Q 3578 2203 3578 1478 
Q 3578 738 3136 323 
Q 2694 -91 1894 -91 
Q 1572 -91 1234 -12 
Q 897 66 544 225 
L 544 1131 
L 897 1131 
Q 925 688 1179 453 
Q 1434 219 1894 219 
Q 2388 219 2653 544 
Q 2919 869 2919 1478 
Q 2919 2084 2655 2407 
Q 2391 2731 1894 2731 
Q 1613 2731 1398 2631 
Q 1184 2531 1019 2322 
L 750 2322 
L 750 4666 
L 3219 4666 
z
" transform="scale(0.015625)"/>
       </defs>
       <use xlink:href="#DejaVuSerif-32"/>
       <use xlink:href="#DejaVuSerif-30" transform="translate(63.623047 0)"/>
       <use xlink:href="#DejaVuSerif-31" transform="translate(127.246094 0)"/>
       <use xlink:href="#DejaVuSerif-35" transform="translate(190.869141 0)"/>
      </g>
     </g>
    </g>
    <g id="ytick_2">
     <g id="line2d_14">
      <g>
       <use xlink:href="#m01f64bbb39" x="30.96" y="164.574545" style="stroke: #000000; stroke-width: 0.8"/>
      </g>
     </g>
     <g id="text_9">
      <!-- 2025 -->
      <g transform="translate(3.6 167.61392) scale(0.08 -0.08)">
       <use xlink:href="#DejaVuSerif-32"/>
       <use xlink:href="#DejaVuSerif-30" transform="translate(63.623047 0)"/>
       <use xlink:href="#DejaVuSerif-32" transform="translate(127.246094 0)"/>
       <use xlink:href="#DejaVuSerif-35" transform="translate(190.869141 0)"/>
      </g>
     </g>
    </g>
   </g>
   <g id="patch_17">
    <path d="M 30.96 205.2 
L 30.96 41.04 
" style="fill: none; stroke: #000000; stroke-width: 0.8; stroke-linejoin: miter; stroke-linecap: square"/>
   </g>
   <g id="patch_18">
    <path d="M 30.96 205.2 
L 178.665882 205.2 
" style="fill: none; stroke: #000000; stroke-width: 0.8; stroke-linejoin: miter; stroke-linecap: square"/>
   </g>
   <g id="text_10">
    <!-- Not located -->
    <g transform="translate(75.269191 35.04) scale(0.1 -0.1)">
     <defs>
      <path id="DejaVuSerif-4e" d="M 313 0 
L 313 331 
L 941 331 
L 941 4331 
L 313 4331 
L 313 4666 
L 1509 4666 
L 4306 984 
L 4306 4331 
L 3681 4331 
L 3681 4666 
L 5319 4666 
L 5319 4331 
L 4691 4331 
L 4691 -91 
L 4313 -91 
L 1325 3841 
L 1325 331 
L 1953 331 
L 1953 0 
L 313 0 
z
" transform="scale(0.015625)"/>
      <path id="DejaVuSerif-6c" d="M 1313 331 
L 1856 331 
L 1856 0 
L 184 0 
L 184 331 
L 738 331 
L 738 4531 
L 184 4531 
L 184 4863 
L 1313 4863 
L 1313 331 
z
" transform="scale(0.015625)"/>
      <path id="DejaVuSerif-63" d="M 3291 997 
Q 3169 466 2822 187 
Q 2475 -91 1925 -91 
Q 1200 -91 759 389 
Q 319 869 319 1663 
Q 319 2459 759 2936 
Q 1200 3413 1925 3413 
Q 2241 3413 2553 3339 
Q 2866 3266 3181 3116 
L 3181 2266 
L 2847 2266 
Q 2781 2703 2561 2903 
Q 2341 3103 1931 3103 
Q 1466 3103 1228 2742 
Q 991 2381 991 1663 
Q 991 944 1227 581 
Q 1463 219 1931 219 
Q 2303 219 2525 412 
Q 2747 606 2828 997 
L 3291 997 
z
" transform="scale(0.015625)"/>
      <path id="DejaVuSerif-64" d="M 3359 331 
L 3909 331 
L 3909 0 
L 2784 0 
L 2784 519 
Q 2616 206 2355 57 
Q 2094 -91 1709 -91 
Q 1097 -91 708 395 
Q 319 881 319 1663 
Q 319 2444 706 2928 
Q 1094 3413 1709 3413 
Q 2094 3413 2355 3264 
Q 2616 3116 2784 2803 
L 2784 4531 
L 2241 4531 
L 2241 4863 
L 3359 4863 
L 3359 331 
z
M 2784 1497 
L 2784 1825 
Q 2784 2422 2554 2737 
Q 2325 3053 1888 3053 
Q 1444 3053 1217 2703 
Q 991 2353 991 1663 
Q 991 975 1217 622 
Q 1444 269 1888 269 
Q 2325 269 2554 583 
Q 2784 897 2784 1497 
z
" transform="scale(0.015625)"/>
     </defs>
     <use xlink:href="#DejaVuSerif-4e"/>
     <use xlink:href="#DejaVuSerif-6f" transform="translate(87.5 0)"/>
     <use xlink:href="#DejaVuSerif-74" transform="translate(147.705078 0)"/>
     <use xlink:href="#DejaVuSerif-20" transform="translate(187.890625 0)"/>
     <use xlink:href="#DejaVuSerif-6c" transform="translate(219.677734 0)"/>
     <use xlink:href="#DejaVuSerif-6f" transform="translate(251.660156 0)"/>
     <use xlink:href="#DejaVuSerif-63" transform="translate(311.865234 0)"/>
     <use xlink:href="#DejaVuSerif-61" transform="translate(367.871094 0)"/>
     <use xlink:href="#DejaVuSerif-74" transform="translate(427.490234 0)"/>
     <use xlink:href="#DejaVuSerif-65" transform="translate(467.675781 0)"/>
     <use xlink:href="#DejaVuSerif-64" transform="translate(526.855469 0)"/>
    </g>
   </g>
  </g>
  <g id="axes_2">
   <g id="patch_19">
    <path d="M 208.207059 205.2 
L 355.912941 205.2 
L 355.912941 41.04 
L 208.207059 41.04 
z
" style="fill: #ffffff"/>
   </g>
   <g id="patch_20">
    <path d="M 208.207059 114.829091 
L 208.255177 114.829091 
L 208.255177 48.501818 
L 208.207059 48.501818 
z
" clip-path="url(#p546c8ef4f0)" style="fill: #440154; stroke: #ffffff; stroke-width: 0.5; stroke-linejoin: miter"/>
   </g>
   <g id="patch_21">
    <path d="M 208.255177 114.829091 
L 209.859106 114.829091 
L 209.859106 48.501818 
L 208.255177 48.501818 
z
" clip-path="url(#p546c8ef4f0)" style="fill: #443983; stroke: #ffffff; stroke-width: 0.5; stroke-linejoin: miter"/>
   </g>
   <g id="patch_22">
    <path d="M 209.859106 114.829091 
L 218.007069 114.829091 
L 218.007069 48.501818 
L 209.859106 48.501818 
z
" clip-path="url(#p546c8ef4f0)" style="fill: #31688e; stroke: #ffffff; stroke-width: 0.5; stroke-linejoin: miter"/>
   </g>
   <g id="patch_23">
    <path d="M 218.007069 114.829091 
L 239.628041 114.829091 
L 239.628041 48.501818 
L 218.007069 48.501818 
z
" clip-path="url(#p546c8ef4f0)" style="fill: #21918c; stroke: #ffffff; stroke-width: 0.5; stroke-linejoin: miter"/>
   </g>
   <g id="patch_24">
    <path d="M 239.628041 114.829091 
L 274.673904 114.829091 
L 274.673904 48.501818 
L 239.628041 48.501818 
z
" clip-path="url(#p546c8ef4f0)" style="fill: #35b779; stroke: #ffffff; stroke-width: 0.5; stroke-linejoin: miter"/>
   </g>
   <g id="patch_25">
    <path d="M 274.673904 114.829091 
L 311.147264 114.829091 
L 311.147264 48.501818 
L 274.673904 48.501818 
z
" clip-path="url(#p546c8ef4f0)" style="fill: #90d743; stroke: #ffffff; stroke-width: 0.5; stroke-linejoin: miter"/>
   </g>
   <g id="patch_26">
    <path d="M 311.147264 114.829091 
L 355.912941 114.829091 
L 355.912941 48.501818 
L 311.147264 48.501818 
z
" clip-path="url(#p546c8ef4f0)" style="fill: #fde725; stroke: #ffffff; stroke-width: 0.5; stroke-linejoin: miter"/>
   </g>
   <g id="patch_27">
    <path d="M 208.207059 197.738182 
L 208.382943 197.738182 
L 208.382943 131.410909 
L 208.207059 131.410909 
z
" clip-path="url(#p546c8ef4f0)" style="fill: #440154; stroke: #ffffff; stroke-width: 0.5; stroke-linejoin: miter"/>
   </g>
   <g id="patch_28">
    <path d="M 208.382943 197.738182 
L 211.101816 197.738182 
L 211.101816 131.410909 
L 208.382943 131.410909 
z
" clip-path="url(#p546c8ef4f0)" style="fill: #443983; stroke: #ffffff; stroke-width: 0.5; stroke-linejoin: miter"/>
   </g>
   <g id="patch_29">
    <path d="M 211.101816 197.738182 
L 221.81608 197.738182 
L 221.81608 131.410909 
L 211.101816 131.410909 
z
" clip-path="url(#p546c8ef4f0)" style="fill: #31688e; stroke: #ffffff; stroke-width: 0.5; stroke-linejoin: miter"/>
   </g>
   <g id="patch_30">
    <path d="M 221.81608 197.738182 
L 241.551726 197.738182 
L 241.551726 131.410909 
L 221.81608 131.410909 
z
" clip-path="url(#p546c8ef4f0)" style="fill: #21918c; stroke: #ffffff; stroke-width: 0.5; stroke-linejoin: miter"/>
   </g>
   <g id="patch_31">
    <path d="M 241.551726 197.738182 
L 288.314873 197.738182 
L 288.314873 131.410909 
L 241.551726 131.410909 
z
" clip-path="url(#p546c8ef4f0)" style="fill: #35b779; stroke: #ffffff; stroke-width: 0.5; stroke-linejoin: miter"/>
   </g>
   <g id="patch_32">
    <path d="M 288.314873 197.738182 
L 330.321825 197.738182 
L 330.321825 131.410909 
L 288.314873 131.410909 
z
" clip-path="url(#p546c8ef4f0)" style="fill: #90d743; stroke: #ffffff; stroke-width: 0.5; stroke-linejoin: miter"/>
   </g>
   <g id="patch_33">
    <path d="M 330.321825 197.738182 
L 355.912941 197.738182 
L 355.912941 131.410909 
L 330.321825 131.410909 
z
" clip-path="url(#p546c8ef4f0)" style="fill: #fde725; stroke: #ffffff; stroke-width: 0.5; stroke-linejoin: miter"/>
   </g>
   <g id="matplotlib.axis_3">
    <g id="xtick_7">
     <g id="line2d_15">
      <path d="M 208.207059 205.2 
L 208.207059 41.04 
" clip-path="url(#p546c8ef4f0)" style="fill: none; stroke-dasharray: 2.96,1.28; stroke-dashoffset: 0; stroke: #b0b0b0; stroke-opacity: 0.3; stroke-width: 0.8"/>
     </g>
     <g id="line2d_16">
      <g>
       <use xlink:href="#m96d7a3dec4" x="208.207059" y="205.2" style="stroke: #000000; stroke-width: 0.8"/>
      </g>
     </g>
     <g id="text_11">
      <!-- 0.0 -->
      <g transform="translate(201.845809 218.27875) scale(0.08 -0.08)">
       <use xlink:href="#DejaVuSerif-30"/>
       <use xlink:href="#DejaVuSerif-2e" transform="translate(63.623047 0)"/>
       <use xlink:href="#DejaVuSerif-30" transform="translate(95.410156 0)"/>
      </g>
     </g>
    </g>
    <g id="xtick_8">
     <g id="line2d_17">
      <path d="M 237.748235 205.2 
L 237.748235 41.04 
" clip-path="url(#p546c8ef4f0)" style="fill: none; stroke-dasharray: 2.96,1.28; stroke-dashoffset: 0; stroke: #b0b0b0; stroke-opacity: 0.3; stroke-width: 0.8"/>
     </g>
     <g id="line2d_18">
      <g>
       <use xlink:href="#m96d7a3dec4" x="237.748235" y="205.2" style="stroke: #000000; stroke-width: 0.8"/>
      </g>
     </g>
     <g id="text_12">
      <!-- 0.2 -->
      <g transform="translate(231.386985 218.27875) scale(0.08 -0.08)">
       <use xlink:href="#DejaVuSerif-30"/>
       <use xlink:href="#DejaVuSerif-2e" transform="translate(63.623047 0)"/>
       <use xlink:href="#DejaVuSerif-32" transform="translate(95.410156 0)"/>
      </g>
     </g>
    </g>
    <g id="xtick_9">
     <g id="line2d_19">
      <path d="M 267.289412 205.2 
L 267.289412 41.04 
" clip-path="url(#p546c8ef4f0)" style="fill: none; stroke-dasharray: 2.96,1.28; stroke-dashoffset: 0; stroke: #b0b0b0; stroke-opacity: 0.3; stroke-width: 0.8"/>
     </g>
     <g id="line2d_20">
      <g>
       <use xlink:href="#m96d7a3dec4" x="267.289412" y="205.2" style="stroke: #000000; stroke-width: 0.8"/>
      </g>
     </g>
     <g id="text_13">
      <!-- 0.4 -->
      <g transform="translate(260.928162 218.27875) scale(0.08 -0.08)">
       <use xlink:href="#DejaVuSerif-30"/>
       <use xlink:href="#DejaVuSerif-2e" transform="translate(63.623047 0)"/>
       <use xlink:href="#DejaVuSerif-34" transform="translate(95.410156 0)"/>
      </g>
     </g>
    </g>
    <g id="xtick_10">
     <g id="line2d_21">
      <path d="M 296.830588 205.2 
L 296.830588 41.04 
" clip-path="url(#p546c8ef4f0)" style="fill: none; stroke-dasharray: 2.96,1.28; stroke-dashoffset: 0; stroke: #b0b0b0; stroke-opacity: 0.3; stroke-width: 0.8"/>
     </g>
     <g id="line2d_22">
      <g>
       <use xlink:href="#m96d7a3dec4" x="296.830588" y="205.2" style="stroke: #000000; stroke-width: 0.8"/>
      </g>
     </g>
     <g id="text_14">
      <!-- 0.6 -->
      <g transform="translate(290.469338 218.27875) scale(0.08 -0.08)">
       <use xlink:href="#DejaVuSerif-30"/>
       <use xlink:href="#DejaVuSerif-2e" transform="translate(63.623047 0)"/>
       <use xlink:href="#DejaVuSerif-36" transform="translate(95.410156 0)"/>
      </g>
     </g>
    </g>
    <g id="xtick_11">
     <g id="line2d_23">
      <path d="M 326.371765 205.2 
L 326.371765 41.04 
" clip-path="url(#p546c8ef4f0)" style="fill: none; stroke-dasharray: 2.96,1.28; stroke-dashoffset: 0; stroke: #b0b0b0; stroke-opacity: 0.3; stroke-width: 0.8"/>
     </g>
     <g id="line2d_24">
      <g>
       <use xlink:href="#m96d7a3dec4" x="326.371765" y="205.2" style="stroke: #000000; stroke-width: 0.8"/>
      </g>
     </g>
     <g id="text_15">
      <!-- 0.8 -->
      <g transform="translate(320.010515 218.27875) scale(0.08 -0.08)">
       <use xlink:href="#DejaVuSerif-30"/>
       <use xlink:href="#DejaVuSerif-2e" transform="translate(63.623047 0)"/>
       <use xlink:href="#DejaVuSerif-38" transform="translate(95.410156 0)"/>
      </g>
     </g>
    </g>
    <g id="xtick_12">
     <g id="line2d_25">
      <path d="M 355.912941 205.2 
L 355.912941 41.04 
" clip-path="url(#p546c8ef4f0)" style="fill: none; stroke-dasharray: 2.96,1.28; stroke-dashoffset: 0; stroke: #b0b0b0; stroke-opacity: 0.3; stroke-width: 0.8"/>
     </g>
     <g id="line2d_26">
      <g>
       <use xlink:href="#m96d7a3dec4" x="355.912941" y="205.2" style="stroke: #000000; stroke-width: 0.8"/>
      </g>
     </g>
     <g id="text_16">
      <!-- 1.0 -->
      <g transform="translate(349.551691 218.27875) scale(0.08 -0.08)">
       <use xlink:href="#DejaVuSerif-31"/>
       <use xlink:href="#DejaVuSerif-2e" transform="translate(63.623047 0)"/>
       <use xlink:href="#DejaVuSerif-30" transform="translate(95.410156 0)"/>
      </g>
     </g>
    </g>
    <g id="text_17">
     <!-- Share of registrations -->
     <g transform="translate(232.096641 230.781094) scale(0.09 -0.09)">
      <use xlink:href="#DejaVuSerif-53"/>
      <use xlink:href="#DejaVuSerif-68" transform="translate(68.505859 0)"/>
      <use xlink:href="#DejaVuSerif-61" transform="translate(132.910156 0)"/>
      <use xlink:href="#DejaVuSerif-72" transform="translate(192.529297 0)"/>
      <use xlink:href="#DejaVuSerif-65" transform="translate(240.332031 0)"/>
      <use xlink:href="#DejaVuSerif-20" transform="translate(299.511719 0)"/>
      <use xlink:href="#DejaVuSerif-6f" transform="translate(331.298828 0)"/>
      <use xlink:href="#DejaVuSerif-66" transform="translate(391.503906 0)"/>
      <use xlink:href="#DejaVuSerif-20" transform="translate(428.515625 0)"/>
      <use xlink:href="#DejaVuSerif-72" transform="translate(460.302734 0)"/>
      <use xlink:href="#DejaVuSerif-65" transform="translate(508.105469 0)"/>
      <use xlink:href="#DejaVuSerif-67" transform="translate(567.285156 0)"/>
      <use xlink:href="#DejaVuSerif-69" transform="translate(631.298828 0)"/>
      <use xlink:href="#DejaVuSerif-73" transform="translate(663.28125 0)"/>
      <use xlink:href="#DejaVuSerif-74" transform="translate(714.599609 0)"/>
      <use xlink:href="#DejaVuSerif-72" transform="translate(754.785156 0)"/>
      <use xlink:href="#DejaVuSerif-61" transform="translate(802.587891 0)"/>
      <use xlink:href="#DejaVuSerif-74" transform="translate(862.207031 0)"/>
      <use xlink:href="#DejaVuSerif-69" transform="translate(902.392578 0)"/>
      <use xlink:href="#DejaVuSerif-6f" transform="translate(934.375 0)"/>
      <use xlink:href="#DejaVuSerif-6e" transform="translate(994.580078 0)"/>
      <use xlink:href="#DejaVuSerif-73" transform="translate(1058.984375 0)"/>
     </g>
    </g>
   </g>
   <g id="matplotlib.axis_4">
    <g id="ytick_3">
     <g id="line2d_27">
      <g>
       <use xlink:href="#m01f64bbb39" x="208.207059" y="81.665455" style="stroke: #000000; stroke-width: 0.8"/>
      </g>
     </g>
    </g>
    <g id="ytick_4">
     <g id="line2d_28">
      <g>
       <use xlink:href="#m01f64bbb39" x="208.207059" y="164.574545" style="stroke: #000000; stroke-width: 0.8"/>
      </g>
     </g>
    </g>
   </g>
   <g id="patch_34">
    <path d="M 208.207059 205.2 
L 208.207059 41.04 
" style="fill: none; stroke: #000000; stroke-width: 0.8; stroke-linejoin: miter; stroke-linecap: square"/>
   </g>
   <g id="patch_35">
    <path d="M 208.207059 205.2 
L 355.912941 205.2 
" style="fill: none; stroke: #000000; stroke-width: 0.8; stroke-linejoin: miter; stroke-linecap: square"/>
   </g>
   <g id="text_18">
    <!-- Located alive -->
    <g transform="translate(248.225625 35.04) scale(0.1 -0.1)">
     <defs>
      <path id="DejaVuSerif-4c" d="M 353 0 
L 353 331 
L 947 331 
L 947 4331 
L 353 4331 
L 353 4666 
L 2175 4666 
L 2175 4331 
L 1581 4331 
L 1581 384 
L 3713 384 
L 3713 1166 
L 4097 1166 
L 4097 0 
L 353 0 
z
" transform="scale(0.015625)"/>
      <path id="DejaVuSerif-76" d="M 1581 0 
L 359 2988 
L -19 2988 
L -19 3322 
L 1509 3322 
L 1509 2988 
L 978 2988 
L 1913 703 
L 2847 2988 
L 2350 2988 
L 2350 3322 
L 3597 3322 
L 3597 2988 
L 3225 2988 
L 2003 0 
L 1581 0 
z
" transform="scale(0.015625)"/>
     </defs>
     <use xlink:href="#DejaVuSerif-4c"/>
     <use xlink:href="#DejaVuSerif-6f" transform="translate(66.40625 0)"/>
     <use xlink:href="#DejaVuSerif-63" transform="translate(126.611328 0)"/>
     <use xlink:href="#DejaVuSerif-61" transform="translate(182.617188 0)"/>
     <use xlink:href="#DejaVuSerif-74" transform="translate(242.236328 0)"/>
     <use xlink:href="#DejaVuSerif-65" transform="translate(282.421875 0)"/>
     <use xlink:href="#DejaVuSerif-64" transform="translate(341.601562 0)"/>
     <use xlink:href="#DejaVuSerif-20" transform="translate(405.615234 0)"/>
     <use xlink:href="#DejaVuSerif-61" transform="translate(437.402344 0)"/>
     <use xlink:href="#DejaVuSerif-6c" transform="translate(497.021484 0)"/>
     <use xlink:href="#DejaVuSerif-69" transform="translate(529.003906 0)"/>
     <use xlink:href="#DejaVuSerif-76" transform="translate(560.986328 0)"/>
     <use xlink:href="#DejaVuSerif-65" transform="translate(617.480469 0)"/>
    </g>
   </g>
  </g>
  <g id="axes_3">
   <g id="patch_36">
    <path d="M 385.454118 205.2 
L 533.16 205.2 
L 533.16 41.04 
L 385.454118 41.04 
z
" style="fill: #ffffff"/>
   </g>
   <g id="patch_37">
    <path d="M 385.454118 114.829091 
L 385.715544 114.829091 
L 385.715544 48.501818 
L 385.454118 48.501818 
z
" clip-path="url(#pec1cc6fb91)" style="fill: #440154; stroke: #ffffff; stroke-width: 0.5; stroke-linejoin: miter"/>
   </g>
   <g id="patch_38">
    <path d="M 385.715544 114.829091 
L 388.591234 114.829091 
L 388.591234 48.501818 
L 385.715544 48.501818 
z
" clip-path="url(#pec1cc6fb91)" style="fill: #443983; stroke: #ffffff; stroke-width: 0.5; stroke-linejoin: miter"/>
   </g>
   <g id="patch_39">
    <path d="M 388.591234 114.829091 
L 402.969682 114.829091 
L 402.969682 48.501818 
L 388.591234 48.501818 
z
" clip-path="url(#pec1cc6fb91)" style="fill: #31688e; stroke: #ffffff; stroke-width: 0.5; stroke-linejoin: miter"/>
   </g>
   <g id="patch_40">
    <path d="M 402.969682 114.829091 
L 427.282332 114.829091 
L 427.282332 48.501818 
L 402.969682 48.501818 
z
" clip-path="url(#pec1cc6fb91)" style="fill: #21918c; stroke: #ffffff; stroke-width: 0.5; stroke-linejoin: miter"/>
   </g>
   <g id="patch_41">
    <path d="M 427.282332 114.829091 
L 473.293368 114.829091 
L 473.293368 48.501818 
L 427.282332 48.501818 
z
" clip-path="url(#pec1cc6fb91)" style="fill: #35b779; stroke: #ffffff; stroke-width: 0.5; stroke-linejoin: miter"/>
   </g>
   <g id="patch_42">
    <path d="M 473.293368 114.829091 
L 498.651723 114.829091 
L 498.651723 48.501818 
L 473.293368 48.501818 
z
" clip-path="url(#pec1cc6fb91)" style="fill: #90d743; stroke: #ffffff; stroke-width: 0.5; stroke-linejoin: miter"/>
   </g>
   <g id="patch_43">
    <path d="M 498.651723 114.829091 
L 533.16 114.829091 
L 533.16 48.501818 
L 498.651723 48.501818 
z
" clip-path="url(#pec1cc6fb91)" style="fill: #fde725; stroke: #ffffff; stroke-width: 0.5; stroke-linejoin: miter"/>
   </g>
   <g id="patch_44">
    <path d="M 385.454118 197.738182 
L 386.016807 197.738182 
L 386.016807 131.410909 
L 385.454118 131.410909 
z
" clip-path="url(#pec1cc6fb91)" style="fill: #440154; stroke: #ffffff; stroke-width: 0.5; stroke-linejoin: miter"/>
   </g>
   <g id="patch_45">
    <path d="M 386.016807 197.738182 
L 391.925042 197.738182 
L 391.925042 131.410909 
L 386.016807 131.410909 
z
" clip-path="url(#pec1cc6fb91)" style="fill: #443983; stroke: #ffffff; stroke-width: 0.5; stroke-linejoin: miter"/>
   </g>
   <g id="patch_46">
    <path d="M 391.925042 197.738182 
L 407.211429 197.738182 
L 407.211429 131.410909 
L 391.925042 131.410909 
z
" clip-path="url(#pec1cc6fb91)" style="fill: #31688e; stroke: #ffffff; stroke-width: 0.5; stroke-linejoin: miter"/>
   </g>
   <g id="patch_47">
    <path d="M 407.211429 197.738182 
L 431.50084 197.738182 
L 431.50084 131.410909 
L 407.211429 131.410909 
z
" clip-path="url(#pec1cc6fb91)" style="fill: #21918c; stroke: #ffffff; stroke-width: 0.5; stroke-linejoin: miter"/>
   </g>
   <g id="patch_48">
    <path d="M 431.50084 197.738182 
L 468.356975 197.738182 
L 468.356975 131.410909 
L 431.50084 131.410909 
z
" clip-path="url(#pec1cc6fb91)" style="fill: #35b779; stroke: #ffffff; stroke-width: 0.5; stroke-linejoin: miter"/>
   </g>
   <g id="patch_49">
    <path d="M 468.356975 197.738182 
L 503.431261 197.738182 
L 503.431261 131.410909 
L 468.356975 131.410909 
z
" clip-path="url(#pec1cc6fb91)" style="fill: #90d743; stroke: #ffffff; stroke-width: 0.5; stroke-linejoin: miter"/>
   </g>
   <g id="patch_50">
    <path d="M 503.431261 197.738182 
L 533.16 197.738182 
L 533.16 131.410909 
L 503.431261 131.410909 
z
" clip-path="url(#pec1cc6fb91)" style="fill: #fde725; stroke: #ffffff; stroke-width: 0.5; stroke-linejoin: miter"/>
   </g>
   <g id="matplotlib.axis_5">
    <g id="xtick_13">
     <g id="line2d_29">
      <path d="M 385.454118 205.2 
L 385.454118 41.04 
" clip-path="url(#pec1cc6fb91)" style="fill: none; stroke-dasharray: 2.96,1.28; stroke-dashoffset: 0; stroke: #b0b0b0; stroke-opacity: 0.3; stroke-width: 0.8"/>
     </g>
     <g id="line2d_30">
      <g>
       <use xlink:href="#m96d7a3dec4" x="385.454118" y="205.2" style="stroke: #000000; stroke-width: 0.8"/>
      </g>
     </g>
     <g id="text_19">
      <!-- 0.0 -->
      <g transform="translate(379.092868 218.27875) scale(0.08 -0.08)">
       <use xlink:href="#DejaVuSerif-30"/>
       <use xlink:href="#DejaVuSerif-2e" transform="translate(63.623047 0)"/>
       <use xlink:href="#DejaVuSerif-30" transform="translate(95.410156 0)"/>
      </g>
     </g>
    </g>
    <g id="xtick_14">
     <g id="line2d_31">
      <path d="M 414.995294 205.2 
L 414.995294 41.04 
" clip-path="url(#pec1cc6fb91)" style="fill: none; stroke-dasharray: 2.96,1.28; stroke-dashoffset: 0; stroke: #b0b0b0; stroke-opacity: 0.3; stroke-width: 0.8"/>
     </g>
     <g id="line2d_32">
      <g>
       <use xlink:href="#m96d7a3dec4" x="414.995294" y="205.2" style="stroke: #000000; stroke-width: 0.8"/>
      </g>
     </g>
     <g id="text_20">
      <!-- 0.2 -->
      <g transform="translate(408.634044 218.27875) scale(0.08 -0.08)">
       <use xlink:href="#DejaVuSerif-30"/>
       <use xlink:href="#DejaVuSerif-2e" transform="translate(63.623047 0)"/>
       <use xlink:href="#DejaVuSerif-32" transform="translate(95.410156 0)"/>
      </g>
     </g>
    </g>
    <g id="xtick_15">
     <g id="line2d_33">
      <path d="M 444.536471 205.2 
L 444.536471 41.04 
" clip-path="url(#pec1cc6fb91)" style="fill: none; stroke-dasharray: 2.96,1.28; stroke-dashoffset: 0; stroke: #b0b0b0; stroke-opacity: 0.3; stroke-width: 0.8"/>
     </g>
     <g id="line2d_34">
      <g>
       <use xlink:href="#m96d7a3dec4" x="444.536471" y="205.2" style="stroke: #000000; stroke-width: 0.8"/>
      </g>
     </g>
     <g id="text_21">
      <!-- 0.4 -->
      <g transform="translate(438.175221 218.27875) scale(0.08 -0.08)">
       <use xlink:href="#DejaVuSerif-30"/>
       <use xlink:href="#DejaVuSerif-2e" transform="translate(63.623047 0)"/>
       <use xlink:href="#DejaVuSerif-34" transform="translate(95.410156 0)"/>
      </g>
     </g>
    </g>
    <g id="xtick_16">
     <g id="line2d_35">
      <path d="M 474.077647 205.2 
L 474.077647 41.04 
" clip-path="url(#pec1cc6fb91)" style="fill: none; stroke-dasharray: 2.96,1.28; stroke-dashoffset: 0; stroke: #b0b0b0; stroke-opacity: 0.3; stroke-width: 0.8"/>
     </g>
     <g id="line2d_36">
      <g>
       <use xlink:href="#m96d7a3dec4" x="474.077647" y="205.2" style="stroke: #000000; stroke-width: 0.8"/>
      </g>
     </g>
     <g id="text_22">
      <!-- 0.6 -->
      <g transform="translate(467.716397 218.27875) scale(0.08 -0.08)">
       <use xlink:href="#DejaVuSerif-30"/>
       <use xlink:href="#DejaVuSerif-2e" transform="translate(63.623047 0)"/>
       <use xlink:href="#DejaVuSerif-36" transform="translate(95.410156 0)"/>
      </g>
     </g>
    </g>
    <g id="xtick_17">
     <g id="line2d_37">
      <path d="M 503.618824 205.2 
L 503.618824 41.04 
" clip-path="url(#pec1cc6fb91)" style="fill: none; stroke-dasharray: 2.96,1.28; stroke-dashoffset: 0; stroke: #b0b0b0; stroke-opacity: 0.3; stroke-width: 0.8"/>
     </g>
     <g id="line2d_38">
      <g>
       <use xlink:href="#m96d7a3dec4" x="503.618824" y="205.2" style="stroke: #000000; stroke-width: 0.8"/>
      </g>
     </g>
     <g id="text_23">
      <!-- 0.8 -->
      <g transform="translate(497.257574 218.27875) scale(0.08 -0.08)">
       <use xlink:href="#DejaVuSerif-30"/>
       <use xlink:href="#DejaVuSerif-2e" transform="translate(63.623047 0)"/>
       <use xlink:href="#DejaVuSerif-38" transform="translate(95.410156 0)"/>
      </g>
     </g>
    </g>
    <g id="xtick_18">
     <g id="line2d_39">
      <path d="M 533.16 205.2 
L 533.16 41.04 
" clip-path="url(#pec1cc6fb91)" style="fill: none; stroke-dasharray: 2.96,1.28; stroke-dashoffset: 0; stroke: #b0b0b0; stroke-opacity: 0.3; stroke-width: 0.8"/>
     </g>
     <g id="line2d_40">
      <g>
       <use xlink:href="#m96d7a3dec4" x="533.16" y="205.2" style="stroke: #000000; stroke-width: 0.8"/>
      </g>
     </g>
     <g id="text_24">
      <!-- 1.0 -->
      <g transform="translate(526.79875 218.27875) scale(0.08 -0.08)">
       <use xlink:href="#DejaVuSerif-31"/>
       <use xlink:href="#DejaVuSerif-2e" transform="translate(63.623047 0)"/>
       <use xlink:href="#DejaVuSerif-30" transform="translate(95.410156 0)"/>
      </g>
     </g>
    </g>
    <g id="text_25">
     <!-- Share of registrations -->
     <g transform="translate(409.343699 230.781094) scale(0.09 -0.09)">
      <use xlink:href="#DejaVuSerif-53"/>
      <use xlink:href="#DejaVuSerif-68" transform="translate(68.505859 0)"/>
      <use xlink:href="#DejaVuSerif-61" transform="translate(132.910156 0)"/>
      <use xlink:href="#DejaVuSerif-72" transform="translate(192.529297 0)"/>
      <use xlink:href="#DejaVuSerif-65" transform="translate(240.332031 0)"/>
      <use xlink:href="#DejaVuSerif-20" transform="translate(299.511719 0)"/>
      <use xlink:href="#DejaVuSerif-6f" transform="translate(331.298828 0)"/>
      <use xlink:href="#DejaVuSerif-66" transform="translate(391.503906 0)"/>
      <use xlink:href="#DejaVuSerif-20" transform="translate(428.515625 0)"/>
      <use xlink:href="#DejaVuSerif-72" transform="translate(460.302734 0)"/>
      <use xlink:href="#DejaVuSerif-65" transform="translate(508.105469 0)"/>
      <use xlink:href="#DejaVuSerif-67" transform="translate(567.285156 0)"/>
      <use xlink:href="#DejaVuSerif-69" transform="translate(631.298828 0)"/>
      <use xlink:href="#DejaVuSerif-73" transform="translate(663.28125 0)"/>
      <use xlink:href="#DejaVuSerif-74" transform="translate(714.599609 0)"/>
      <use xlink:href="#DejaVuSerif-72" transform="translate(754.785156 0)"/>
      <use xlink:href="#DejaVuSerif-61" transform="translate(802.587891 0)"/>
      <use xlink:href="#DejaVuSerif-74" transform="translate(862.207031 0)"/>
      <use xlink:href="#DejaVuSerif-69" transform="translate(902.392578 0)"/>
      <use xlink:href="#DejaVuSerif-6f" transform="translate(934.375 0)"/>
      <use xlink:href="#DejaVuSerif-6e" transform="translate(994.580078 0)"/>
      <use xlink:href="#DejaVuSerif-73" transform="translate(1058.984375 0)"/>
     </g>
    </g>
   </g>
   <g id="matplotlib.axis_6">
    <g id="ytick_5">
     <g id="line2d_41">
      <g>
       <use xlink:href="#m01f64bbb39" x="385.454118" y="81.665455" style="stroke: #000000; stroke-width: 0.8"/>
      </g>
     </g>
    </g>
    <g id="ytick_6">
     <g id="line2d_42">
      <g>
       <use xlink:href="#m01f64bbb39" x="385.454118" y="164.574545" style="stroke: #000000; stroke-width: 0.8"/>
      </g>
     </g>
    </g>
   </g>
   <g id="patch_51">
    <path d="M 385.454118 205.2 
L 385.454118 41.04 
" style="fill: none; stroke: #000000; stroke-width: 0.8; stroke-linejoin: miter; stroke-linecap: square"/>
   </g>
   <g id="patch_52">
    <path d="M 385.454118 205.2 
L 533.16 205.2 
" style="fill: none; stroke: #000000; stroke-width: 0.8; stroke-linejoin: miter; stroke-linecap: square"/>
   </g>
   <g id="text_26">
    <!-- Located dead -->
    <g transform="translate(425.094559 35.04) scale(0.1 -0.1)">
     <use xlink:href="#DejaVuSerif-4c"/>
     <use xlink:href="#DejaVuSerif-6f" transform="translate(66.40625 0)"/>
     <use xlink:href="#DejaVuSerif-63" transform="translate(126.611328 0)"/>
     <use xlink:href="#DejaVuSerif-61" transform="translate(182.617188 0)"/>
     <use xlink:href="#DejaVuSerif-74" transform="translate(242.236328 0)"/>
     <use xlink:href="#DejaVuSerif-65" transform="translate(282.421875 0)"/>
     <use xlink:href="#DejaVuSerif-64" transform="translate(341.601562 0)"/>
     <use xlink:href="#DejaVuSerif-20" transform="translate(405.615234 0)"/>
     <use xlink:href="#DejaVuSerif-64" transform="translate(437.402344 0)"/>
     <use xlink:href="#DejaVuSerif-65" transform="translate(501.416016 0)"/>
     <use xlink:href="#DejaVuSerif-61" transform="translate(560.595703 0)"/>
     <use xlink:href="#DejaVuSerif-64" transform="translate(620.214844 0)"/>
    </g>
   </g>
  </g>
  <g id="text_27">
   <!-- Figure 4. Population-band composition of RNPDNO registrations, 2015 vs 2025. -->
   <g transform="translate(70.608437 11.198438) scale(0.1 -0.1)">
    <defs>
     <path id="DejaVuSerif-46" d="M 353 0 
L 353 331 
L 947 331 
L 947 4331 
L 353 4331 
L 353 4666 
L 4172 4666 
L 4172 3628 
L 3788 3628 
L 3788 4281 
L 1581 4281 
L 1581 2719 
L 3175 2719 
L 3175 3303 
L 3559 3303 
L 3559 1753 
L 3175 1753 
L 3175 2338 
L 1581 2338 
L 1581 331 
L 2328 331 
L 2328 0 
L 353 0 
z
" transform="scale(0.015625)"/>
     <path id="DejaVuSerif-75" d="M 2266 3322 
L 3341 3322 
L 3341 331 
L 3884 331 
L 3884 0 
L 2766 0 
L 2766 588 
Q 2606 256 2353 82 
Q 2100 -91 1766 -91 
Q 1213 -91 952 223 
Q 691 538 691 1209 
L 691 2988 
L 172 2988 
L 172 3322 
L 1269 3322 
L 1269 1388 
Q 1269 781 1417 556 
Q 1566 331 1947 331 
Q 2347 331 2556 625 
Q 2766 919 2766 1478 
L 2766 2988 
L 2266 2988 
L 2266 3322 
z
" transform="scale(0.015625)"/>
     <path id="DejaVuSerif-50" d="M 1581 2375 
L 2406 2375 
Q 2872 2375 3115 2626 
Q 3359 2878 3359 3353 
Q 3359 3831 3115 4081 
Q 2872 4331 2406 4331 
L 1581 4331 
L 1581 2375 
z
M 353 0 
L 353 331 
L 947 331 
L 947 4331 
L 353 4331 
L 353 4666 
L 2559 4666 
Q 3259 4666 3668 4311 
Q 4078 3956 4078 3353 
Q 4078 2753 3668 2397 
Q 3259 2041 2559 2041 
L 1581 2041 
L 1581 331 
L 2303 331 
L 2303 0 
L 353 0 
z
" transform="scale(0.015625)"/>
     <path id="DejaVuSerif-70" d="M 1313 1825 
L 1313 1497 
Q 1313 897 1542 583 
Q 1772 269 2209 269 
Q 2650 269 2876 622 
Q 3103 975 3103 1663 
Q 3103 2353 2876 2703 
Q 2650 3053 2209 3053 
Q 1772 3053 1542 2737 
Q 1313 2422 1313 1825 
z
M 738 2988 
L 184 2988 
L 184 3322 
L 1313 3322 
L 1313 2803 
Q 1481 3116 1742 3264 
Q 2003 3413 2388 3413 
Q 3000 3413 3387 2928 
Q 3775 2444 3775 1663 
Q 3775 881 3387 395 
Q 3000 -91 2388 -91 
Q 2003 -91 1742 57 
Q 1481 206 1313 519 
L 1313 -997 
L 1856 -997 
L 1856 -1331 
L 184 -1331 
L 184 -997 
L 738 -997 
L 738 2988 
z
" transform="scale(0.015625)"/>
     <path id="DejaVuSerif-2d" d="M 281 1959 
L 1881 1959 
L 1881 1472 
L 281 1472 
L 281 1959 
z
" transform="scale(0.015625)"/>
     <path id="DejaVuSerif-62" d="M 738 331 
L 738 4531 
L 184 4531 
L 184 4863 
L 1313 4863 
L 1313 2803 
Q 1481 3116 1742 3264 
Q 2003 3413 2388 3413 
Q 3000 3413 3387 2928 
Q 3775 2444 3775 1663 
Q 3775 881 3387 395 
Q 3000 -91 2388 -91 
Q 2003 -91 1742 57 
Q 1481 206 1313 519 
L 1313 0 
L 184 0 
L 184 331 
L 738 331 
z
M 1313 1497 
Q 1313 897 1542 583 
Q 1772 269 2209 269 
Q 2650 269 2876 622 
Q 3103 975 3103 1663 
Q 3103 2353 2876 2703 
Q 2650 3053 2209 3053 
Q 1772 3053 1542 2737 
Q 1313 2422 1313 1825 
L 1313 1497 
z
" transform="scale(0.015625)"/>
     <path id="DejaVuSerif-6d" d="M 3316 2675 
Q 3481 3041 3739 3227 
Q 3997 3413 4341 3413 
Q 4863 3413 5119 3089 
Q 5375 2766 5375 2113 
L 5375 331 
L 5894 331 
L 5894 0 
L 4300 0 
L 4300 331 
L 4800 331 
L 4800 2047 
Q 4800 2556 4650 2772 
Q 4500 2988 4153 2988 
Q 3769 2988 3567 2697 
Q 3366 2406 3366 1850 
L 3366 331 
L 3866 331 
L 3866 0 
L 2291 0 
L 2291 331 
L 2791 331 
L 2791 2069 
Q 2791 2566 2641 2777 
Q 2491 2988 2144 2988 
Q 1759 2988 1557 2697 
Q 1356 2406 1356 1850 
L 1356 331 
L 1856 331 
L 1856 0 
L 263 0 
L 263 331 
L 781 331 
L 781 2994 
L 231 2994 
L 231 3322 
L 1356 3322 
L 1356 2731 
Q 1516 3063 1762 3238 
Q 2009 3413 2322 3413 
Q 2709 3413 2968 3220 
Q 3228 3028 3316 2675 
z
" transform="scale(0.015625)"/>
     <path id="DejaVuSerif-52" d="M 3066 2316 
Q 3284 2256 3442 2114 
Q 3600 1972 3725 1716 
L 4403 331 
L 4972 331 
L 4972 0 
L 3872 0 
L 3144 1484 
Q 2934 1916 2759 2042 
Q 2584 2169 2278 2169 
L 1581 2169 
L 1581 331 
L 2241 331 
L 2241 0 
L 353 0 
L 353 331 
L 947 331 
L 947 4331 
L 353 4331 
L 353 4666 
L 2719 4666 
Q 3400 4666 3770 4341 
Q 4141 4016 4141 3419 
Q 4141 2938 3870 2661 
Q 3600 2384 3066 2316 
z
M 1581 2503 
L 2503 2503 
Q 2975 2503 3200 2726 
Q 3425 2950 3425 3419 
Q 3425 3888 3200 4109 
Q 2975 4331 2503 4331 
L 1581 4331 
L 1581 2503 
z
" transform="scale(0.015625)"/>
     <path id="DejaVuSerif-44" d="M 1581 331 
L 2163 331 
Q 3072 331 3558 850 
Q 4044 1369 4044 2338 
Q 4044 3306 3559 3818 
Q 3075 4331 2163 4331 
L 1581 4331 
L 1581 331 
z
M 353 0 
L 353 331 
L 947 331 
L 947 4331 
L 353 4331 
L 353 4666 
L 2209 4666 
Q 3416 4666 4089 4050 
Q 4763 3434 4763 2338 
Q 4763 1238 4088 619 
Q 3413 0 2209 0 
L 353 0 
z
" transform="scale(0.015625)"/>
     <path id="DejaVuSerif-4f" d="M 2625 244 
Q 3391 244 3781 770 
Q 4172 1297 4172 2328 
Q 4172 3363 3781 3889 
Q 3391 4416 2625 4416 
Q 1856 4416 1465 3889 
Q 1075 3363 1075 2328 
Q 1075 1297 1465 770 
Q 1856 244 2625 244 
z
M 2625 -91 
Q 2150 -91 1751 65 
Q 1353 222 1050 525 
Q 700 875 529 1319 
Q 359 1763 359 2328 
Q 359 2894 529 3339 
Q 700 3784 1050 4134 
Q 1356 4441 1750 4595 
Q 2144 4750 2625 4750 
Q 3641 4750 4266 4084 
Q 4891 3419 4891 2328 
Q 4891 1769 4719 1320 
Q 4547 872 4197 525 
Q 3891 219 3497 64 
Q 3103 -91 2625 -91 
z
" transform="scale(0.015625)"/>
     <path id="DejaVuSerif-2c" d="M 231 -622 
Q 525 -406 662 -114 
Q 800 178 800 594 
L 800 709 
L 1416 709 
Q 1391 175 1164 -208 
Q 938 -591 481 -872 
L 231 -622 
z
" transform="scale(0.015625)"/>
    </defs>
    <use xlink:href="#DejaVuSerif-46"/>
    <use xlink:href="#DejaVuSerif-69" transform="translate(69.384766 0)"/>
    <use xlink:href="#DejaVuSerif-67" transform="translate(101.367188 0)"/>
    <use xlink:href="#DejaVuSerif-75" transform="translate(165.380859 0)"/>
    <use xlink:href="#DejaVuSerif-72" transform="translate(229.785156 0)"/>
    <use xlink:href="#DejaVuSerif-65" transform="translate(277.587891 0)"/>
    <use xlink:href="#DejaVuSerif-20" transform="translate(336.767578 0)"/>
    <use xlink:href="#DejaVuSerif-34" transform="translate(368.554688 0)"/>
    <use xlink:href="#DejaVuSerif-2e" transform="translate(432.177734 0)"/>
    <use xlink:href="#DejaVuSerif-20" transform="translate(463.964844 0)"/>
    <use xlink:href="#DejaVuSerif-50" transform="translate(495.751953 0)"/>
    <use xlink:href="#DejaVuSerif-6f" transform="translate(559.037109 0)"/>
    <use xlink:href="#DejaVuSerif-70" transform="translate(619.242188 0)"/>
    <use xlink:href="#DejaVuSerif-75" transform="translate(683.255859 0)"/>
    <use xlink:href="#DejaVuSerif-6c" transform="translate(747.660156 0)"/>
    <use xlink:href="#DejaVuSerif-61" transform="translate(779.642578 0)"/>
    <use xlink:href="#DejaVuSerif-74" transform="translate(839.261719 0)"/>
    <use xlink:href="#DejaVuSerif-69" transform="translate(879.447266 0)"/>
    <use xlink:href="#DejaVuSerif-6f" transform="translate(911.429688 0)"/>
    <use xlink:href="#DejaVuSerif-6e" transform="translate(971.634766 0)"/>
    <use xlink:href="#DejaVuSerif-2d" transform="translate(1036.039062 0)"/>
    <use xlink:href="#DejaVuSerif-62" transform="translate(1069.828125 0)"/>
    <use xlink:href="#DejaVuSerif-61" transform="translate(1133.841797 0)"/>
    <use xlink:href="#DejaVuSerif-6e" transform="translate(1193.460938 0)"/>
    <use xlink:href="#DejaVuSerif-64" transform="translate(1257.865234 0)"/>
    <use xlink:href="#DejaVuSerif-20" transform="translate(1321.878906 0)"/>
    <use xlink:href="#DejaVuSerif-63" transform="translate(1353.666016 0)"/>
    <use xlink:href="#DejaVuSerif-6f" transform="translate(1409.671875 0)"/>
    <use xlink:href="#DejaVuSerif-6d" transform="translate(1469.876953 0)"/>
    <use xlink:href="#DejaVuSerif-70" transform="translate(1564.701172 0)"/>
    <use xlink:href="#DejaVuSerif-6f" transform="translate(1628.714844 0)"/>
    <use xlink:href="#DejaVuSerif-73" transform="translate(1688.919922 0)"/>
    <use xlink:href="#DejaVuSerif-69" transform="translate(1740.238281 0)"/>
    <use xlink:href="#DejaVuSerif-74" transform="translate(1772.220703 0)"/>
    <use xlink:href="#DejaVuSerif-69" transform="translate(1812.40625 0)"/>
    <use xlink:href="#DejaVuSerif-6f" transform="translate(1844.388672 0)"/>
    <use xlink:href="#DejaVuSerif-6e" transform="translate(1904.59375 0)"/>
    <use xlink:href="#DejaVuSerif-20" transform="translate(1968.998047 0)"/>
    <use xlink:href="#DejaVuSerif-6f" transform="translate(2000.785156 0)"/>
    <use xlink:href="#DejaVuSerif-66" transform="translate(2060.990234 0)"/>
    <use xlink:href="#DejaVuSerif-20" transform="translate(2098.001953 0)"/>
    <use xlink:href="#DejaVuSerif-52" transform="translate(2129.789062 0)"/>
    <use xlink:href="#DejaVuSerif-4e" transform="translate(2205.082031 0)"/>
    <use xlink:href="#DejaVuSerif-50" transform="translate(2292.582031 0)"/>
    <use xlink:href="#DejaVuSerif-44" transform="translate(2359.867188 0)"/>
    <use xlink:href="#DejaVuSerif-4e" transform="translate(2440.042969 0)"/>
    <use xlink:href="#DejaVuSerif-4f" transform="translate(2527.542969 0)"/>
    <use xlink:href="#DejaVuSerif-20" transform="translate(2609.525391 0)"/>
    <use xlink:href="#DejaVuSerif-72" transform="translate(2641.3125 0)"/>
    <use xlink:href="#DejaVuSerif-65" transform="translate(2689.115234 0)"/>
    <use xlink:href="#DejaVuSerif-67" transform="translate(2748.294922 0)"/>
    <use xlink:href="#DejaVuSerif-69" transform="translate(2812.308594 0)"/>
    <use xlink:href="#DejaVuSerif-73" transform="translate(2844.291016 0)"/>
    <use xlink:href="#DejaVuSerif-74" transform="translate(2895.609375 0)"/>
    <use xlink:href="#DejaVuSerif-72" transform="translate(2935.794922 0)"/>
    <use xlink:href="#DejaVuSerif-61" transform="translate(2983.597656 0)"/>
    <use xlink:href="#DejaVuSerif-74" transform="translate(3043.216797 0)"/>
    <use xlink:href="#DejaVuSerif-69" transform="translate(3083.402344 0)"/>
    <use xlink:href="#DejaVuSerif-6f" transform="translate(3115.384766 0)"/>
    <use xlink:href="#DejaVuSerif-6e" transform="translate(3175.589844 0)"/>
    <use xlink:href="#DejaVuSerif-73" transform="translate(3239.994141 0)"/>
    <use xlink:href="#DejaVuSerif-2c" transform="translate(3291.3125 0)"/>
    <use xlink:href="#DejaVuSerif-20" transform="translate(3323.099609 0)"/>
    <use xlink:href="#DejaVuSerif-32" transform="translate(3354.886719 0)"/>
    <use xlink:href="#DejaVuSerif-30" transform="translate(3418.509766 0)"/>
    <use xlink:href="#DejaVuSerif-31" transform="translate(3482.132812 0)"/>
    <use xlink:href="#DejaVuSerif-35" transform="translate(3545.755859 0)"/>
    <use xlink:href="#DejaVuSerif-20" transform="translate(3609.378906 0)"/>
    <use xlink:href="#DejaVuSerif-76" transform="translate(3641.166016 0)"/>
    <use xlink:href="#DejaVuSerif-73" transform="translate(3697.660156 0)"/>
    <use xlink:href="#DejaVuSerif-20" transform="translate(3748.978516 0)"/>
    <use xlink:href="#DejaVuSerif-32" transform="translate(3780.765625 0)"/>
    <use xlink:href="#DejaVuSerif-30" transform="translate(3844.388672 0)"/>
    <use xlink:href="#DejaVuSerif-32" transform="translate(3908.011719 0)"/>
    <use xlink:href="#DejaVuSerif-35" transform="translate(3971.634766 0)"/>
    <use xlink:href="#DejaVuSerif-2e" transform="translate(4035.257812 0)"/>
   </g>
  </g>
  <g id="legend_1">
   <g id="patch_53">
    <path d="M 39.693125 288.04625 
L 55.693125 288.04625 
L 55.693125 282.44625 
L 39.693125 282.44625 
z
" style="fill: #440154; stroke: #440154; stroke-linejoin: miter"/>
   </g>
   <g id="text_28">
    <!-- Community (&lt;2.5k) -->
    <g transform="translate(62.093125 288.04625) scale(0.08 -0.08)">
     <defs>
      <path id="DejaVuSerif-43" d="M 4513 1234 
Q 4306 581 3820 245 
Q 3334 -91 2591 -91 
Q 2134 -91 1743 65 
Q 1353 222 1050 525 
Q 700 875 529 1320 
Q 359 1766 359 2328 
Q 359 3416 987 4083 
Q 1616 4750 2644 4750 
Q 3025 4750 3456 4650 
Q 3888 4550 4384 4347 
L 4384 3272 
L 4031 3272 
Q 3916 3859 3567 4137 
Q 3219 4416 2591 4416 
Q 1844 4416 1459 3886 
Q 1075 3356 1075 2328 
Q 1075 1303 1459 773 
Q 1844 244 2591 244 
Q 3113 244 3450 492 
Q 3788 741 3938 1234 
L 4513 1234 
z
" transform="scale(0.015625)"/>
      <path id="DejaVuSerif-79" d="M 1381 -609 
L 1600 -56 
L 359 2988 
L -19 2988 
L -19 3322 
L 1509 3322 
L 1509 2988 
L 978 2988 
L 1913 703 
L 2847 2988 
L 2350 2988 
L 2350 3322 
L 3597 3322 
L 3597 2988 
L 3225 2988 
L 1703 -750 
Q 1547 -1138 1356 -1280 
Q 1166 -1422 819 -1422 
Q 672 -1422 517 -1397 
Q 363 -1372 206 -1325 
L 206 -691 
L 500 -691 
Q 519 -903 608 -995 
Q 697 -1088 884 -1088 
Q 1056 -1088 1161 -992 
Q 1266 -897 1381 -609 
z
" transform="scale(0.015625)"/>
      <path id="DejaVuSerif-28" d="M 2041 -997 
Q 1281 -656 893 83 
Q 506 822 506 1931 
Q 506 3044 893 3783 
Q 1281 4522 2041 4863 
L 2041 4556 
Q 1559 4225 1350 3623 
Q 1141 3022 1141 1931 
Q 1141 844 1350 242 
Q 1559 -359 2041 -691 
L 2041 -997 
z
" transform="scale(0.015625)"/>
      <path id="DejaVuSerif-3c" d="M 4684 3188 
L 1441 2003 
L 4684 825 
L 4684 294 
L 678 1747 
L 678 2266 
L 4684 3719 
L 4684 3188 
z
" transform="scale(0.015625)"/>
      <path id="DejaVuSerif-6b" d="M 1831 0 
L 219 0 
L 219 331 
L 738 331 
L 738 4531 
L 184 4531 
L 184 4863 
L 1313 4863 
L 1313 1697 
L 2713 2988 
L 2234 2988 
L 2234 3322 
L 3738 3322 
L 3738 2988 
L 3169 2988 
L 2181 2075 
L 3444 331 
L 3922 331 
L 3922 0 
L 2284 0 
L 2284 331 
L 2759 331 
L 1766 1697 
L 1313 1275 
L 1313 331 
L 1831 331 
L 1831 0 
z
" transform="scale(0.015625)"/>
      <path id="DejaVuSerif-29" d="M 453 -997 
L 453 -691 
Q 934 -359 1145 242 
Q 1356 844 1356 1931 
Q 1356 3022 1145 3623 
Q 934 4225 453 4556 
L 453 4863 
Q 1216 4522 1603 3783 
Q 1991 3044 1991 1931 
Q 1991 822 1603 83 
Q 1216 -656 453 -997 
z
" transform="scale(0.015625)"/>
     </defs>
     <use xlink:href="#DejaVuSerif-43"/>
     <use xlink:href="#DejaVuSerif-6f" transform="translate(76.513672 0)"/>
     <use xlink:href="#DejaVuSerif-6d" transform="translate(136.71875 0)"/>
     <use xlink:href="#DejaVuSerif-6d" transform="translate(231.542969 0)"/>
     <use xlink:href="#DejaVuSerif-75" transform="translate(326.367188 0)"/>
     <use xlink:href="#DejaVuSerif-6e" transform="translate(390.771484 0)"/>
     <use xlink:href="#DejaVuSerif-69" transform="translate(455.175781 0)"/>
     <use xlink:href="#DejaVuSerif-74" transform="translate(487.158203 0)"/>
     <use xlink:href="#DejaVuSerif-79" transform="translate(527.34375 0)"/>
     <use xlink:href="#DejaVuSerif-20" transform="translate(583.837891 0)"/>
     <use xlink:href="#DejaVuSerif-28" transform="translate(615.625 0)"/>
     <use xlink:href="#DejaVuSerif-3c" transform="translate(654.638672 0)"/>
     <use xlink:href="#DejaVuSerif-32" transform="translate(738.427734 0)"/>
     <use xlink:href="#DejaVuSerif-2e" transform="translate(802.050781 0)"/>
     <use xlink:href="#DejaVuSerif-35" transform="translate(833.837891 0)"/>
     <use xlink:href="#DejaVuSerif-6b" transform="translate(897.460938 0)"/>
     <use xlink:href="#DejaVuSerif-29" transform="translate(958.056641 0)"/>
    </g>
   </g>
   <g id="patch_54">
    <path d="M 39.693125 299.9025 
L 55.693125 299.9025 
L 55.693125 294.3025 
L 39.693125 294.3025 
z
" style="fill: #443983; stroke: #443983; stroke-linejoin: miter"/>
   </g>
   <g id="text_29">
    <!-- Rural (2.5-15k) -->
    <g transform="translate(62.093125 299.9025) scale(0.08 -0.08)">
     <use xlink:href="#DejaVuSerif-52"/>
     <use xlink:href="#DejaVuSerif-75" transform="translate(75.292969 0)"/>
     <use xlink:href="#DejaVuSerif-72" transform="translate(139.697266 0)"/>
     <use xlink:href="#DejaVuSerif-61" transform="translate(187.5 0)"/>
     <use xlink:href="#DejaVuSerif-6c" transform="translate(247.119141 0)"/>
     <use xlink:href="#DejaVuSerif-20" transform="translate(279.101562 0)"/>
     <use xlink:href="#DejaVuSerif-28" transform="translate(310.888672 0)"/>
     <use xlink:href="#DejaVuSerif-32" transform="translate(349.902344 0)"/>
     <use xlink:href="#DejaVuSerif-2e" transform="translate(413.525391 0)"/>
     <use xlink:href="#DejaVuSerif-35" transform="translate(445.3125 0)"/>
     <use xlink:href="#DejaVuSerif-2d" transform="translate(508.935547 0)"/>
     <use xlink:href="#DejaVuSerif-31" transform="translate(542.724609 0)"/>
     <use xlink:href="#DejaVuSerif-35" transform="translate(606.347656 0)"/>
     <use xlink:href="#DejaVuSerif-6b" transform="translate(669.970703 0)"/>
     <use xlink:href="#DejaVuSerif-29" transform="translate(730.566406 0)"/>
    </g>
   </g>
   <g id="patch_55">
    <path d="M 157.860625 288.04625 
L 173.860625 288.04625 
L 173.860625 282.44625 
L 157.860625 282.44625 
z
" style="fill: #31688e; stroke: #31688e; stroke-linejoin: miter"/>
   </g>
   <g id="text_30">
    <!-- Semi-urban (15-50k) -->
    <g transform="translate(180.260625 288.04625) scale(0.08 -0.08)">
     <use xlink:href="#DejaVuSerif-53"/>
     <use xlink:href="#DejaVuSerif-65" transform="translate(68.505859 0)"/>
     <use xlink:href="#DejaVuSerif-6d" transform="translate(127.685547 0)"/>
     <use xlink:href="#DejaVuSerif-69" transform="translate(222.509766 0)"/>
     <use xlink:href="#DejaVuSerif-2d" transform="translate(254.492188 0)"/>
     <use xlink:href="#DejaVuSerif-75" transform="translate(288.28125 0)"/>
     <use xlink:href="#DejaVuSerif-72" transform="translate(352.685547 0)"/>
     <use xlink:href="#DejaVuSerif-62" transform="translate(400.488281 0)"/>
     <use xlink:href="#DejaVuSerif-61" transform="translate(464.501953 0)"/>
     <use xlink:href="#DejaVuSerif-6e" transform="translate(524.121094 0)"/>
     <use xlink:href="#DejaVuSerif-20" transform="translate(588.525391 0)"/>
     <use xlink:href="#DejaVuSerif-28" transform="translate(620.3125 0)"/>
     <use xlink:href="#DejaVuSerif-31" transform="translate(659.326172 0)"/>
     <use xlink:href="#DejaVuSerif-35" transform="translate(722.949219 0)"/>
     <use xlink:href="#DejaVuSerif-2d" transform="translate(786.572266 0)"/>
     <use xlink:href="#DejaVuSerif-35" transform="translate(820.361328 0)"/>
     <use xlink:href="#DejaVuSerif-30" transform="translate(883.984375 0)"/>
     <use xlink:href="#DejaVuSerif-6b" transform="translate(947.607422 0)"/>
     <use xlink:href="#DejaVuSerif-29" transform="translate(1008.203125 0)"/>
    </g>
   </g>
   <g id="patch_56">
    <path d="M 157.860625 299.78875 
L 173.860625 299.78875 
L 173.860625 294.18875 
L 157.860625 294.18875 
z
" style="fill: #21918c; stroke: #21918c; stroke-linejoin: miter"/>
   </g>
   <g id="text_31">
    <!-- Small city (50-150k) -->
    <g transform="translate(180.260625 299.78875) scale(0.08 -0.08)">
     <use xlink:href="#DejaVuSerif-53"/>
     <use xlink:href="#DejaVuSerif-6d" transform="translate(68.505859 0)"/>
     <use xlink:href="#DejaVuSerif-61" transform="translate(163.330078 0)"/>
     <use xlink:href="#DejaVuSerif-6c" transform="translate(222.949219 0)"/>
     <use xlink:href="#DejaVuSerif-6c" transform="translate(254.931641 0)"/>
     <use xlink:href="#DejaVuSerif-20" transform="translate(286.914062 0)"/>
     <use xlink:href="#DejaVuSerif-63" transform="translate(318.701172 0)"/>
     <use xlink:href="#DejaVuSerif-69" transform="translate(374.707031 0)"/>
     <use xlink:href="#DejaVuSerif-74" transform="translate(406.689453 0)"/>
     <use xlink:href="#DejaVuSerif-79" transform="translate(446.875 0)"/>
     <use xlink:href="#DejaVuSerif-20" transform="translate(503.369141 0)"/>
     <use xlink:href="#DejaVuSerif-28" transform="translate(535.15625 0)"/>
     <use xlink:href="#DejaVuSerif-35" transform="translate(574.169922 0)"/>
     <use xlink:href="#DejaVuSerif-30" transform="translate(637.792969 0)"/>
     <use xlink:href="#DejaVuSerif-2d" transform="translate(701.416016 0)"/>
     <use xlink:href="#DejaVuSerif-31" transform="translate(735.205078 0)"/>
     <use xlink:href="#DejaVuSerif-35" transform="translate(798.828125 0)"/>
     <use xlink:href="#DejaVuSerif-30" transform="translate(862.451172 0)"/>
     <use xlink:href="#DejaVuSerif-6b" transform="translate(926.074219 0)"/>
     <use xlink:href="#DejaVuSerif-29" transform="translate(986.669922 0)"/>
    </g>
   </g>
   <g id="patch_57">
    <path d="M 280.040625 288.04625 
L 296.040625 288.04625 
L 296.040625 282.44625 
L 280.040625 282.44625 
z
" style="fill: #35b779; stroke: #35b779; stroke-linejoin: miter"/>
   </g>
   <g id="text_32">
    <!-- Medium city (150-500k) -->
    <g transform="translate(302.440625 288.04625) scale(0.08 -0.08)">
     <defs>
      <path id="DejaVuSerif-4d" d="M 353 0 
L 353 331 
L 947 331 
L 947 4331 
L 319 4331 
L 319 4666 
L 1678 4666 
L 3316 1344 
L 4953 4666 
L 6228 4666 
L 6228 4331 
L 5606 4331 
L 5606 331 
L 6203 331 
L 6203 0 
L 4378 0 
L 4378 331 
L 4972 331 
L 4972 3938 
L 3372 684 
L 2931 684 
L 1331 3938 
L 1331 331 
L 1925 331 
L 1925 0 
L 353 0 
z
" transform="scale(0.015625)"/>
     </defs>
     <use xlink:href="#DejaVuSerif-4d"/>
     <use xlink:href="#DejaVuSerif-65" transform="translate(102.392578 0)"/>
     <use xlink:href="#DejaVuSerif-64" transform="translate(161.572266 0)"/>
     <use xlink:href="#DejaVuSerif-69" transform="translate(225.585938 0)"/>
     <use xlink:href="#DejaVuSerif-75" transform="translate(257.568359 0)"/>
     <use xlink:href="#DejaVuSerif-6d" transform="translate(321.972656 0)"/>
     <use xlink:href="#DejaVuSerif-20" transform="translate(416.796875 0)"/>
     <use xlink:href="#DejaVuSerif-63" transform="translate(448.583984 0)"/>
     <use xlink:href="#DejaVuSerif-69" transform="translate(504.589844 0)"/>
     <use xlink:href="#DejaVuSerif-74" transform="translate(536.572266 0)"/>
     <use xlink:href="#DejaVuSerif-79" transform="translate(576.757812 0)"/>
     <use xlink:href="#DejaVuSerif-20" transform="translate(633.251953 0)"/>
     <use xlink:href="#DejaVuSerif-28" transform="translate(665.039062 0)"/>
     <use xlink:href="#DejaVuSerif-31" transform="translate(704.052734 0)"/>
     <use xlink:href="#DejaVuSerif-35" transform="translate(767.675781 0)"/>
     <use xlink:href="#DejaVuSerif-30" transform="translate(831.298828 0)"/>
     <use xlink:href="#DejaVuSerif-2d" transform="translate(894.921875 0)"/>
     <use xlink:href="#DejaVuSerif-35" transform="translate(928.710938 0)"/>
     <use xlink:href="#DejaVuSerif-30" transform="translate(992.333984 0)"/>
     <use xlink:href="#DejaVuSerif-30" transform="translate(1055.957031 0)"/>
     <use xlink:href="#DejaVuSerif-6b" transform="translate(1119.580078 0)"/>
     <use xlink:href="#DejaVuSerif-29" transform="translate(1180.175781 0)"/>
    </g>
   </g>
   <g id="patch_58">
    <path d="M 280.040625 299.9025 
L 296.040625 299.9025 
L 296.040625 294.3025 
L 280.040625 294.3025 
z
" style="fill: #90d743; stroke: #90d743; stroke-linejoin: miter"/>
   </g>
   <g id="text_33">
    <!-- City (500k-1M) -->
    <g transform="translate(302.440625 299.9025) scale(0.08 -0.08)">
     <use xlink:href="#DejaVuSerif-43"/>
     <use xlink:href="#DejaVuSerif-69" transform="translate(76.513672 0)"/>
     <use xlink:href="#DejaVuSerif-74" transform="translate(108.496094 0)"/>
     <use xlink:href="#DejaVuSerif-79" transform="translate(148.681641 0)"/>
     <use xlink:href="#DejaVuSerif-20" transform="translate(205.175781 0)"/>
     <use xlink:href="#DejaVuSerif-28" transform="translate(236.962891 0)"/>
     <use xlink:href="#DejaVuSerif-35" transform="translate(275.976562 0)"/>
     <use xlink:href="#DejaVuSerif-30" transform="translate(339.599609 0)"/>
     <use xlink:href="#DejaVuSerif-30" transform="translate(403.222656 0)"/>
     <use xlink:href="#DejaVuSerif-6b" transform="translate(466.845703 0)"/>
     <use xlink:href="#DejaVuSerif-2d" transform="translate(525.691406 0)"/>
     <use xlink:href="#DejaVuSerif-31" transform="translate(559.480469 0)"/>
     <use xlink:href="#DejaVuSerif-4d" transform="translate(623.103516 0)"/>
     <use xlink:href="#DejaVuSerif-29" transform="translate(725.496094 0)"/>
    </g>
   </g>
   <g id="patch_59">
    <path d="M 415.978125 288.04625 
L 431.978125 288.04625 
L 431.978125 282.44625 
L 415.978125 282.44625 
z
" style="fill: #fde725; stroke: #fde725; stroke-linejoin: miter"/>
   </g>
   <g id="text_34">
    <!-- Large city (&gt;1M) -->
    <g transform="translate(438.378125 288.04625) scale(0.08 -0.08)">
     <defs>
      <path id="DejaVuSerif-3e" d="M 678 3188 
L 678 3719 
L 4684 2266 
L 4684 1747 
L 678 294 
L 678 825 
L 3922 2003 
L 678 3188 
z
" transform="scale(0.015625)"/>
     </defs>
     <use xlink:href="#DejaVuSerif-4c"/>
     <use xlink:href="#DejaVuSerif-61" transform="translate(66.40625 0)"/>
     <use xlink:href="#DejaVuSerif-72" transform="translate(126.025391 0)"/>
     <use xlink:href="#DejaVuSerif-67" transform="translate(173.828125 0)"/>
     <use xlink:href="#DejaVuSerif-65" transform="translate(237.841797 0)"/>
     <use xlink:href="#DejaVuSerif-20" transform="translate(297.021484 0)"/>
     <use xlink:href="#DejaVuSerif-63" transform="translate(328.808594 0)"/>
     <use xlink:href="#DejaVuSerif-69" transform="translate(384.814453 0)"/>
     <use xlink:href="#DejaVuSerif-74" transform="translate(416.796875 0)"/>
     <use xlink:href="#DejaVuSerif-79" transform="translate(456.982422 0)"/>
     <use xlink:href="#DejaVuSerif-20" transform="translate(513.476562 0)"/>
     <use xlink:href="#DejaVuSerif-28" transform="translate(545.263672 0)"/>
     <use xlink:href="#DejaVuSerif-3e" transform="translate(584.277344 0)"/>
     <use xlink:href="#DejaVuSerif-31" transform="translate(668.066406 0)"/>
     <use xlink:href="#DejaVuSerif-4d" transform="translate(731.689453 0)"/>
     <use xlink:href="#DejaVuSerif-29" transform="translate(834.082031 0)"/>
    </g>
   </g>
  </g>
 </g>
 <defs>
  <clipPath id="p831af192c6">
   <rect x="30.96" y="41.04" width="147.705882" height="164.16"/>
  </clipPath>
  <clipPath id="p546c8ef4f0">
   <rect x="208.207059" y="41.04" width="147.705882" height="164.16"/>
  </clipPath>
  <clipPath id="pec1cc6fb91">
   <rect x="385.454118" y="41.04" width="147.705882" height="164.16"/>
  </clipPath>
 </defs>
</svg>
